<svg width="12" height="12" viewBox="0 0 12 12" fill="none" xmlns="http://www.w3.org/2000/svg">
<path d="M2.84538 11.3837L9.05859 4.64383L9.06664 10.1115C9.06754 10.7599 9.594 11.2848 10.2425 11.2839C10.5666 11.2834 10.86 11.1515 11.0722 10.9387C11.2843 10.7259 11.4153 10.4322 11.4148 10.108L11.4025 1.80586C11.4016 1.15746 10.8752 0.632541 10.2267 0.633496L1.92457 0.645718C1.27622 0.646673 0.751306 1.17314 0.752206 1.82154C0.753105 2.46994 1.27957 2.99485 1.92802 2.9939L7.39571 2.98585L1.1825 9.72573C0.724677 10.1849 0.725772 10.9283 1.18495 11.3862C1.64412 11.844 2.38755 11.8429 2.84538 11.3837Z" fill="black"/>
</svg>
