<svg width="25" height="25" viewBox="0 0 25 25" fill="none" xmlns="http://www.w3.org/2000/svg">
<rect x="0.5" y="0.828125" width="24" height="24" rx="12" fill="url(#paint0_linear_529_1796)"/>
<path d="M18.3516 13.207L13.9766 17.582C13.8125 17.7461 13.5938 17.8281 13.375 17.8281C13.1289 17.8281 12.9102 17.7461 12.7461 17.582C12.3906 17.2539 12.3906 16.6797 12.7461 16.3516L15.6172 13.4531H7.25C6.75781 13.4531 6.375 13.0703 6.375 12.5781C6.375 12.1133 6.75781 11.7031 7.25 11.7031H15.6172L12.7461 8.83203C12.3906 8.50391 12.3906 7.92969 12.7461 7.60156C13.0742 7.24609 13.6484 7.24609 13.9766 7.60156L18.3516 11.9766C18.707 12.3047 18.707 12.8789 18.3516 13.207Z" fill="white"/>
<defs>
<linearGradient id="paint0_linear_529_1796" x1="0.5" y1="12.8281" x2="24.5" y2="12.8281" gradientUnits="userSpaceOnUse">
<stop stop-color="#FA582D"/>
<stop offset="1" stop-color="#FFC328"/>
</linearGradient>
</defs>
</svg>
