<svg width="46" height="27" viewBox="0 0 46 27" fill="none" xmlns="http://www.w3.org/2000/svg">
<path d="M41.1503 21.2373C36.2869 24.8294 29.221 26.7363 23.1455 26.7363C14.6309 26.7363 6.95885 23.5877 1.16419 18.3547C0.705937 17.9408 1.11984 17.3791 1.66679 17.7043C7.93448 21.3408 15.6656 23.5433 23.6629 23.5433C29.0584 23.5433 34.9861 22.4199 40.4408 20.1138C41.2538 19.7443 41.9486 20.646 41.1503 21.2373Z" fill="#535353"/>
<path d="M43.1755 18.9312C42.5546 18.133 39.066 18.5469 37.4843 18.7391C37.0113 18.7982 36.9374 18.3843 37.3661 18.0739C40.1451 16.1226 44.7129 16.6843 45.245 17.3348C45.7772 18 45.0972 22.5677 42.4955 24.7555C42.0964 25.0955 41.7121 24.9181 41.8894 24.4746C42.4807 23.0112 43.7964 19.7147 43.1755 18.9312Z" fill="#535353"/>
<path d="M13.4926 9.81056C13.4926 10.3575 13.5518 10.801 13.6553 11.1262C13.7735 11.4514 13.9213 11.8062 14.1283 12.1905C14.2022 12.3088 14.2318 12.427 14.2318 12.5305C14.2318 12.6783 14.1431 12.8262 13.9509 12.974L13.0196 13.5948C12.8866 13.6835 12.7535 13.7279 12.6353 13.7279C12.4875 13.7279 12.3396 13.654 12.1918 13.5209C11.9849 13.2992 11.8075 13.0627 11.6596 12.8262C11.5118 12.5749 11.364 12.294 11.2014 11.954C10.0484 13.314 8.5997 13.994 6.85539 13.994C5.61368 13.994 4.62326 13.6392 3.89893 12.9296C3.1746 12.2201 2.80504 11.274 2.80504 10.0914C2.80504 8.83493 3.24851 7.81495 4.15023 7.04627C5.05195 6.27759 6.24932 5.89325 7.77189 5.89325C8.27449 5.89325 8.79187 5.9376 9.33882 6.01151C9.88576 6.08542 10.4475 6.20368 11.0388 6.33672V5.25761C11.0388 4.13416 10.8023 3.35069 10.344 2.89244C9.87098 2.43419 9.07274 2.21246 7.9345 2.21246C7.41712 2.21246 6.88496 2.27158 6.33801 2.40462C5.79107 2.53767 5.2589 2.70027 4.74152 2.90722C4.50501 3.0107 4.32762 3.06983 4.22414 3.09939C4.12067 3.12896 4.04675 3.14374 3.98762 3.14374C3.78067 3.14374 3.6772 2.99592 3.6772 2.68549V1.96116C3.6772 1.72464 3.70676 1.54725 3.78067 1.44377C3.85458 1.3403 3.98763 1.23682 4.19458 1.13335C4.71196 0.867265 5.33281 0.645531 6.05715 0.468143C6.78148 0.275973 7.55016 0.187279 8.36319 0.187279C10.1223 0.187279 11.4083 0.586402 12.2362 1.38465C13.0492 2.18289 13.4631 3.39504 13.4631 5.02109V9.81056H13.4926ZM7.49103 12.0575C7.97885 12.0575 8.48145 11.9688 9.01361 11.7914C9.54577 11.614 10.0188 11.2888 10.4179 10.8453C10.6544 10.5645 10.8318 10.254 10.9205 9.89925C11.0092 9.54448 11.0683 9.11579 11.0683 8.61319V7.99234C10.6397 7.88886 10.1814 7.80017 9.70838 7.74104C9.23534 7.68191 8.77709 7.65234 8.31884 7.65234C7.32843 7.65234 6.60409 7.84451 6.11628 8.24364C5.62846 8.64276 5.39194 9.20449 5.39194 9.9436C5.39194 10.6384 5.56933 11.1558 5.93889 11.5105C6.29366 11.8801 6.81104 12.0575 7.49103 12.0575ZM19.3612 13.654C19.0951 13.654 18.9178 13.6096 18.7995 13.5061C18.6812 13.4174 18.5778 13.2105 18.4891 12.9296L15.0152 1.5029C14.9265 1.20726 14.8822 1.01509 14.8822 0.911612C14.8822 0.675095 15.0004 0.542055 15.237 0.542055H16.6856C16.9665 0.542055 17.1587 0.586401 17.2621 0.689878C17.3804 0.778571 17.4691 0.985524 17.5578 1.26639L20.0412 11.0523L22.3472 1.26639C22.4212 0.970742 22.5099 0.778571 22.6281 0.689878C22.7464 0.601184 22.9533 0.542055 23.2194 0.542055H24.402C24.6828 0.542055 24.875 0.586401 24.9933 0.689878C25.1115 0.778571 25.215 0.985524 25.2741 1.26639L27.6097 11.1705L30.1671 1.26639C30.2558 0.970742 30.3593 0.778571 30.4627 0.689878C30.581 0.601184 30.7732 0.542055 31.0392 0.542055H32.414C32.6505 0.542055 32.7836 0.660313 32.7836 0.911612C32.7836 0.985524 32.7688 1.05944 32.754 1.14813C32.7392 1.23682 32.7096 1.35508 32.6505 1.51769L29.088 12.9444C28.9993 13.2401 28.8958 13.4322 28.7775 13.5209C28.6593 13.6096 28.4671 13.6687 28.2158 13.6687H26.9445C26.6637 13.6687 26.4715 13.6244 26.3533 13.5209C26.235 13.4174 26.1315 13.2253 26.0724 12.9296L23.7811 3.39504L21.5047 12.9148C21.4307 13.2105 21.3421 13.4027 21.2238 13.5061C21.1055 13.6096 20.8986 13.654 20.6325 13.654H19.3612ZM38.3565 14.0531C37.5878 14.0531 36.8191 13.9644 36.08 13.787C35.3409 13.6096 34.7644 13.4174 34.38 13.1957C34.1435 13.0627 33.9809 12.9148 33.9218 12.7818C33.8627 12.6488 33.8331 12.5009 33.8331 12.3679V11.614C33.8331 11.3036 33.9514 11.1558 34.1731 11.1558C34.2618 11.1558 34.3505 11.1705 34.4392 11.2001C34.5279 11.2297 34.6609 11.2888 34.8087 11.3479C35.3113 11.5697 35.8583 11.747 36.4348 11.8653C37.0261 11.9836 37.6026 12.0427 38.1939 12.0427C39.1252 12.0427 39.8495 11.8801 40.3521 11.5549C40.8547 11.2297 41.1208 10.7566 41.1208 10.1506C41.1208 9.73665 40.9877 9.39666 40.7217 9.11579C40.4556 8.83493 39.953 8.58363 39.2286 8.34711L37.0852 7.68191C36.0061 7.34192 35.2079 6.83932 34.72 6.17411C34.2322 5.52369 33.9809 4.79936 33.9809 4.03068C33.9809 3.40982 34.114 2.86288 34.38 2.38984C34.6461 1.91681 35.0009 1.5029 35.4444 1.17769C35.8878 0.837701 36.3904 0.586401 36.9817 0.409014C37.573 0.231626 38.1939 0.157715 38.8443 0.157715C39.1695 0.157715 39.5095 0.172497 39.8347 0.216844C40.1747 0.261191 40.4851 0.32032 40.7956 0.379449C41.0912 0.453361 41.3721 0.527272 41.6382 0.615966C41.9042 0.70466 42.1112 0.793354 42.259 0.882048C42.466 1.00031 42.6138 1.11856 42.7025 1.25161C42.7912 1.36986 42.8355 1.53247 42.8355 1.73942V2.43419C42.8355 2.74462 42.7173 2.90722 42.4955 2.90722C42.3773 2.90722 42.1851 2.84809 41.9338 2.72984C41.0912 2.3455 40.1451 2.15333 39.0956 2.15333C38.253 2.15333 37.5878 2.28637 37.1296 2.56723C36.6713 2.84809 36.4348 3.27678 36.4348 3.88286C36.4348 4.29676 36.5826 4.65154 36.8783 4.9324C37.1739 5.21326 37.7208 5.49413 38.5043 5.74543L40.6034 6.41063C41.6677 6.75062 42.4364 7.22366 42.8946 7.82973C43.3529 8.43581 43.5746 9.13057 43.5746 9.89925C43.5746 10.5349 43.4416 11.1114 43.1903 11.614C42.9242 12.1166 42.5694 12.5601 42.1112 12.9148C41.6529 13.2844 41.106 13.5505 40.4704 13.7427C39.8051 13.9496 39.1104 14.0531 38.3565 14.0531Z" fill="#8E8E8E"/>
</svg>
