<svg width="202" height="166" viewBox="0 0 202 166" fill="none" xmlns="http://www.w3.org/2000/svg">
<path d="M173.752 114.725C153.947 129.353 125.172 137.119 100.43 137.119C65.7559 137.119 34.5128 124.297 10.9149 102.986C9.04877 101.301 10.7343 99.0133 12.9617 100.338C38.4859 115.147 69.9698 124.116 102.537 124.116C124.51 124.116 148.649 119.541 170.863 110.15C174.174 108.645 177.003 112.317 173.752 114.725Z" fill="#FF9900"/>
<path d="M182 105.334C179.471 102.083 165.264 103.769 158.823 104.552C156.897 104.792 156.596 103.107 158.341 101.843C169.659 93.8964 188.26 96.184 190.427 98.8327C192.595 101.542 189.825 120.143 179.23 129.052C177.605 130.437 176.04 129.715 176.762 127.909C179.17 121.949 184.528 108.525 182 105.334Z" fill="#FF9900"/>
<path d="M61.1207 68.1916C61.1207 70.4189 61.3615 72.2249 61.7829 73.5492C62.2645 74.8736 62.8664 76.3184 63.7092 77.8835C64.0102 78.3651 64.1306 78.8467 64.1306 79.2681C64.1306 79.8701 63.7694 80.4721 62.9868 81.0741L59.1943 83.6024C58.6525 83.9636 58.1107 84.1442 57.6292 84.1442C57.0272 84.1442 56.4252 83.8432 55.8232 83.3014C54.9804 82.3984 54.258 81.4353 53.656 80.4721C53.0541 79.4487 52.4521 78.3049 51.7899 76.9204C47.0944 82.4586 41.1949 85.2278 34.0915 85.2278C29.0348 85.2278 25.0015 83.783 22.0517 80.8935C19.102 78.0039 17.597 74.1512 17.597 69.3353C17.597 64.2185 19.403 60.0647 23.0751 56.9344C26.7472 53.8041 31.6233 52.2389 37.8238 52.2389C39.8706 52.2389 41.9775 52.4195 44.2049 52.7205C46.4322 53.0215 48.7198 53.5031 51.1277 54.0449V49.6504C51.1277 45.0753 50.1645 41.8847 48.2984 40.0186C46.372 38.1524 43.1213 37.2495 38.486 37.2495C36.379 37.2495 34.2119 37.4902 31.9845 38.032C29.7572 38.5738 27.59 39.236 25.4831 40.0788C24.5199 40.5002 23.7975 40.741 23.3761 40.8614C22.9547 40.9818 22.6537 41.042 22.4129 41.042C21.5702 41.042 21.1488 40.44 21.1488 39.1758V36.2261C21.1488 35.2629 21.2692 34.5405 21.5702 34.1191C21.8712 33.6977 22.4129 33.2763 23.2557 32.8549C25.3627 31.7714 27.891 30.8684 30.8407 30.146C33.7905 29.3634 36.9208 29.0022 40.2317 29.0022C47.3954 29.0022 52.6327 30.6276 56.0038 33.8783C59.3147 37.1291 61.0003 42.0653 61.0003 48.6872V68.1916H61.1207ZM36.68 77.3418C38.6666 77.3418 40.7133 76.9806 42.8805 76.2582C45.0476 75.5358 46.974 74.2114 48.5994 72.4055C49.5625 71.2617 50.2849 69.9975 50.6461 68.5528C51.0073 67.108 51.2481 65.3622 51.2481 63.3155V60.7871C49.5023 60.3657 47.6362 60.0045 45.7098 59.7638C43.7835 59.523 41.9173 59.4026 40.0511 59.4026C36.0178 59.4026 33.0681 60.1851 31.0815 61.8105C29.095 63.4359 28.1318 65.7234 28.1318 68.7334C28.1318 71.5627 28.8542 73.6696 30.3592 75.1144C31.8039 76.6194 33.9109 77.3418 36.68 77.3418ZM85.0196 83.8432C83.936 83.8432 83.2136 83.6626 82.732 83.2412C82.2504 82.88 81.829 82.0373 81.4678 80.8935L67.3211 34.3599C66.96 33.1559 66.7794 32.3734 66.7794 31.952C66.7794 30.9888 67.2609 30.447 68.2241 30.447H74.1236C75.2674 30.447 76.05 30.6276 76.4713 31.049C76.9529 31.4102 77.3141 32.253 77.6753 33.3967L87.7887 73.2483L97.1797 33.3967C97.4807 32.1928 97.8419 31.4102 98.3235 31.049C98.805 30.6878 99.6478 30.447 100.731 30.447H105.547C106.691 30.447 107.474 30.6276 107.955 31.049C108.437 31.4102 108.858 32.253 109.099 33.3967L118.61 73.7298L129.025 33.3967C129.386 32.1928 129.807 31.4102 130.229 31.049C130.71 30.6878 131.493 30.447 132.577 30.447H138.175C139.138 30.447 139.68 30.9286 139.68 31.952C139.68 32.253 139.62 32.554 139.56 32.9151C139.499 33.2763 139.379 33.7579 139.138 34.4201L124.63 80.9537C124.269 82.1577 123.848 82.9402 123.366 83.3014C122.885 83.6626 122.102 83.9034 121.079 83.9034H115.901C114.758 83.9034 113.975 83.7228 113.494 83.3014C113.012 82.88 112.591 82.0975 112.35 80.8935L103.019 42.0653L93.7484 80.8333C93.4474 82.0373 93.0862 82.8198 92.6046 83.2412C92.123 83.6626 91.2802 83.8432 90.1966 83.8432H85.0196ZM162.375 85.4686C159.245 85.4686 156.114 85.1074 153.104 84.385C150.094 83.6626 147.747 82.88 146.181 81.9771C145.218 81.4353 144.556 80.8333 144.315 80.2915C144.074 79.7497 143.954 79.1477 143.954 78.6059V75.5358C143.954 74.2716 144.436 73.6696 145.339 73.6696C145.7 73.6696 146.061 73.7298 146.422 73.8502C146.783 73.9706 147.325 74.2114 147.927 74.4522C149.974 75.3552 152.201 76.0776 154.549 76.5592C156.957 77.0408 159.305 77.2816 161.713 77.2816C165.505 77.2816 168.455 76.6194 170.502 75.295C172.548 73.9706 173.632 72.0443 173.632 69.5761C173.632 67.8906 173.09 66.506 172.007 65.3622C170.923 64.2185 168.876 63.1951 165.927 62.2319L157.198 59.523C152.803 58.1384 149.553 56.0916 147.566 53.3827C145.579 50.7339 144.556 47.7842 144.556 44.6539C144.556 42.1255 145.098 39.8982 146.181 37.9718C147.265 36.0455 148.71 34.3599 150.516 33.0355C152.322 31.651 154.368 30.6276 156.776 29.9052C159.184 29.1828 161.713 28.8818 164.361 28.8818C165.686 28.8818 167.07 28.942 168.395 29.1226C169.779 29.3032 171.043 29.544 172.308 29.7848C173.512 30.0858 174.655 30.3868 175.739 30.748C176.823 31.1092 177.665 31.4704 178.267 31.8316C179.11 32.3132 179.712 32.7947 180.073 33.3365C180.434 33.8181 180.615 34.4803 180.615 35.3231V38.1524C180.615 39.4166 180.133 40.0788 179.23 40.0788C178.749 40.0788 177.966 39.838 176.943 39.3564C173.512 37.7912 169.659 37.0087 165.385 37.0087C161.953 37.0087 159.245 37.5504 157.378 38.6942C155.512 39.838 154.549 41.5838 154.549 44.0519C154.549 45.7375 155.151 47.1822 156.355 48.326C157.559 49.4698 159.786 50.6136 162.977 51.6369L171.525 54.3459C175.859 55.7304 178.99 57.6568 180.856 60.1249C182.722 62.5931 183.625 65.4224 183.625 68.5528C183.625 71.1413 183.083 73.489 182.06 75.5358C180.976 77.5826 179.531 79.3885 177.665 80.8333C175.799 82.3383 173.572 83.4218 170.983 84.2044C168.274 85.0472 165.445 85.4686 162.375 85.4686Z" fill="white"/>
</svg>
