<svg width="163" height="40" viewBox="0 0 163 40" fill="none" xmlns="http://www.w3.org/2000/svg">
<rect x="1" y="1" width="161" height="38" rx="19" fill="white" fill-opacity="0.05"/>
<rect x="1" y="1" width="161" height="38" rx="19" stroke="url(#paint0_linear_1140_769)" stroke-width="2"/>
<rect x="8" y="8" width="24" height="24" rx="12" fill="url(#paint1_linear_1140_769)"/>
<path d="M12.5 19.75C12.5 15.8945 15.6172 12.75 19.5 12.75C23.3555 12.75 26.5 15.8945 26.5 19.75C26.5 23.6328 23.3555 26.75 19.5 26.75C15.6172 26.75 12.5 23.6328 12.5 19.75ZM22.6445 18.5469C22.9453 18.2461 22.9453 17.7812 22.6445 17.4805C22.3438 17.1797 21.8789 17.1797 21.5781 17.4805L18.625 20.4336L17.3945 19.2305C17.0938 18.9297 16.6289 18.9297 16.3281 19.2305C16.0273 19.5312 16.0273 19.9961 16.3281 20.2969L18.0781 22.0469C18.3789 22.3477 18.8438 22.3477 19.1445 22.0469L22.6445 18.5469Z" fill="white"/>
<path d="M41.064 25.5V15.7H42.674V25.5H41.064ZM42.17 25.5V24.03H47.294V25.5H42.17ZM49.1051 25.5L53.1371 15.7H54.2571L58.2611 25.5H56.5251L53.3891 17.562H53.9771L50.8131 25.5H49.1051ZM51.0931 23.61V22.21H56.2871V23.61H51.0931ZM62.1737 25.5V15.98H63.7837V25.5H62.1737ZM58.9817 17.17V15.7H66.9757V17.17H58.9817ZM69.7777 25.5V15.7H71.3877V25.5H69.7777ZM70.8837 25.5V24.03H76.3717V25.5H70.8837ZM70.8837 21.202V19.788H75.8957V21.202H70.8837ZM70.8837 17.17V15.7H76.3017V17.17H70.8837ZM81.9194 25.64C81.1447 25.64 80.4867 25.5 79.9454 25.22C79.4041 24.94 78.9187 24.5293 78.4894 23.988L79.5814 22.896C79.8521 23.288 80.1741 23.596 80.5474 23.82C80.9207 24.0347 81.3967 24.142 81.9754 24.142C82.5167 24.142 82.9461 24.03 83.2634 23.806C83.5901 23.582 83.7534 23.274 83.7534 22.882C83.7534 22.5553 83.6694 22.2893 83.5014 22.084C83.3334 21.8787 83.1094 21.7107 82.8294 21.58C82.5587 21.44 82.2554 21.3187 81.9194 21.216C81.5927 21.104 81.2614 20.9827 80.9254 20.852C80.5987 20.712 80.2954 20.5393 80.0154 20.334C79.7447 20.1287 79.5254 19.8627 79.3574 19.536C79.1894 19.2093 79.1054 18.794 79.1054 18.29C79.1054 17.7113 79.2454 17.2213 79.5254 16.82C79.8147 16.4093 80.2021 16.0967 80.6874 15.882C81.1727 15.6673 81.7141 15.56 82.3114 15.56C82.9554 15.56 83.5294 15.686 84.0334 15.938C84.5467 16.19 84.9621 16.512 85.2794 16.904L84.1874 17.996C83.9074 17.6787 83.6134 17.4453 83.3054 17.296C83.0067 17.1373 82.6614 17.058 82.2694 17.058C81.7841 17.058 81.4014 17.156 81.1214 17.352C80.8507 17.548 80.7154 17.8233 80.7154 18.178C80.7154 18.4767 80.7994 18.7193 80.9674 18.906C81.1354 19.0833 81.3547 19.2373 81.6254 19.368C81.9054 19.4893 82.2087 19.606 82.5354 19.718C82.8714 19.83 83.2027 19.956 83.5294 20.096C83.8654 20.236 84.1687 20.418 84.4394 20.642C84.7194 20.8567 84.9434 21.1367 85.1114 21.482C85.2794 21.8273 85.3634 22.2613 85.3634 22.784C85.3634 23.6613 85.0507 24.3567 84.4254 24.87C83.8094 25.3833 82.9741 25.64 81.9194 25.64ZM90.4089 25.5V15.98H92.0189V25.5H90.4089ZM87.2169 17.17V15.7H95.2109V17.17H87.2169ZM103.103 25.5V24.1H105.917C106.411 24.1 106.794 23.946 107.065 23.638C107.335 23.33 107.471 22.9753 107.471 22.574C107.471 22.3033 107.41 22.0513 107.289 21.818C107.167 21.5847 106.99 21.398 106.757 21.258C106.523 21.118 106.243 21.048 105.917 21.048H103.103V19.648H105.679C106.099 19.648 106.435 19.5407 106.687 19.326C106.939 19.1113 107.065 18.794 107.065 18.374C107.065 17.954 106.939 17.6367 106.687 17.422C106.435 17.2073 106.099 17.1 105.679 17.1H103.103V15.7H105.721C106.383 15.7 106.934 15.8213 107.373 16.064C107.811 16.3067 108.138 16.6193 108.353 17.002C108.567 17.3847 108.675 17.7953 108.675 18.234C108.675 18.7473 108.53 19.2 108.241 19.592C107.961 19.984 107.545 20.3013 106.995 20.544L107.121 20.04C107.737 20.292 108.217 20.6467 108.563 21.104C108.908 21.5613 109.081 22.098 109.081 22.714C109.081 23.218 108.955 23.68 108.703 24.1C108.46 24.52 108.096 24.8607 107.611 25.122C107.135 25.374 106.547 25.5 105.847 25.5H103.103ZM101.997 25.5V15.7H103.607V25.5H101.997ZM112.106 25.5V15.7H113.716V25.5H112.106ZM113.212 25.5V24.03H118.336V25.5H113.212ZM124.959 25.64C124.259 25.64 123.606 25.5093 122.999 25.248C122.392 24.9867 121.86 24.6273 121.403 24.17C120.946 23.7033 120.586 23.1667 120.325 22.56C120.073 21.944 119.947 21.286 119.947 20.586C119.947 19.886 120.073 19.2327 120.325 18.626C120.586 18.0193 120.941 17.4873 121.389 17.03C121.846 16.5633 122.374 16.204 122.971 15.952C123.578 15.6907 124.231 15.56 124.931 15.56C125.631 15.56 126.28 15.6907 126.877 15.952C127.484 16.204 128.016 16.5633 128.473 17.03C128.93 17.4873 129.285 18.024 129.537 18.64C129.798 19.2467 129.929 19.9 129.929 20.6C129.929 21.3 129.798 21.958 129.537 22.574C129.285 23.1807 128.93 23.7127 128.473 24.17C128.025 24.6273 127.498 24.9867 126.891 25.248C126.294 25.5093 125.65 25.64 124.959 25.64ZM124.931 24.1C125.594 24.1 126.172 23.9507 126.667 23.652C127.171 23.3533 127.563 22.9427 127.843 22.42C128.132 21.888 128.277 21.2767 128.277 20.586C128.277 20.0727 128.193 19.606 128.025 19.186C127.866 18.7567 127.638 18.388 127.339 18.08C127.04 17.7627 126.686 17.52 126.275 17.352C125.874 17.184 125.426 17.1 124.931 17.1C124.278 17.1 123.699 17.2493 123.195 17.548C122.7 17.8373 122.308 18.2433 122.019 18.766C121.739 19.2887 121.599 19.8953 121.599 20.586C121.599 21.0993 121.678 21.5753 121.837 22.014C122.005 22.4433 122.234 22.812 122.523 23.12C122.822 23.428 123.176 23.6707 123.587 23.848C123.998 24.016 124.446 24.1 124.931 24.1ZM137.5 25.64C136.828 25.64 136.193 25.5093 135.596 25.248C134.998 24.9867 134.476 24.6273 134.028 24.17C133.58 23.7033 133.225 23.1667 132.964 22.56C132.712 21.944 132.586 21.286 132.586 20.586C132.586 19.886 132.712 19.2327 132.964 18.626C133.225 18.0193 133.58 17.4873 134.028 17.03C134.485 16.5633 135.017 16.204 135.624 15.952C136.24 15.6907 136.902 15.56 137.612 15.56C138.386 15.56 139.105 15.7093 139.768 16.008C140.43 16.3067 140.986 16.7313 141.434 17.282L140.342 18.374C140.052 17.9633 139.665 17.6507 139.18 17.436C138.694 17.212 138.172 17.1 137.612 17.1C136.94 17.1 136.347 17.2493 135.834 17.548C135.33 17.8373 134.938 18.2433 134.658 18.766C134.378 19.2887 134.238 19.8953 134.238 20.586C134.238 21.2767 134.378 21.888 134.658 22.42C134.947 22.9427 135.334 23.3533 135.82 23.652C136.305 23.9507 136.856 24.1 137.472 24.1C138.125 24.1 138.685 23.9833 139.152 23.75C139.628 23.5073 139.992 23.1527 140.244 22.686C140.496 22.21 140.622 21.6267 140.622 20.936L141.63 21.664H137.444V20.194H142.288V20.418C142.288 21.5847 142.078 22.5553 141.658 23.33C141.247 24.1047 140.682 24.6833 139.964 25.066C139.245 25.4487 138.424 25.64 137.5 25.64ZM147.829 25.64C147.054 25.64 146.396 25.5 145.855 25.22C145.313 24.94 144.828 24.5293 144.399 23.988L145.491 22.896C145.761 23.288 146.083 23.596 146.457 23.82C146.83 24.0347 147.306 24.142 147.885 24.142C148.426 24.142 148.855 24.03 149.173 23.806C149.499 23.582 149.663 23.274 149.663 22.882C149.663 22.5553 149.579 22.2893 149.411 22.084C149.243 21.8787 149.019 21.7107 148.739 21.58C148.468 21.44 148.165 21.3187 147.829 21.216C147.502 21.104 147.171 20.9827 146.835 20.852C146.508 20.712 146.205 20.5393 145.925 20.334C145.654 20.1287 145.435 19.8627 145.267 19.536C145.099 19.2093 145.015 18.794 145.015 18.29C145.015 17.7113 145.155 17.2213 145.435 16.82C145.724 16.4093 146.111 16.0967 146.597 15.882C147.082 15.6673 147.623 15.56 148.221 15.56C148.865 15.56 149.439 15.686 149.943 15.938C150.456 16.19 150.871 16.512 151.189 16.904L150.097 17.996C149.817 17.6787 149.523 17.4453 149.215 17.296C148.916 17.1373 148.571 17.058 148.179 17.058C147.693 17.058 147.311 17.156 147.031 17.352C146.76 17.548 146.625 17.8233 146.625 18.178C146.625 18.4767 146.709 18.7193 146.877 18.906C147.045 19.0833 147.264 19.2373 147.535 19.368C147.815 19.4893 148.118 19.606 148.445 19.718C148.781 19.83 149.112 19.956 149.439 20.096C149.775 20.236 150.078 20.418 150.349 20.642C150.629 20.8567 150.853 21.1367 151.021 21.482C151.189 21.8273 151.273 22.2613 151.273 22.784C151.273 23.6613 150.96 24.3567 150.335 24.87C149.719 25.3833 148.883 25.64 147.829 25.64Z" fill="black"/>
<defs>
<linearGradient id="paint0_linear_1140_769" x1="0" y1="20" x2="163" y2="20" gradientUnits="userSpaceOnUse">
<stop stop-color="#FA582D"/>
<stop offset="1" stop-color="#FFC328"/>
</linearGradient>
<linearGradient id="paint1_linear_1140_769" x1="8" y1="20" x2="32" y2="20" gradientUnits="userSpaceOnUse">
<stop stop-color="#FA582D"/>
<stop offset="1" stop-color="#FFC328"/>
</linearGradient>
</defs>
</svg>
