<svg width="25" height="24" viewBox="0 0 25 24" fill="none" xmlns="http://www.w3.org/2000/svg">
<rect x="24.113" y="24" width="24" height="24" rx="12" transform="rotate(-180 24.113 24)" fill="url(#paint0_linear_787_1995)"/>
<path d="M18.3217 12.6C18.6531 12.6 18.9217 12.3314 18.9217 12C18.9217 11.6686 18.6531 11.4 18.3217 11.4L18.3217 12.6ZM7.41035 11.5757C7.17604 11.81 7.17604 12.1899 7.41035 12.4243L11.2287 16.2426C11.463 16.477 11.8429 16.477 12.0773 16.2426C12.3116 16.0083 12.3116 15.6284 12.0773 15.3941L8.68314 12L12.0773 8.60589C12.3116 8.37157 12.3116 7.99167 12.0773 7.75736C11.8429 7.52304 11.463 7.52304 11.2287 7.75736L7.41035 11.5757ZM18.3217 11.4L7.83461 11.4L7.83461 12.6L18.3217 12.6L18.3217 11.4Z" fill="white"/>
<defs>
<linearGradient id="paint0_linear_787_1995" x1="24.113" y1="36" x2="48.113" y2="36" gradientUnits="userSpaceOnUse">
<stop stop-color="#FA582D"/>
<stop offset="1" stop-color="#FFC328"/>
</linearGradient>
</defs>
</svg>
