<svg width="25" height="24" viewBox="0 0 25 24" fill="none" xmlns="http://www.w3.org/2000/svg">
<rect x="0.113007" width="24" height="24" rx="12" fill="url(#paint0_linear_529_327)"/>
<path d="M4.61301 11.75C4.61301 7.89453 7.73019 4.75 11.613 4.75C15.4685 4.75 18.613 7.89453 18.613 11.75C18.613 15.6328 15.4685 18.75 11.613 18.75C7.73019 18.75 4.61301 15.6328 4.61301 11.75ZM14.7575 10.5469C15.0583 10.2461 15.0583 9.78125 14.7575 9.48047C14.4568 9.17969 13.9919 9.17969 13.6911 9.48047L10.738 12.4336L9.50754 11.2305C9.20676 10.9297 8.74191 10.9297 8.44113 11.2305C8.14035 11.5312 8.14035 11.9961 8.44113 12.2969L10.1911 14.0469C10.4919 14.3477 10.9568 14.3477 11.2575 14.0469L14.7575 10.5469Z" fill="white"/>
<defs>
<linearGradient id="paint0_linear_529_327" x1="0.113007" y1="12" x2="24.113" y2="12" gradientUnits="userSpaceOnUse">
<stop stop-color="#FA582D"/>
<stop offset="1" stop-color="#FFC328"/>
</linearGradient>
</defs>
</svg>
