<svg width="67" height="35" viewBox="0 0 67 35" fill="none" xmlns="http://www.w3.org/2000/svg">
<path d="M32.7408 23.2656C32.6549 23.2421 31.334 22.9015 29.9303 22.9015C27.2727 22.9015 25.6727 24.3365 25.6727 26.4736C25.6727 28.3653 27.0112 29.3087 28.6177 29.8161C28.7958 29.8749 29.0582 29.9571 29.2329 30.0149C29.948 30.2399 30.5188 30.5741 30.5188 31.1531C30.5188 31.8006 29.8591 32.2198 28.425 32.2198C27.1647 32.2198 25.9564 31.8594 25.7019 31.7952V34.4245C25.8438 34.4546 27.2797 34.7365 28.8137 34.7365C31.0202 34.7365 33.5441 33.7724 33.5441 30.9023C33.5441 29.5102 32.6918 28.2286 30.8205 27.6337L30.025 27.3804C29.5504 27.2307 28.7032 26.988 28.7032 26.2924C28.7032 25.743 29.3309 25.356 30.4868 25.356C31.4841 25.356 32.6978 25.6912 32.7408 25.7046V23.2656ZM57.107 28.8191C57.107 30.4816 55.8336 31.8265 54.1249 31.8265C52.4143 31.8265 51.1443 30.4816 51.1443 28.8191C51.1443 27.16 52.4143 25.8145 54.1249 25.8145C55.8336 25.8145 57.107 27.16 57.107 28.8191ZM54.1249 22.9051C50.6106 22.9051 48.0903 25.5557 48.0903 28.8191C48.0903 32.0877 50.6106 34.7365 54.1249 34.7365C57.6388 34.7365 60.1628 32.0877 60.1628 28.8191C60.1628 25.5557 57.6388 22.9051 54.1249 22.9051ZM21.8062 34.5331H18.9228V23.1076H21.8062" fill="#8E8E8E"/>
<path d="M14.9595 23.3146C14.6885 23.2342 13.687 22.9051 12.3305 22.9051C8.82173 22.9051 6.24602 25.4069 6.24602 28.8191C6.24602 32.5005 9.08932 34.7365 12.3305 34.7365C13.6182 34.7365 14.6012 34.4315 14.9595 34.3298V31.2627C14.8356 31.3315 13.8931 31.8691 12.5372 31.8691C10.6163 31.8691 9.3773 30.5172 9.3773 28.8191C9.3773 27.0693 10.6699 25.7716 12.5372 25.7716C13.9162 25.7716 14.8435 26.3211 14.9595 26.3816" fill="#8E8E8E"/>
<path d="M45.0546 23.3146C44.7837 23.2342 43.7821 22.9051 42.4256 22.9051C38.9169 22.9051 36.3412 25.4069 36.3412 28.8191C36.3412 32.5005 39.1845 34.7365 42.4256 34.7365C43.7133 34.7365 44.6963 34.4315 45.0546 34.3298V31.2627C44.9307 31.3315 43.9882 31.8691 42.6323 31.8691C40.7114 31.8691 39.4724 30.5172 39.4724 28.8191C39.4724 27.0693 40.765 25.7716 42.6323 25.7716C44.0114 25.7716 44.9386 26.3211 45.0546 26.3816" fill="#8E8E8E"/>
<path d="M18.9142 1.50581C18.9142 0.718267 18.271 0.0795898 17.4825 0.0795898C16.6944 0.0795898 16.0511 0.718267 16.0511 1.50581V1.75175V16.6782C16.0511 17.4703 16.6944 18.1087 17.4825 18.1087C18.271 18.1087 18.9142 17.4703 18.9142 16.6782V1.50581ZM11.0513 6.89164C11.0513 6.1044 10.4084 5.46481 9.61993 5.46481C8.83148 5.46481 8.18853 6.1044 8.18853 6.89164V13.8279C8.18853 14.6197 8.83148 15.2584 9.61993 15.2584C10.4084 15.2584 11.0513 14.6197 11.0513 13.8279V6.89164ZM3.18871 10.8284C3.18871 10.0409 2.54577 9.40251 1.75732 9.40251C0.96978 9.40251 0.325928 10.0409 0.325928 10.8284V13.8279C0.325928 14.6197 0.96978 15.2584 1.75732 15.2584C2.54577 15.2584 3.18871 14.6197 3.18871 13.8279" fill="#535353"/>
<path d="M47.4927 1.50581C47.4927 0.718267 48.136 0.0795898 48.9244 0.0795898C49.7126 0.0795898 50.3558 0.718267 50.3558 1.50581V16.6782C50.3558 17.4703 49.7126 18.1087 48.9244 18.1087C48.136 18.1087 47.4927 17.4703 47.4927 16.6782V1.50581ZM55.3557 6.89164C55.3557 6.1044 55.9986 5.46481 56.787 5.46481C57.5755 5.46481 58.2184 6.1044 58.2184 6.89164V13.8279C58.2184 14.6197 57.5755 15.2584 56.787 15.2584C55.9986 15.2584 55.3557 14.6197 55.3557 13.8279V6.89164ZM63.2183 10.8284C63.2183 10.0409 63.8612 9.40251 64.6497 9.40251C65.4372 9.40251 66.081 10.0409 66.081 10.8284V13.8279C66.081 14.6197 65.4372 15.2584 64.6497 15.2584C63.8612 15.2584 63.2183 14.6197 63.2183 13.8279" fill="#535353"/>
<path fill-rule="evenodd" clip-rule="evenodd" d="M17.4825 0.0795898C16.6944 0.0795898 16.0511 0.718267 16.0511 1.50581V1.75175V16.6782C16.0511 17.4703 16.6944 18.1087 17.4825 18.1087C18.271 18.1087 18.9142 17.4703 18.9142 16.6782V1.50581C18.9142 0.718267 18.271 0.0795898 17.4825 0.0795898ZM25.3454 5.46481C24.557 5.46481 23.9141 6.1044 23.9141 6.89164V13.8279C23.9141 14.6197 24.557 15.2584 25.3454 15.2584C26.1339 15.2584 26.7768 14.6197 26.7768 13.8279V6.89164C26.7768 6.1044 26.1339 5.46481 25.3454 5.46481ZM48.9244 0.0795898C49.7126 0.0795898 50.3558 0.718267 50.3558 1.50581V16.6782C50.3558 17.4703 49.7126 18.1087 48.9244 18.1087C48.136 18.1087 47.4927 17.4703 47.4927 16.6782V1.50581C47.4927 0.718267 48.136 0.0795898 48.9244 0.0795898ZM41.0615 5.46481C41.85 5.46481 42.4929 6.1044 42.4929 6.89164V13.8279C42.4929 14.6197 41.85 15.2584 41.0615 15.2584C40.2731 15.2584 39.6301 14.6197 39.6301 13.8279V6.89164C39.6301 6.1044 40.2731 5.46481 41.0615 5.46481Z" fill="#535353"/>
<path d="M33.2035 9.40252L33.2081 9.40251C33.9956 9.40251 34.6394 10.0409 34.6394 10.8284V13.8279C34.6394 14.6197 33.9956 15.2584 33.2081 15.2584L33.2035 15.2584L33.1989 15.2584C32.4114 15.2584 31.7675 14.6197 31.7675 13.8279V10.8284C31.7675 10.0409 32.4114 9.40251 33.1989 9.40251L33.2035 9.40252Z" fill="#535353"/>
</svg>
