<svg width="344" height="183" viewBox="0 0 344 183" fill="none" xmlns="http://www.w3.org/2000/svg">
<path d="M169.579 122.261C169.13 122.138 162.22 120.349 154.876 120.349C140.973 120.349 132.602 127.885 132.602 139.107C132.602 149.042 139.605 153.996 148.009 156.661C148.941 156.969 150.314 157.401 151.228 157.705C154.969 158.886 157.955 160.641 157.955 163.682C157.955 167.082 154.504 169.284 147.001 169.284C140.408 169.284 134.087 167.391 132.755 167.054V180.861C133.497 181.02 141.01 182.5 149.035 182.5C160.578 182.5 173.782 177.437 173.782 162.365C173.782 155.054 169.323 148.324 159.533 145.2L155.372 143.87C152.889 143.083 148.457 141.809 148.457 138.156C148.457 135.271 151.741 133.239 157.788 133.239C163.005 133.239 169.355 134.999 169.579 135.069V122.261ZM297.052 151.425C297.052 160.155 290.39 167.218 281.451 167.218C272.502 167.218 265.858 160.155 265.858 151.425C265.858 142.712 272.502 135.646 281.451 135.646C290.39 135.646 297.052 142.712 297.052 151.425ZM281.451 120.368C263.066 120.368 249.881 134.287 249.881 151.425C249.881 168.59 263.066 182.5 281.451 182.5C299.834 182.5 313.038 168.59 313.038 151.425C313.038 134.287 299.834 120.368 281.451 120.368ZM112.375 181.432H97.2899V121.431H112.375" fill="#01A2DA"/>
<path d="M76.5559 122.518C75.1385 122.096 69.8989 120.368 62.8023 120.368C44.4461 120.368 30.9711 133.506 30.9711 151.425C30.9711 170.758 45.846 182.5 62.8023 182.5C69.539 182.5 74.6814 180.898 76.5559 180.364V164.258C75.9077 164.619 70.9771 167.442 63.8837 167.442C53.8344 167.442 47.3526 160.343 47.3526 151.425C47.3526 142.236 54.1147 135.421 63.8837 135.421C71.0981 135.421 75.9491 138.307 76.5559 138.625" fill="#01A2DA"/>
<path d="M234 122.518C232.582 122.096 227.343 120.368 220.246 120.368C201.89 120.368 188.415 133.506 188.415 151.425C188.415 170.758 203.29 182.5 220.246 182.5C226.983 182.5 232.125 180.898 234 180.364V164.258C233.351 164.619 228.421 167.442 221.327 167.442C211.278 167.442 204.796 160.343 204.796 151.425C204.796 142.236 211.558 135.421 221.327 135.421C228.542 135.421 233.393 138.307 234 138.625" fill="#01A2DA"/>
<path d="M97.2453 7.98974C97.2453 3.854 93.8801 0.5 89.7553 0.5C85.6321 0.5 82.267 3.854 82.267 7.98974V9.28134V87.6672C82.267 91.8269 85.6321 95.1793 89.7553 95.1793C93.8801 95.1793 97.2453 91.8269 97.2453 87.6672V7.98974ZM56.1102 36.2733C56.1102 32.1392 52.7467 28.7804 48.6219 28.7804C44.497 28.7804 41.1335 32.1392 41.1335 36.2733V72.6989C41.1335 76.857 44.497 80.211 48.6219 80.211C52.7467 80.211 56.1102 76.857 56.1102 72.6989V36.2733ZM14.9767 56.9473C14.9767 52.8115 11.6132 49.4591 7.48837 49.4591C3.36833 49.4591 0 52.8115 0 56.9473V72.6989C0 76.857 3.36833 80.211 7.48837 80.211C11.6132 80.211 14.9767 76.857 14.9767 72.6989" fill="#00A5DE"/>
<path d="M246.755 7.98974C246.755 3.854 250.12 0.5 254.245 0.5C258.368 0.5 261.733 3.854 261.733 7.98974V87.6672C261.733 91.8269 258.368 95.1793 254.245 95.1793C250.12 95.1793 246.755 91.8269 246.755 87.6672V7.98974ZM287.89 36.2733C287.89 32.1392 291.253 28.7804 295.378 28.7804C299.503 28.7804 302.866 32.1392 302.866 36.2733V72.6989C302.866 76.857 299.503 80.211 295.378 80.211C291.253 80.211 287.89 76.857 287.89 72.6989V36.2733ZM329.023 56.9473C329.023 52.8115 332.387 49.4591 336.512 49.4591C340.632 49.4591 344 52.8115 344 56.9473V72.6989C344 76.857 340.632 80.211 336.512 80.211C332.387 80.211 329.023 76.857 329.023 72.6989" fill="#00A5DE"/>
<path fill-rule="evenodd" clip-rule="evenodd" d="M89.7553 0.5C85.6321 0.5 82.267 3.854 82.267 7.98974V9.28134V87.6672C82.267 91.8269 85.6321 95.1793 89.7553 95.1793C93.8801 95.1793 97.2453 91.8269 97.2453 87.6672V7.98974C97.2453 3.854 93.8801 0.5 89.7553 0.5ZM130.89 28.7804C126.766 28.7804 123.402 32.1392 123.402 36.2733V72.6989C123.402 76.857 126.766 80.211 130.89 80.211C135.015 80.211 138.379 76.857 138.379 72.6989V36.2733C138.379 32.1392 135.015 28.7804 130.89 28.7804ZM254.245 0.5C258.368 0.5 261.733 3.854 261.733 7.98974V87.6672C261.733 91.8269 258.368 95.1793 254.245 95.1793C250.12 95.1793 246.755 91.8269 246.755 87.6672V7.98974C246.755 3.854 250.12 0.5 254.245 0.5ZM213.11 28.7804C217.234 28.7804 220.598 32.1392 220.598 36.2733V72.6989C220.598 76.857 217.234 80.211 213.11 80.211C208.985 80.211 205.621 76.857 205.621 72.6989V36.2733C205.621 32.1392 208.985 28.7804 213.11 28.7804Z" fill="#00A5DE"/>
<path d="M172 49.4591L172.024 49.4591C176.144 49.4591 179.512 52.8115 179.512 56.9473V72.6989C179.512 76.857 176.144 80.211 172.024 80.211L172 80.211L171.976 80.211C167.856 80.211 164.488 76.857 164.488 72.6989V56.9473C164.488 52.8115 167.856 49.4591 171.976 49.4591L172 49.4591Z" fill="#00A5DE"/>
</svg>
