<svg width="31" height="26" viewBox="0 0 31 26" fill="none" xmlns="http://www.w3.org/2000/svg">
<path fill-rule="evenodd" clip-rule="evenodd" d="M6.09372 18.8517C2.72826 18.8517 0 16.0938 0 12.6918C0 9.77974 1.99913 7.33993 4.68567 6.69753C4.67049 6.52027 4.6623 6.34104 4.6623 6.15983C4.6623 2.75782 7.39055 0 10.756 0C13.0685 0 15.08 1.30207 16.1124 3.22049C16.9364 2.80018 17.8676 2.56312 18.8536 2.56312C21.4595 2.56312 23.6828 4.2167 24.5539 6.54237C24.6706 6.53568 24.788 6.53186 24.9063 6.53186C28.2718 6.53186 31 9.28969 31 12.6917C31 16.0937 28.2717 18.8515 24.9063 18.8515H23.8317V18.1367C23.8317 17.1743 23.0591 16.3933 22.107 16.3933C21.8334 16.3933 21.698 16.0627 21.8915 15.8672C22.5646 15.1867 22.5646 14.082 21.8914 13.4015C21.558 13.0646 21.2247 12.7276 20.8913 12.3906C20.2182 11.7102 19.1255 11.7102 18.4523 12.3907C18.2588 12.5862 17.9318 12.4493 17.9318 12.1728C17.9318 11.2103 17.1592 10.4294 16.2071 10.4294C15.7357 10.4294 15.2643 10.4294 14.7929 10.4294C13.8408 10.4294 13.0682 11.2103 13.0682 12.1728C13.0682 12.4493 12.7412 12.5862 12.5477 12.3907C11.8745 11.7102 10.7818 11.7102 10.1087 12.3906C9.77529 12.7276 9.44198 13.0646 9.1086 13.4015C8.43536 14.082 8.43536 15.1867 9.10854 15.8672C9.30197 16.0627 9.1665 16.3933 8.89299 16.3933C7.94093 16.3933 7.16832 17.1743 7.16832 18.1367V18.8515H6.09372V18.8517ZM22.107 20.036C22.3636 20.036 22.5715 19.8256 22.5715 19.5664V18.1368C22.5715 17.8776 22.3636 17.6673 22.107 17.6673C20.7144 17.6673 20.0157 15.9619 21.0003 14.9665C21.1817 14.7832 21.1817 14.4858 21.0003 14.3025L20.0003 13.2916C19.8189 13.1082 19.5247 13.1082 19.3433 13.2916C18.3587 14.2869 16.6716 13.5806 16.6716 12.1729C16.6716 11.9135 16.4636 11.7034 16.2071 11.7034H14.7929C14.5364 11.7034 14.3284 11.9135 14.3284 12.1729C14.3284 13.5806 12.6413 14.2869 11.6567 13.2916C11.4753 13.1082 11.1811 13.1082 10.9997 13.2916L9.9996 14.3025C9.81826 14.4858 9.81826 14.7832 9.9996 14.9665C10.9842 15.9619 10.2855 17.6673 8.89299 17.6673C8.63635 17.6673 8.42849 17.8776 8.42849 18.1368V19.5664C8.42849 19.8257 8.63635 20.036 8.89299 20.036C10.2856 20.036 10.9843 21.7414 9.9996 22.7367C9.81826 22.9201 9.81826 23.2175 9.9996 23.4008L10.9997 24.4118C11.1811 24.5951 11.4753 24.5951 11.6567 24.4118C12.6425 23.4152 14.3284 24.121 14.3284 25.5305C14.3284 25.7899 14.5364 26 14.7929 26H16.2071C16.4636 26 16.6716 25.7899 16.6716 25.5305C16.6716 24.1227 18.3587 23.4164 19.3433 24.4118C19.5247 24.5951 19.8189 24.5951 20.0003 24.4118L21.0003 23.4008C21.1817 23.2175 21.1817 22.9201 21.0003 22.7367C20.0158 21.7414 20.7145 20.036 22.107 20.036ZM18.3842 18.8517C18.3842 17.2414 17.0929 15.9361 15.5 15.9361C13.907 15.9361 12.6158 17.2414 12.6158 18.8517C12.6158 20.4618 13.9071 21.7672 15.5 21.7672C17.0929 21.7672 18.3842 20.4618 18.3842 18.8517Z" fill="url(#paint0_linear_1_962)"/>
<defs>
<linearGradient id="paint0_linear_1_962" x1="0" y1="13" x2="31" y2="13" gradientUnits="userSpaceOnUse">
<stop stop-color="#FA582D"/>
<stop offset="1" stop-color="#FFC328"/>
</linearGradient>
</defs>
</svg>
