<svg width="150" height="40" viewBox="0 0 150 40" fill="none" xmlns="http://www.w3.org/2000/svg">
<rect x="1.11301" y="1" width="147" height="38" rx="19" fill="white" fill-opacity="0.05"/>
<rect x="1.11301" y="1" width="147" height="38" rx="19" stroke="url(#paint0_linear_404_556)" stroke-width="2"/>
<rect x="8.11301" y="8" width="24" height="24" rx="12" fill="url(#paint1_linear_404_556)"/>
<path d="M12.613 19.75C12.613 15.8945 15.7302 12.75 19.613 12.75C23.4685 12.75 26.613 15.8945 26.613 19.75C26.613 23.6328 23.4685 26.75 19.613 26.75C15.7302 26.75 12.613 23.6328 12.613 19.75ZM22.7575 18.5469C23.0583 18.2461 23.0583 17.7812 22.7575 17.4805C22.4568 17.1797 21.9919 17.1797 21.6911 17.4805L18.738 20.4336L17.5075 19.2305C17.2068 18.9297 16.7419 18.9297 16.4411 19.2305C16.1404 19.5312 16.1404 19.9961 16.4411 20.2969L18.1911 22.0469C18.4919 22.3477 18.9568 22.3477 19.2575 22.0469L22.7575 18.5469Z" fill="white"/>
<path d="M45.629 25.64C44.9197 25.64 44.2617 25.514 43.655 25.262C43.0577 25.0007 42.535 24.6413 42.087 24.184C41.639 23.7173 41.2937 23.1807 41.051 22.574C40.8083 21.958 40.687 21.3 40.687 20.6C40.687 19.9 40.8083 19.2467 41.051 18.64C41.2937 18.024 41.639 17.4873 42.087 17.03C42.535 16.5727 43.0577 16.2133 43.655 15.952C44.2617 15.6907 44.9197 15.56 45.629 15.56C46.4223 15.56 47.1083 15.6907 47.687 15.952C48.2657 16.2133 48.779 16.568 49.227 17.016L48.135 18.108C47.8457 17.7907 47.491 17.5433 47.071 17.366C46.6603 17.1887 46.1797 17.1 45.629 17.1C45.1437 17.1 44.7003 17.184 44.299 17.352C43.8977 17.52 43.5477 17.7627 43.249 18.08C42.9597 18.388 42.7357 18.7567 42.577 19.186C42.4183 19.6153 42.339 20.0867 42.339 20.6C42.339 21.1133 42.4183 21.5847 42.577 22.014C42.7357 22.4433 42.9597 22.8167 43.249 23.134C43.5477 23.442 43.8977 23.68 44.299 23.848C44.7003 24.016 45.1437 24.1 45.629 24.1C46.2263 24.1 46.7303 24.0113 47.141 23.834C47.561 23.6473 47.9157 23.3953 48.205 23.078L49.297 24.17C48.849 24.6273 48.3217 24.9867 47.715 25.248C47.1083 25.5093 46.413 25.64 45.629 25.64ZM56.2452 25.64C55.5452 25.64 54.8918 25.5093 54.2852 25.248C53.6785 24.9867 53.1465 24.6273 52.6892 24.17C52.2318 23.7033 51.8725 23.1667 51.6112 22.56C51.3592 21.944 51.2332 21.286 51.2332 20.586C51.2332 19.886 51.3592 19.2327 51.6112 18.626C51.8725 18.0193 52.2272 17.4873 52.6752 17.03C53.1325 16.5633 53.6598 16.204 54.2572 15.952C54.8638 15.6907 55.5172 15.56 56.2172 15.56C56.9172 15.56 57.5658 15.6907 58.1632 15.952C58.7698 16.204 59.3018 16.5633 59.7592 17.03C60.2165 17.4873 60.5712 18.024 60.8232 18.64C61.0845 19.2467 61.2152 19.9 61.2152 20.6C61.2152 21.3 61.0845 21.958 60.8232 22.574C60.5712 23.1807 60.2165 23.7127 59.7592 24.17C59.3112 24.6273 58.7838 24.9867 58.1772 25.248C57.5798 25.5093 56.9358 25.64 56.2452 25.64ZM56.2172 24.1C56.8798 24.1 57.4585 23.9507 57.9532 23.652C58.4572 23.3533 58.8492 22.9427 59.1292 22.42C59.4185 21.888 59.5632 21.2767 59.5632 20.586C59.5632 20.0727 59.4792 19.606 59.3112 19.186C59.1525 18.7567 58.9238 18.388 58.6252 18.08C58.3265 17.7627 57.9718 17.52 57.5612 17.352C57.1598 17.184 56.7118 17.1 56.2172 17.1C55.5638 17.1 54.9852 17.2493 54.4812 17.548C53.9865 17.8373 53.5945 18.2433 53.3052 18.766C53.0252 19.2887 52.8852 19.8953 52.8852 20.586C52.8852 21.0993 52.9645 21.5753 53.1232 22.014C53.2912 22.4433 53.5198 22.812 53.8092 23.12C54.1078 23.428 54.4625 23.6707 54.8732 23.848C55.2838 24.016 55.7318 24.1 56.2172 24.1ZM64.2524 25.5V15.7H65.3724L65.8624 17.548V25.5H64.2524ZM71.0424 25.5L65.1764 17.842L65.3724 15.7L71.2384 23.358L71.0424 25.5ZM71.0424 25.5L70.5524 23.778V15.7H72.1624V25.5H71.0424ZM78.1516 25.5V15.98H79.7616V25.5H78.1516ZM74.9596 17.17V15.7H82.9536V17.17H74.9596ZM83.674 25.5L87.706 15.7H88.826L92.83 25.5H91.094L87.958 17.562H88.546L85.382 25.5H83.674ZM85.662 23.61V22.21H90.856V23.61H85.662ZM99.3868 25.64C98.6775 25.64 98.0195 25.514 97.4128 25.262C96.8155 25.0007 96.2928 24.6413 95.8448 24.184C95.3968 23.7173 95.0515 23.1807 94.8088 22.574C94.5662 21.958 94.4448 21.3 94.4448 20.6C94.4448 19.9 94.5662 19.2467 94.8088 18.64C95.0515 18.024 95.3968 17.4873 95.8448 17.03C96.2928 16.5727 96.8155 16.2133 97.4128 15.952C98.0195 15.6907 98.6775 15.56 99.3868 15.56C100.18 15.56 100.866 15.6907 101.445 15.952C102.023 16.2133 102.537 16.568 102.985 17.016L101.893 18.108C101.603 17.7907 101.249 17.5433 100.829 17.366C100.418 17.1887 99.9375 17.1 99.3868 17.1C98.9015 17.1 98.4582 17.184 98.0568 17.352C97.6555 17.52 97.3055 17.7627 97.0068 18.08C96.7175 18.388 96.4935 18.7567 96.3348 19.186C96.1762 19.6153 96.0968 20.0867 96.0968 20.6C96.0968 21.1133 96.1762 21.5847 96.3348 22.014C96.4935 22.4433 96.7175 22.8167 97.0068 23.134C97.3055 23.442 97.6555 23.68 98.0568 23.848C98.4582 24.016 98.9015 24.1 99.3868 24.1C99.9842 24.1 100.488 24.0113 100.899 23.834C101.319 23.6473 101.673 23.3953 101.963 23.078L103.055 24.17C102.607 24.6273 102.079 24.9867 101.473 25.248C100.866 25.5093 100.171 25.64 99.3868 25.64ZM108.15 25.5V15.98H109.76V25.5H108.15ZM104.958 17.17V15.7H112.952V17.17H104.958ZM123.518 25.64C122.781 25.64 122.118 25.472 121.53 25.136C120.942 24.8 120.476 24.3427 120.13 23.764C119.794 23.176 119.626 22.5133 119.626 21.776V15.7H121.236V21.762C121.236 22.238 121.334 22.6533 121.53 23.008C121.736 23.3533 122.011 23.624 122.356 23.82C122.702 24.0067 123.089 24.1 123.518 24.1C123.957 24.1 124.344 24.0067 124.68 23.82C125.016 23.624 125.282 23.3533 125.478 23.008C125.674 22.6533 125.772 22.2427 125.772 21.776V15.7H127.382V21.79C127.382 22.5273 127.214 23.1853 126.878 23.764C126.542 24.3427 126.085 24.8 125.506 25.136C124.928 25.472 124.265 25.64 123.518 25.64ZM133.425 25.64C132.65 25.64 131.992 25.5 131.451 25.22C130.91 24.94 130.424 24.5293 129.995 23.988L131.087 22.896C131.358 23.288 131.68 23.596 132.053 23.82C132.426 24.0347 132.902 24.142 133.481 24.142C134.022 24.142 134.452 24.03 134.769 23.806C135.096 23.582 135.259 23.274 135.259 22.882C135.259 22.5553 135.175 22.2893 135.007 22.084C134.839 21.8787 134.615 21.7107 134.335 21.58C134.064 21.44 133.761 21.3187 133.425 21.216C133.098 21.104 132.767 20.9827 132.431 20.852C132.104 20.712 131.801 20.5393 131.521 20.334C131.25 20.1287 131.031 19.8627 130.863 19.536C130.695 19.2093 130.611 18.794 130.611 18.29C130.611 17.7113 130.751 17.2213 131.031 16.82C131.32 16.4093 131.708 16.0967 132.193 15.882C132.678 15.6673 133.22 15.56 133.817 15.56C134.461 15.56 135.035 15.686 135.539 15.938C136.052 16.19 136.468 16.512 136.785 16.904L135.693 17.996C135.413 17.6787 135.119 17.4453 134.811 17.296C134.512 17.1373 134.167 17.058 133.775 17.058C133.29 17.058 132.907 17.156 132.627 17.352C132.356 17.548 132.221 17.8233 132.221 18.178C132.221 18.4767 132.305 18.7193 132.473 18.906C132.641 19.0833 132.86 19.2373 133.131 19.368C133.411 19.4893 133.714 19.606 134.041 19.718C134.377 19.83 134.708 19.956 135.035 20.096C135.371 20.236 135.674 20.418 135.945 20.642C136.225 20.8567 136.449 21.1367 136.617 21.482C136.785 21.8273 136.869 22.2613 136.869 22.784C136.869 23.6613 136.556 24.3567 135.931 24.87C135.315 25.3833 134.48 25.64 133.425 25.64Z" fill="black"/>
<defs>
<linearGradient id="paint0_linear_404_556" x1="0.113007" y1="20" x2="149.113" y2="20" gradientUnits="userSpaceOnUse">
<stop stop-color="#FA582D"/>
<stop offset="1" stop-color="#FFC328"/>
</linearGradient>
<linearGradient id="paint1_linear_404_556" x1="8.11301" y1="20" x2="32.113" y2="20" gradientUnits="userSpaceOnUse">
<stop stop-color="#FA582D"/>
<stop offset="1" stop-color="#FFC328"/>
</linearGradient>
</defs>
</svg>
