<svg width="28" height="28" viewBox="0 0 28 28" fill="none" xmlns="http://www.w3.org/2000/svg">
<path d="M12.115 9.45C11.497 9.707 10.797 9.638 10.24 9.266L9.821 8.987L8.987 9.821L9.266 10.24C9.637 10.796 9.705 11.497 9.45 12.115C9.195 12.733 8.65 13.179 7.994 13.311L7.5 13.41V14.591L7.994 14.69C8.65 14.821 9.194 15.268 9.45 15.886C9.706 16.504 9.637 17.204 9.266 17.761L8.987 18.18L9.821 19.014L10.24 18.735C10.797 18.364 11.496 18.295 12.115 18.551C12.733 18.806 13.179 19.351 13.311 20.007L13.41 20.5H14.59L14.689 20.005C14.82 19.35 15.267 18.806 15.885 18.55C16.501 18.294 17.203 18.362 17.76 18.734L18.179 19.013L19.013 18.179L18.734 17.76C18.363 17.204 18.295 16.503 18.55 15.885C18.805 15.267 19.35 14.821 20.006 14.689L20.5 14.59V13.41L20.006 13.311C19.35 13.18 18.806 12.733 18.55 12.115C18.294 11.497 18.363 10.797 18.734 10.24L19.013 9.821L18.179 8.987L17.76 9.266C17.204 9.637 16.502 9.706 15.885 9.45C15.267 9.194 14.82 8.65 14.689 7.995L14.59 7.5H13.41L13.311 7.994C13.18 8.65 12.733 9.194 12.115 9.45ZM14 12C15.103 12 16 12.897 16 14C16 15.103 15.103 16 14 16C12.897 16 12 15.103 12 14C12 12.897 12.897 12 14 12Z" fill="url(#paint0_linear_1_974)"/>
<path d="M27 8C27 6.473 26.131 5.105 24.786 4.437C24.08 1.836 21.726 0 19 0H17C15.895 0 15 0.895 15 2V6.5C15.238 6.5 15.443 6.668 15.49 6.902L15.669 7.798C15.735 8.131 15.954 8.396 16.267 8.526C16.581 8.656 16.929 8.618 17.205 8.434L17.965 7.927C18.163 7.795 18.427 7.821 18.596 7.989L20.01 9.403C20.179 9.572 20.205 9.836 20.073 10.034L19.566 10.795C19.378 11.077 19.344 11.419 19.474 11.732C19.604 12.045 19.869 12.264 20.202 12.33L21.098 12.509C21.332 12.556 21.5 12.762 21.5 13V15C21.5 15.238 21.332 15.443 21.098 15.49L20.202 15.669C19.869 15.735 19.604 15.954 19.474 16.267C19.344 16.58 19.378 16.922 19.566 17.204L20.073 17.965C20.205 18.163 20.179 18.427 20.01 18.596L18.596 20.01C18.427 20.179 18.163 20.205 17.965 20.072L17.205 19.565C16.929 19.381 16.579 19.344 16.267 19.473C15.954 19.603 15.736 19.868 15.669 20.201L15.49 21.097C15.443 21.332 15.238 21.5 15 21.5V26C15 27.105 15.895 28 17 28H19C21.726 28 24.08 26.164 24.786 23.563C26.131 22.895 27 21.527 27 20C27 19.364 26.85 18.755 26.579 18.213C27.498 17.008 28 15.54 28 14C28 12.461 27.498 10.992 26.579 9.787C26.85 9.245 27 8.636 27 8Z" fill="url(#paint1_linear_1_974)"/>
<path d="M1 20C1 21.527 1.869 22.895 3.214 23.563C3.92 26.164 6.274 28 9 28H11C12.105 28 13 27.105 13 26V21.5C12.762 21.5 12.557 21.332 12.51 21.098L12.331 20.202C12.265 19.869 12.046 19.604 11.733 19.474C11.419 19.344 11.072 19.382 10.796 19.566L10.035 20.073C9.837 20.205 9.573 20.179 9.404 20.01L7.99 18.596C7.821 18.427 7.795 18.163 7.927 17.965L8.434 17.204C8.622 16.922 8.656 16.58 8.526 16.267C8.396 15.954 8.131 15.735 7.798 15.669L6.902 15.49C6.668 15.443 6.5 15.238 6.5 15V13C6.5 12.762 6.668 12.557 6.902 12.51L7.798 12.331C8.131 12.265 8.396 12.046 8.526 11.733C8.656 11.42 8.622 11.078 8.434 10.796L7.927 10.035C7.795 9.837 7.821 9.573 7.99 9.404L9.404 7.99C9.573 7.821 9.837 7.795 10.035 7.927L10.796 8.434C11.072 8.617 11.419 8.656 11.733 8.526C12.046 8.396 12.265 8.131 12.331 7.798L12.51 6.902C12.557 6.668 12.762 6.5 13 6.5V2C13 0.895 12.105 0 11 0H9C6.274 0 3.92 1.836 3.214 4.437C1.869 5.105 1 6.473 1 8C1 8.636 1.15 9.245 1.421 9.787C0.502 10.992 0 12.461 0 14C0 15.54 0.502 17.008 1.421 18.213C1.15 18.755 1 19.364 1 20Z" fill="url(#paint2_linear_1_974)"/>
<defs>
<linearGradient id="paint0_linear_1_974" x1="0" y1="14" x2="28" y2="14" gradientUnits="userSpaceOnUse">
<stop stop-color="#FA582D"/>
<stop offset="1" stop-color="#FFC328"/>
</linearGradient>
<linearGradient id="paint1_linear_1_974" x1="0" y1="14" x2="28" y2="14" gradientUnits="userSpaceOnUse">
<stop stop-color="#FA582D"/>
<stop offset="1" stop-color="#FFC328"/>
</linearGradient>
<linearGradient id="paint2_linear_1_974" x1="0" y1="14" x2="28" y2="14" gradientUnits="userSpaceOnUse">
<stop stop-color="#FA582D"/>
<stop offset="1" stop-color="#FFC328"/>
</linearGradient>
</defs>
</svg>
