<svg width="17" height="12" viewBox="0 0 17 12" fill="none" xmlns="http://www.w3.org/2000/svg">
<path d="M16.113 1.4812C16.113 0.669323 15.4525 0.00878906 14.6406 0.00878906H1.58545C0.773727 0.00882031 0.113318 0.669042 0.113037 1.48145V10.5192C0.113037 11.3412 0.78029 11.9921 1.58595 11.9921H14.6401C15.4621 11.9921 16.113 11.3249 16.113 10.5192V1.4817C16.113 1.48164 16.113 1.48176 16.113 1.4817C16.113 1.48161 16.113 1.48133 16.113 1.4812ZM1.58545 0.946324H14.6406C14.9356 0.946324 15.1755 1.18629 15.1755 1.48198C15.1755 1.63911 15.0974 1.78495 14.9665 1.8722L8.41007 6.24334C8.22966 6.36363 7.99647 6.36366 7.81604 6.24334C7.81604 6.24334 1.25945 1.87211 1.25957 1.8722C1.2596 1.87223 1.2596 1.87223 1.25957 1.8722C1.12876 1.78505 1.05054 1.63911 1.05054 1.4812C1.05054 1.18626 1.29051 0.946324 1.58545 0.946324ZM14.6401 11.0546H1.58595C1.2941 11.0546 1.05054 10.8186 1.05054 10.5192V2.85961L7.29597 7.02335C7.54416 7.18882 7.8286 7.27154 8.11304 7.27154C8.39751 7.27154 8.68198 7.18882 8.93013 7.02335L15.1755 2.85961V10.5192C15.1755 10.8111 14.9396 11.0546 14.6401 11.0546Z" fill="#535353"/>
</svg>
