<svg width="49" height="37" viewBox="0 0 49 37" fill="none" xmlns="http://www.w3.org/2000/svg">
<path fill-rule="evenodd" clip-rule="evenodd" d="M4.50132 2.188L18.78 16.4729C21.8942 19.5811 26.9849 19.5838 30.1017 16.4729L44.3804 2.188C44.5242 2.0442 44.5033 1.80739 44.3364 1.69106C42.8801 0.67538 41.1081 0.0732422 39.1994 0.0732422H9.68241C7.77359 0.0732422 6.00166 0.675483 4.5453 1.69106C4.37848 1.80739 4.35752 2.0442 4.50132 2.188ZM0.685547 9.07C0.685547 7.56905 1.05769 6.15088 1.7132 4.90438C1.8157 4.70938 2.07553 4.66995 2.23131 4.82572L16.3293 18.9237C20.7936 23.3945 28.0855 23.3971 32.5526 18.9237L46.6505 4.82572C46.8063 4.66995 47.0661 4.70938 47.1686 4.90438C47.824 6.15088 48.1963 7.56915 48.1963 9.07V27.8513C48.1963 32.8159 44.1579 36.8481 39.1994 36.8481H9.68241C4.72409 36.8481 0.685547 32.8159 0.685547 27.8513V9.07Z" fill="url(#paint0_linear_1034_806)"/>
<defs>
<linearGradient id="paint0_linear_1034_806" x1="0.685547" y1="18.4607" x2="48.1963" y2="18.4607" gradientUnits="userSpaceOnUse">
<stop stop-color="#FA582D"/>
<stop offset="1" stop-color="#FFC328"/>
</linearGradient>
</defs>
</svg>
