<svg width="424" height="205" viewBox="0 0 424 205" fill="none" xmlns="http://www.w3.org/2000/svg">
<path d="M291.63 27.2297V78.7182L279.872 82.7646V23.1795L244.599 10.8025V95.1512L232.957 99.1976V6.75224L215.32 0.5L197.684 6.75224V99.1976L185.926 95.1512V10.8025L150.768 23.1795V82.7646L139.01 78.7182V27.2297L127.253 31.2762V87.0545L162.41 99.3155V31.5177L174.168 27.3505V103.487L209.441 115.748V15.0702L215.324 12.9852L221.203 15.0702V115.748L256.361 103.487V27.3505L268.118 31.5177V99.3155L303.392 87.0545V31.2762L291.63 27.2297Z" fill="#EC1E27"/>
<path d="M6.37122 181.647H27.1935V176.007H6.37122V163.746H37.484V157.984H0V201.26H38.5845V195.743H6.37122V181.647Z" fill="white"/>
<path d="M171.253 184.062C171.253 191.786 166.109 196.932 158.51 196.932C151.159 196.932 146.501 191.659 146.501 184.062V158.072H140.255V184.304C140.255 196.072 148.829 202.575 158.509 202.575C172.719 202.575 177.372 192.768 177.372 184.304V158.072H171.249L171.253 184.062Z" fill="white"/>
<path d="M212.279 201.261H218.405V157.985H212.279V201.261Z" fill="white"/>
<path d="M292.499 191.888L261.878 157.927H255.751V201.203H261.878V167.115L292.624 201.203H298.748V157.927H292.501L292.499 191.888Z" fill="white"/>
<path d="M336.422 201.261H342.669V157.985H336.422V201.261Z" fill="white"/>
<path d="M402.933 177.782L420.937 157.917H413.343L399.007 173.492L385.165 157.917H376.958L394.354 177.782L372.672 201.203H380.635L398.397 181.956L415.426 201.203H424L402.933 177.782Z" fill="white"/>
<path d="M102.424 179.618C102.424 185.748 100.341 189.676 96.7895 193.106C93.4822 189.182 93.4822 189.182 93.4822 189.182H86.2557C92.1346 195.925 92.1346 195.925 92.1346 195.925C90.6673 196.661 88.0908 197.151 86.0115 197.274C76.8254 197.274 69.4753 189.796 69.4753 179.622V179.499C69.4753 169.074 76.334 161.847 85.6447 161.721C94.9553 161.721 102.422 169.079 102.422 179.374L102.424 179.618ZM85.7624 156.197C72.8945 156.321 62.9708 166.004 62.9708 179.734V179.856C62.9708 193.344 73.1455 202.91 85.8783 202.784C89.1855 202.784 93.1048 201.926 96.0433 200.455L99.475 204.5H106.702L100.578 197.389C105.602 193.588 108.785 187.215 108.785 179.369V179.246C108.785 165.758 98.6198 156.077 85.7615 156.193" fill="white"/>
<path d="M324.259 74.9017V71.8399H326.466C327.69 71.8399 328.426 72.4522 328.426 73.4331C328.426 74.2897 327.69 74.9017 326.466 74.9017H324.259ZM321.567 80.5414H324.259V77.1114H325.854C328.301 80.5414 328.301 80.5414 328.301 80.5414H331.489C328.669 76.6187 328.669 76.6187 328.669 76.6187C330.141 76.1304 331.121 75.0254 331.121 73.1887C331.121 70.7346 329.281 69.5104 326.71 69.5104H321.566L321.567 80.5414ZM325.854 84.8323C320.587 84.8323 316.544 80.5414 316.544 75.3935V75.2694C316.544 70.1215 320.586 65.8306 325.854 65.8306C331.241 65.8306 335.285 69.9978 335.285 75.2694C335.285 80.4211 331.241 84.8323 325.854 84.8323ZM325.854 85.9361C331.853 85.9361 336.512 81.0327 336.512 75.2694C336.512 69.3853 331.857 64.6026 325.854 64.6026C319.971 64.6026 315.313 69.506 315.313 75.2694V75.3935C315.313 81.1578 319.968 85.9347 325.854 85.9347" fill="#EC1E27"/>
</svg>
