<svg width="72" height="35" viewBox="0 0 72 35" fill="none" xmlns="http://www.w3.org/2000/svg">
<path d="M49.3131 4.82385V13.512L47.3274 14.1948V4.14041L41.37 2.05192V16.2849L39.4038 16.9677V1.36848L36.4252 0.313477L33.4465 1.36848V16.9677L31.4608 16.2849V2.05192L25.523 4.14041V14.1948L23.5372 13.512V4.82385L21.5515 5.50664V14.9187L27.4892 16.9876V5.5474L29.475 4.84423V17.6914L35.4323 19.7603V2.77205L36.4258 2.42022L37.4187 2.77205V19.7603L43.3565 17.6914V4.84423L45.3422 5.5474V16.9876L51.2996 14.9187V5.50664L49.3131 4.82385Z" fill="#535353"/>
<path d="M1.13585 30.8802H4.65252V29.9285H1.13585V27.8596H6.39048V26.8873H0.0598145V34.1896H6.57634V33.2587H1.13585V30.8802Z" fill="#8E8E8E"/>
<path d="M28.9826 31.2878C28.9826 32.5911 28.114 33.4594 26.8305 33.4594C25.589 33.4594 24.8024 32.5697 24.8024 31.2878V26.9021H23.7474V31.3285C23.7474 33.3143 25.1955 34.4115 26.8304 34.4115C29.2303 34.4115 30.0161 32.7567 30.0161 31.3285V26.9021H28.982L28.9826 31.2878Z" fill="#8E8E8E"/>
<path d="M35.9116 34.1898H36.9461V26.8874H35.9116V34.1898Z" fill="#8E8E8E"/>
<path d="M49.4599 32.6083L44.2884 26.8776H43.2536V34.18H44.2884V28.4281L49.4811 34.18H50.5152V26.8776H49.4602L49.4599 32.6083Z" fill="#8E8E8E"/>
<path d="M56.878 34.1898H57.9331V26.8874H56.878V34.1898Z" fill="#8E8E8E"/>
<path d="M68.1111 30.228L71.1517 26.876H69.8691L67.448 29.5041L65.1101 26.876H63.7242L66.662 30.228L63.0003 34.18H64.3452L67.345 30.9323L70.2209 34.18H71.669L68.1111 30.228Z" fill="#8E8E8E"/>
<path d="M17.3582 30.5378C17.3582 31.5722 17.0064 32.235 16.4066 32.8138C15.848 32.1517 15.848 32.1517 15.848 32.1517H14.6275C15.6204 33.2895 15.6204 33.2895 15.6204 33.2895C15.3726 33.4136 14.9374 33.4964 14.5863 33.5171C13.0348 33.5171 11.7935 32.2552 11.7935 30.5384V30.5178C11.7935 28.7586 12.9518 27.5391 14.5243 27.5179C16.0968 27.5179 17.3579 28.7594 17.3579 30.4966L17.3582 30.5378ZM14.5442 26.5858C12.3709 26.6068 10.6949 28.2406 10.6949 30.5574V30.578C10.6949 32.854 12.4133 34.4681 14.5638 34.4469C15.1223 34.4469 15.7843 34.302 16.2805 34.0538L16.8601 34.7364H18.0806L17.0465 33.5365C17.8949 32.8951 18.4324 31.8197 18.4324 30.4959V30.4751C18.4324 28.1991 16.7157 26.5655 14.544 26.5851" fill="#8E8E8E"/>
<path d="M54.8237 12.868V12.3514H55.1966C55.4033 12.3514 55.5276 12.4547 55.5276 12.6202C55.5276 12.7647 55.4033 12.868 55.1966 12.868H54.8237ZM54.3692 13.8197H54.8237V13.2409H55.0932C55.5065 13.8197 55.5065 13.8197 55.5065 13.8197H56.0449C55.5686 13.1577 55.5686 13.1577 55.5686 13.1577C55.8173 13.0753 55.9827 12.8889 55.9827 12.579C55.9827 12.1648 55.672 11.9583 55.2377 11.9583H54.369L54.3692 13.8197ZM55.0932 14.5437C54.2037 14.5437 53.5207 13.8197 53.5207 12.951V12.9301C53.5207 12.0614 54.2035 11.3374 55.0932 11.3374C56.003 11.3374 56.6859 12.0405 56.6859 12.9301C56.6859 13.7994 56.003 14.5437 55.0932 14.5437ZM55.0932 14.73C56.1063 14.73 56.8931 13.9026 56.8931 12.9301C56.8931 11.9372 56.107 11.1301 55.0932 11.1301C54.0997 11.1301 53.3129 11.9575 53.3129 12.9301V12.951C53.3129 13.9237 54.099 14.7297 55.0932 14.7297" fill="#535353"/>
</svg>
