<svg width="130" height="40" viewBox="0 0 130 40" fill="none" xmlns="http://www.w3.org/2000/svg">
<rect x="1.61301" y="1" width="127" height="38" rx="19" fill="white" fill-opacity="0.05"/>
<rect x="1.61301" y="1" width="127" height="38" rx="19" stroke="url(#paint0_linear_529_1605)" stroke-width="2"/>
<rect x="8.61301" y="8" width="24" height="24" rx="12" fill="url(#paint1_linear_529_1605)"/>
<path d="M13.113 19.75C13.113 15.8945 16.2302 12.75 20.113 12.75C23.9685 12.75 27.113 15.8945 27.113 19.75C27.113 23.6328 23.9685 26.75 20.113 26.75C16.2302 26.75 13.113 23.6328 13.113 19.75ZM23.2575 18.5469C23.5583 18.2461 23.5583 17.7812 23.2575 17.4805C22.9568 17.1797 22.4919 17.1797 22.1911 17.4805L19.238 20.4336L18.0075 19.2305C17.7068 18.9297 17.2419 18.9297 16.9411 19.2305C16.6404 19.5312 16.6404 19.9961 16.9411 20.2969L18.6911 22.0469C18.9919 22.3477 19.4568 22.3477 19.7575 22.0469L23.2575 18.5469Z" fill="white"/>
<path d="M41.677 25.5V15.7H43.287V25.5H41.677ZM42.783 21.3V19.83H47.767V21.3H42.783ZM42.783 17.17V15.7H48.005V17.17H42.783ZM51.0067 25.5V15.7H52.6167V25.5H51.0067ZM52.1127 25.5V24.03H57.6007V25.5H52.1127ZM52.1127 21.202V19.788H57.1247V21.202H52.1127ZM52.1127 17.17V15.7H57.5307V17.17H52.1127ZM59.9365 25.5L63.9685 15.7H65.0885L69.0925 25.5H67.3565L64.2205 17.562H64.8085L61.6445 25.5H59.9365ZM61.9245 23.61V22.21H67.1185V23.61H61.9245ZM73.0051 25.5V15.98H74.6151V25.5H73.0051ZM69.8131 17.17V15.7H77.8071V17.17H69.8131ZM84.266 25.64C83.5287 25.64 82.866 25.472 82.278 25.136C81.69 24.8 81.2233 24.3427 80.878 23.764C80.542 23.176 80.374 22.5133 80.374 21.776V15.7H81.984V21.762C81.984 22.238 82.082 22.6533 82.278 23.008C82.4833 23.3533 82.7587 23.624 83.104 23.82C83.4493 24.0067 83.8367 24.1 84.266 24.1C84.7047 24.1 85.092 24.0067 85.428 23.82C85.764 23.624 86.03 23.3533 86.226 23.008C86.422 22.6533 86.52 22.2427 86.52 21.776V15.7H88.13V21.79C88.13 22.5273 87.962 23.1853 87.626 23.764C87.29 24.3427 86.8327 24.8 86.254 25.136C85.6753 25.472 85.0127 25.64 84.266 25.64ZM92.658 21.342V20.012H95.136C95.6307 20.012 96.0133 19.886 96.284 19.634C96.564 19.3727 96.704 19.0133 96.704 18.556C96.704 18.1453 96.5687 17.8 96.298 17.52C96.0273 17.24 95.6447 17.1 95.15 17.1H92.658V15.7H95.22C95.836 15.7 96.3773 15.826 96.844 16.078C97.3107 16.3207 97.67 16.6567 97.922 17.086C98.1833 17.506 98.314 17.9867 98.314 18.528C98.314 19.0973 98.1833 19.592 97.922 20.012C97.67 20.432 97.3107 20.7587 96.844 20.992C96.3773 21.2253 95.836 21.342 95.22 21.342H92.658ZM91.552 25.5V15.7H93.162V25.5H91.552ZM96.928 25.5L93.498 21.244L94.996 20.698L98.958 25.5H96.928ZM101.552 25.5V15.7H103.162V25.5H101.552ZM102.658 25.5V24.03H108.146V25.5H102.658ZM102.658 21.202V19.788H107.67V21.202H102.658ZM102.658 17.17V15.7H108.076V17.17H102.658ZM113.693 25.64C112.919 25.64 112.261 25.5 111.719 25.22C111.178 24.94 110.693 24.5293 110.263 23.988L111.355 22.896C111.626 23.288 111.948 23.596 112.321 23.82C112.695 24.0347 113.171 24.142 113.749 24.142C114.291 24.142 114.72 24.03 115.037 23.806C115.364 23.582 115.527 23.274 115.527 22.882C115.527 22.5553 115.443 22.2893 115.275 22.084C115.107 21.8787 114.883 21.7107 114.603 21.58C114.333 21.44 114.029 21.3187 113.693 21.216C113.367 21.104 113.035 20.9827 112.699 20.852C112.373 20.712 112.069 20.5393 111.789 20.334C111.519 20.1287 111.299 19.8627 111.131 19.536C110.963 19.2093 110.879 18.794 110.879 18.29C110.879 17.7113 111.019 17.2213 111.299 16.82C111.589 16.4093 111.976 16.0967 112.461 15.882C112.947 15.6673 113.488 15.56 114.085 15.56C114.729 15.56 115.303 15.686 115.807 15.938C116.321 16.19 116.736 16.512 117.053 16.904L115.961 17.996C115.681 17.6787 115.387 17.4453 115.079 17.296C114.781 17.1373 114.435 17.058 114.043 17.058C113.558 17.058 113.175 17.156 112.895 17.352C112.625 17.548 112.489 17.8233 112.489 18.178C112.489 18.4767 112.573 18.7193 112.741 18.906C112.909 19.0833 113.129 19.2373 113.399 19.368C113.679 19.4893 113.983 19.606 114.309 19.718C114.645 19.83 114.977 19.956 115.303 20.096C115.639 20.236 115.943 20.418 116.213 20.642C116.493 20.8567 116.717 21.1367 116.885 21.482C117.053 21.8273 117.137 22.2613 117.137 22.784C117.137 23.6613 116.825 24.3567 116.199 24.87C115.583 25.3833 114.748 25.64 113.693 25.64Z" fill="white"/>
<defs>
<linearGradient id="paint0_linear_529_1605" x1="0.613007" y1="20" x2="129.613" y2="20" gradientUnits="userSpaceOnUse">
<stop stop-color="#FA582D"/>
<stop offset="1" stop-color="#FFC328"/>
</linearGradient>
<linearGradient id="paint1_linear_529_1605" x1="8.61301" y1="20" x2="32.613" y2="20" gradientUnits="userSpaceOnUse">
<stop stop-color="#FA582D"/>
<stop offset="1" stop-color="#FFC328"/>
</linearGradient>
</defs>
</svg>
