<svg width="192" height="23" viewBox="0 0 192 23" fill="none" xmlns="http://www.w3.org/2000/svg">
<path d="M123.988 22.5362H118.735V1.1016L135.631 1.11551C135.631 1.11551 138.725 1.00014 140.692 2.94395C140.692 2.94395 142.7 4.62155 142.7 8.72007V22.5318H137.461V8.36288C137.461 8.36288 137.526 6.91774 137.033 6.40984C137.033 6.40984 136.598 5.85885 135.77 5.85885H123.977L123.988 22.5362ZM146.346 22.5325V1.11022H167.432V5.87362L151.576 5.87239V9.51387H162.593V14.1142H151.576V17.768H167.536V22.533L146.346 22.5325ZM109.584 22.5325V1.11022H114.814V22.5327L109.584 22.5325ZM174.953 22.5321V5.87301H170.016V1.10973H189.65V5.87313H180.183V22.5322L174.953 22.5321ZM92.3002 22.5322V5.87313H87.3628V1.1096H106.997V5.87301H97.53V22.5321L92.3002 22.5322ZM76.5233 9.51005C77.8008 9.5002 78.5656 9.51128 78.8735 9.32388C78.8735 9.32388 79.4107 9.02678 79.4168 8.3896L79.4181 6.98903C79.4181 6.34877 78.8748 6.05474 78.8748 6.05474C78.4669 5.83312 77.7758 5.87473 76.1352 5.87313H65.9449V9.51005H76.757H76.5233ZM79.3413 22.5322V15.2218C79.3413 14.5645 78.7919 14.2891 78.7919 14.2891C78.5441 14.1352 77.8023 14.1075 76.7095 14.1075H76.9635H65.9452V22.5323H60.7153V1.10985H77.0419C79.8615 1.11847 81.8086 1.53304 83.149 2.83523C84.4665 4.17731 84.6419 5.93334 84.6481 7.7603V9.28547C84.6651 10.8383 83.8494 12.2543 82.8767 13.0792L83.0722 13.1763C83.4693 13.3687 83.6862 13.6411 83.6862 13.6411C84.4265 14.5861 84.4174 15.3987 84.4158 16.3991V22.5324L79.3413 22.5322ZM0.247559 1.10788V22.5305H5.47737V14.1131H21.3223V9.51128H5.47737V5.87141H23.8986V1.10776L0.247559 1.10788ZM187.852 18.7401V19.7235H188.768C189.016 19.7235 189.256 19.6558 189.293 19.288C189.345 18.8002 188.993 18.7401 188.768 18.7401H187.852ZM187.485 18.4169H188.76C189.204 18.4169 189.631 18.5 189.668 19.145C189.684 19.5143 189.572 19.6482 189.293 19.8591C189.587 20.0469 189.595 20.0914 189.639 20.587C189.669 20.9626 189.616 21.0226 189.775 21.2704H189.339L189.279 20.9102C189.219 20.5716 189.384 20.0467 188.791 20.0467H187.852V21.2704H187.485L187.485 18.4169ZM188.445 17.6289C187.184 17.6289 186.156 18.657 186.164 19.9267C186.164 21.1873 187.184 22.2154 188.453 22.2092C189.715 22.2092 190.743 21.1873 190.743 19.9191C190.743 18.657 189.715 17.6289 188.445 17.6289ZM188.452 22.5078C187.02 22.5078 185.862 21.352 185.862 19.9191C185.856 18.4924 187.02 17.3288 188.452 17.3288C189.879 17.3288 191.043 18.4924 191.043 19.9191C191.043 21.352 189.879 22.5016 188.452 22.5078Z" fill="#8E8E8E"/>
<path d="M53.5324 22.7364C55.2315 22.1593 56.5535 20.2031 56.8722 17.7421V17.0311H48.161V22.7364H53.5324ZM56.8726 6.56888V5.92542C56.5386 3.35822 55.1181 1.33599 53.3066 0.860352H48.1615V6.56888H56.8726ZM26.2088 17.0312V17.7361C26.5243 20.1986 27.8464 22.1594 29.5501 22.7366H34.8938V17.0312H26.2088ZM29.7734 0.86109C27.965 1.33673 26.5398 3.36056 26.2088 5.93083V6.56962H34.894V0.86109H29.7734ZM56.8732 8.94584H48.162V14.6542H56.8732V8.94584ZM37.2667 22.736H45.7887V17.0306H37.2668L37.2667 22.736ZM45.7888 0.860967H37.2668V6.56937H45.7887L45.7888 0.860967ZM26.2086 14.6542H34.8936V8.94584H26.2086V14.6542Z" fill="#535353"/>
</svg>
