<svg width="104" height="35" viewBox="0 0 104 35" fill="none" xmlns="http://www.w3.org/2000/svg">
<path d="M44.2398 18.6235C44.2398 23.5168 40.4117 27.1227 35.7138 27.1227C31.0158 27.1227 27.1878 23.5168 27.1878 18.6235C27.1878 13.6956 31.0158 10.1243 35.7138 10.1243C40.4117 10.1243 44.2398 13.6956 44.2398 18.6235ZM40.5075 18.6235C40.5075 15.5656 38.2888 13.4734 35.7138 13.4734C33.1387 13.4734 30.92 15.5656 30.92 18.6235C30.92 21.6507 33.1387 23.7736 35.7138 23.7736C38.2888 23.7736 40.5075 21.6469 40.5075 18.6235Z" fill="#8E8E8E"/>
<path d="M62.633 18.6235C62.633 23.5168 58.8049 27.1227 54.107 27.1227C49.409 27.1227 45.5809 23.5168 45.5809 18.6235C45.5809 13.6995 49.409 10.1243 54.107 10.1243C58.8049 10.1243 62.633 13.6956 62.633 18.6235ZM58.9007 18.6235C58.9007 15.5656 56.682 13.4734 54.107 13.4734C51.5319 13.4734 49.3132 15.5656 49.3132 18.6235C49.3132 21.6507 51.5319 23.7736 54.107 23.7736C56.682 23.7736 58.9007 21.6469 58.9007 18.6235Z" fill="#8E8E8E"/>
<path d="M80.2598 10.6378V25.8965C80.2598 32.1731 76.5581 34.7367 72.1821 34.7367C68.0628 34.7367 65.5835 31.9815 64.6486 29.7284L67.898 28.3757C68.4766 29.759 69.8944 31.3914 72.1783 31.3914C74.9794 31.3914 76.7152 29.6632 76.7152 26.4099V25.1875H76.585C75.7496 26.2183 74.1402 27.1188 72.1093 27.1188C67.8597 27.1188 63.9665 23.4172 63.9665 18.6541C63.9665 13.8566 67.8597 10.1243 72.1093 10.1243C74.1364 10.1243 75.7458 11.0248 76.585 12.0249H76.7152V10.6416H80.2598V10.6378ZM76.9797 18.6541C76.9797 15.6614 74.9832 13.4734 72.4427 13.4734C69.8676 13.4734 67.7103 15.6614 67.7103 18.6541C67.7103 21.6162 69.8676 23.7736 72.4427 23.7736C74.9832 23.7736 76.9797 21.6162 76.9797 18.6541Z" fill="#8E8E8E"/>
<path d="M86.1034 1.69408V26.6015H82.4631V1.69408H86.1034Z" fill="#8E8E8E"/>
<path d="M100.289 21.4208L103.186 23.3521C102.251 24.7354 99.998 27.1188 96.1047 27.1188C91.2765 27.1188 87.6707 23.3865 87.6707 18.6196C87.6707 13.5654 91.3072 10.1205 95.6871 10.1205C100.098 10.1205 102.255 13.6305 102.96 15.5273L103.347 16.4929L91.9854 21.1985C92.8553 22.9037 94.2079 23.7736 96.1047 23.7736C98.0054 23.7736 99.3235 22.8386 100.289 21.4208ZM91.3723 18.3629L98.9672 15.2092C98.5495 14.1478 97.2926 13.4082 95.8135 13.4082C93.9167 13.4082 91.2765 15.0828 91.3723 18.3629Z" fill="#8E8E8E"/>
<path d="M13.4082 16.4125V12.8066H25.5592C25.678 13.4351 25.7393 14.1785 25.7393 14.9832C25.7393 17.6885 24.9997 21.0338 22.6163 23.4172C20.298 25.8313 17.3359 27.1188 13.412 27.1188C6.13905 27.1188 0.0233154 21.1947 0.0233154 13.9217C0.0233154 6.64875 6.13905 0.724609 13.412 0.724609C17.4355 0.724609 20.3018 2.30336 22.4553 4.3611L19.9109 6.90549C18.3667 5.45702 16.2745 4.33044 13.4082 4.33044C8.09716 4.33044 3.94336 8.61069 3.94336 13.9217C3.94336 19.2328 8.09716 23.513 13.4082 23.513C16.8531 23.513 18.815 22.1297 20.0719 20.8728C21.0912 19.8535 21.7618 18.3974 22.0262 16.4086L13.4082 16.4125Z" fill="#8E8E8E"/>
</svg>
