<svg width="386" height="271" viewBox="0 0 386 271" fill="none" xmlns="http://www.w3.org/2000/svg">
<g opacity="0.6" clip-path="url(#clip0_519_8149)">
<path d="M299.377 175.946L298.705 173.808L318.305 167.625L318.197 167.27L356.501 155.198L356.624 155.577L393.099 144.083L393.778 146.229L375.352 152.034L375.468 152.373L337.156 164.445L336.924 163.72L328.726 166.306L328.842 166.661L299.377 175.946Z" fill="url(#paint0_linear_519_8149)"/>
<path d="M204.983 205.695L204.304 203.55L223.912 197.375L223.796 197.012L262.107 184.94L262.231 185.326L298.705 173.832L299.385 175.97L280.966 181.775L281.074 182.122L242.762 194.194L242.531 193.469L234.333 196.047L234.449 196.41L204.983 205.695Z" fill="url(#paint1_linear_519_8149)"/>
<path d="M110.591 235.436L109.911 233.297L129.519 227.122L129.411 226.76L167.715 214.688L167.838 215.073L204.313 203.573L204.992 205.718L186.566 211.523L186.681 211.87L148.37 223.942L148.138 223.209L139.94 225.795L140.056 226.158L110.591 235.436Z" fill="url(#paint2_linear_519_8149)"/>
<path d="M66.05 67.2132L68.1882 67.8925L62.0204 87.3978L62.3832 87.5135L50.3254 125.621L49.9395 125.497L38.4607 161.791L36.3224 161.112L42.1197 142.787L41.7723 142.679L53.8301 104.564L54.5557 104.796L57.134 96.6448L56.7789 96.529L66.05 67.2132Z" fill="url(#paint3_linear_519_8149)"/>
<path d="M95.7532 -26.694L97.8992 -26.0147L91.7236 -6.50948L92.0865 -6.39368L80.0287 31.7138L79.6504 31.598L68.1639 67.8838L66.0256 67.2045L71.8229 48.8802L71.4755 48.7722L83.5333 10.657L84.2589 10.8886L86.8449 2.73759L86.4821 2.62181L95.7532 -26.694Z" fill="url(#paint4_linear_519_8149)"/>
<mask id="mask0_519_8149" style="mask-type:luminance" maskUnits="userSpaceOnUse" x="1" y="232" width="110" height="39">
<path d="M109.803 232.934L6.03799 265.638L1.42178 270.246L110.706 235.805L109.803 232.934Z" fill="white"/>
</mask>
<g mask="url(#mask0_519_8149)">
<path d="M-102.466 302.579L-103.145 300.433L-58.8898 286.486L-59.0056 286.13L27.4676 258.883L27.5834 259.262L109.919 233.319L110.598 235.457L69.0214 248.563L69.1294 248.911L-17.3438 276.158L-17.5753 275.425L-36.0712 281.26L-35.9631 281.615L-102.466 302.579Z" fill="url(#paint5_linear_519_8149)"/>
</g>
<mask id="mask1_519_8149" style="mask-type:luminance" maskUnits="userSpaceOnUse" x="1" y="161" width="38" height="110">
<path d="M38.8464 161.914L6.03876 265.638L1.42255 270.246L35.9748 161.003L38.8464 161.914Z" fill="white"/>
</mask>
<g mask="url(#mask1_519_8149)">
<path d="M36.346 161.119L38.4843 161.799L24.4889 206.035L24.8517 206.143L-2.49057 292.577L-2.87654 292.454L-28.9065 374.759L-31.0525 374.08L-17.9063 332.522L-18.2459 332.414L9.09633 245.979L9.82195 246.211L15.6733 227.717L15.3105 227.601L36.346 161.119Z" fill="url(#paint6_linear_519_8149)"/>
</g>
<path d="M159.138 7.41602L158.166 6.84484L163.986 -2.95798L163.824 -3.0506L175.195 -22.1931L175.372 -22.0928L186.195 -40.3167L187.16 -39.7455L181.695 -30.5448L181.849 -30.4521L170.478 -11.3097L170.154 -11.5026L167.722 -7.40396L167.884 -7.31134L159.138 7.41602Z" fill="url(#paint7_linear_519_8149)"/>
<path d="M131.116 54.585L130.151 54.0138L135.971 44.211L135.802 44.1183L147.18 24.9758L147.35 25.0762L158.18 6.85222L159.145 7.42342L153.672 16.6242L153.834 16.7168L142.456 35.8593L142.132 35.6663L139.7 39.765L139.862 39.8576L131.116 54.585Z" fill="url(#paint8_linear_519_8149)"/>
<path d="M103.095 101.755L102.13 101.176L107.951 91.3809L107.789 91.2883L119.159 72.1458L119.329 72.2461L130.16 54.0144L131.125 54.5933L125.659 63.7941L125.814 63.8867L114.443 83.0292L114.111 82.8362L111.679 86.9349L111.841 87.0275L103.095 101.755Z" fill="url(#paint9_linear_519_8149)"/>
<path d="M75.073 148.924L74.108 148.345L79.9285 138.55L79.7664 138.457L91.1372 119.315L91.307 119.415L102.137 101.183L103.102 101.762L97.6369 110.963L97.7913 111.056L86.4205 130.198L86.0963 130.005L83.657 134.104L83.8191 134.196L75.073 148.924Z" fill="url(#paint10_linear_519_8149)"/>
<path d="M47.0516 196.093L46.0867 195.514L51.9072 185.719L51.745 185.626L63.1158 166.484L63.2933 166.584L74.1237 148.352L75.0886 148.931L69.6156 158.132L69.7699 158.225L58.3992 177.367L58.075 177.174L55.6356 181.273L55.8055 181.365L47.0516 196.093Z" fill="url(#paint11_linear_519_8149)"/>
<path d="M19.0388 243.254L18.0739 242.683L23.8943 232.888L23.7323 232.787L35.103 213.645L35.2728 213.753L46.1032 195.521L47.0681 196.092L41.6027 205.301L41.7571 205.393L30.3864 224.536L30.0545 224.343L27.6228 228.442L27.785 228.534L19.0388 243.254Z" fill="url(#paint12_linear_519_8149)"/>
<path d="M28.41 252.632L28.9812 253.597L18.6063 259.757L18.7066 259.919L4.10913 268.587L3.59194 268.07L3.07475 267.56L6.44815 261.887L6.61795 261.987L18.0814 242.691L19.0463 243.262L13.2567 253.01L13.4111 253.103L5.87692 265.785L8.38573 264.303L8.57872 264.627L12.917 262.049L12.8167 261.887L28.41 252.632Z" fill="url(#paint13_linear_519_8149)"/>
<path d="M75.5818 224.614L76.1531 225.578L66.3571 231.398L66.4497 231.56L47.3055 242.93L47.2052 242.76L28.9718 253.582L28.4006 252.617L37.6099 247.152L37.5173 246.998L56.6615 235.628L56.8545 235.952L60.9535 233.521L60.8531 233.359L75.5818 224.614Z" fill="url(#paint14_linear_519_8149)"/>
<path d="M122.757 196.595L123.328 197.56L113.532 203.38L113.625 203.542L94.4803 214.912L94.38 214.742L76.1466 225.571L75.5754 224.606L84.7847 219.134L84.6921 218.979L103.836 207.61L104.029 207.934L108.128 205.503L108.028 205.34L122.757 196.595Z" fill="url(#paint15_linear_519_8149)"/>
<path d="M169.93 168.576L170.502 169.54L160.706 175.36L160.798 175.522L141.654 186.9L141.554 186.722L123.32 197.552L122.749 196.587L131.951 191.122L131.858 190.96L151.01 179.59L151.203 179.922L155.294 177.491L155.202 177.329L169.93 168.576Z" fill="url(#paint16_linear_519_8149)"/>
<path d="M217.103 140.565L217.675 141.53L207.871 147.35L207.971 147.512L188.827 158.881L188.727 158.712L170.493 169.533L169.922 168.568L179.124 163.103L179.031 162.949L198.183 151.579L198.376 151.904L202.467 149.472L202.375 149.31L217.103 140.565Z" fill="url(#paint17_linear_519_8149)"/>
<path d="M264.269 112.545L264.848 113.51L255.044 119.329L255.145 119.492L236.001 130.861L235.9 130.691L217.667 141.513L217.096 140.548L226.297 135.083L226.205 134.929L245.349 123.559L245.55 123.884L249.641 121.452L249.548 121.29L264.269 112.545Z" fill="url(#paint18_linear_519_8149)"/>
<path d="M311.442 84.5263L312.021 85.4911L302.218 91.3111L302.318 91.4731L283.174 102.843L283.073 102.673L264.84 113.502L264.269 112.538L273.47 107.065L273.378 106.911L292.522 95.5409L292.723 95.8728L296.814 93.4337L296.721 93.2716L311.442 84.5263Z" fill="url(#paint19_linear_519_8149)"/>
<path d="M358.616 56.5072L359.187 57.4798L349.391 63.2997L349.492 63.4541L330.347 74.8315L330.239 74.654L312.014 85.4834L311.443 84.5186L320.644 79.0537L320.551 78.8916L339.696 67.5219L339.889 67.8538L343.988 65.4224L343.895 65.2526L358.616 56.5072Z" fill="url(#paint20_linear_519_8149)"/>
<path d="M405.79 28.4954L406.361 29.4603L396.565 35.2802L396.666 35.4423L377.521 46.812L377.413 46.6422L359.188 57.4639L358.609 56.499L367.818 51.0342L367.725 50.8798L386.87 39.5101L387.063 39.8343L391.162 37.4029L391.061 37.2408L405.79 28.4954Z" fill="url(#paint21_linear_519_8149)"/>
<path d="M92.5965 85.2666L90.574 84.294L103.604 57.1318L103.265 56.9697L128.731 3.88785L129.094 4.05766L153.341 -46.4847L155.363 -45.5121L143.12 -19.9862L143.444 -19.8318L117.978 33.25L117.291 32.9181L111.841 44.2801L112.188 44.4421L92.5965 85.2666Z" fill="url(#paint22_linear_519_8149)"/>
<path d="M29.8521 216.053L27.8296 215.08L40.86 187.918L40.5204 187.756L65.9868 134.674L66.3496 134.852L90.5964 84.3015L92.6189 85.274L80.3759 110.8L80.7001 110.954L55.2336 164.036L54.5466 163.704L49.0967 175.066L49.4441 175.228L29.8521 216.053Z" fill="url(#paint23_linear_519_8149)"/>
<path d="M55.6121 241.81L56.5847 243.833L34.8236 254.269L34.9934 254.616L0.51067 271.149L8.06799 255.395L8.43082 255.573L27.8529 215.096L29.8754 216.068L20.0717 236.508L20.396 236.662L6.93325 264.735L13.6492 261.509L13.9811 262.196L23.0746 257.835L22.9125 257.495L55.6121 241.81Z" fill="url(#paint24_linear_519_8149)"/>
<path d="M186.411 179.073L187.384 181.095L160.219 194.132L160.381 194.471L107.295 219.928L107.125 219.573L56.5778 243.817L55.6052 241.787L81.1256 229.545L80.9712 229.221L134.058 203.757L134.39 204.444L145.745 198.995L145.583 198.655L186.411 179.073Z" fill="url(#paint25_linear_519_8149)"/>
<path d="M317.217 116.335L318.189 118.358L291.017 131.395L291.179 131.734L238.092 157.198L237.922 156.836L187.376 181.08L186.403 179.05L211.931 166.808L211.769 166.484L264.856 141.02L265.188 141.707L276.551 136.257L276.381 135.918L317.217 116.335Z" fill="url(#paint26_linear_519_8149)"/>
<path d="M345.239 69.8913L346.204 70.4625L340.383 80.2576L340.545 80.3579L329.175 99.5004L329.005 99.4001L318.175 117.624L317.21 117.053L322.675 107.844L322.521 107.752L333.891 88.6093L334.223 88.81L336.655 84.7113L336.493 84.611L345.239 69.8913Z" fill="url(#paint27_linear_519_8149)"/>
<path d="M373.259 22.7224L374.224 23.2935L368.404 33.0963L368.566 33.189L357.195 52.3315L357.017 52.2311L346.195 70.4551L345.23 69.8839L350.695 60.6831L350.541 60.5905L361.912 41.4403L362.236 41.641L364.675 37.5423L364.513 37.4497L373.259 22.7224Z" fill="url(#paint28_linear_519_8149)"/>
<path d="M401.273 -24.4466L402.238 -23.8754L396.418 -14.0726L396.58 -13.98L385.209 5.16254L385.039 5.06219L374.209 23.2861L373.244 22.715L378.717 13.5142L378.555 13.4216L389.933 -5.72862L390.257 -5.52793L392.689 -9.62658L392.527 -9.7192L401.273 -24.4466Z" fill="url(#paint29_linear_519_8149)"/>
<path d="M235.437 36.6695L237.02 35.0794L257.638 55.6885L257.901 55.4261L298.173 95.6947L297.895 95.9803L318.236 116.319L342.614 120.696L342.22 122.903L317.148 118.403L315.287 116.551L315.032 116.806L274.752 76.5368L275.3 75.9965L266.678 67.3747L266.415 67.6448L235.437 36.6695Z" fill="url(#paint30_linear_519_8149)"/>
<path d="M148.824 -69.9258L151.032 -70.3271L155.378 -46.5534L158.396 -43.5354L158.667 -43.7978L198.939 -3.52912L198.661 -3.24353L237.004 35.0955L235.421 36.6855L216.053 17.3269L215.798 17.5817L175.526 -22.687L176.059 -23.2274L167.444 -31.8492L167.173 -31.579L153.294 -45.4573L148.824 -69.9258Z" fill="url(#paint31_linear_519_8149)"/>
<path d="M411.239 55.8273L409.016 56.1592L405.017 29.5064L403.558 28.0552L403.296 28.3254L362.182 -12.7846L362.467 -13.0702L323.322 -52.212L324.912 -53.7943L344.682 -34.0343L344.937 -34.2891L386.043 6.82098L385.502 7.36128L394.302 16.1529L394.573 15.8828L407.124 28.4412L411.239 55.8273Z" fill="url(#paint32_linear_519_8149)"/>
<mask id="mask2_519_8149" style="mask-type:luminance" maskUnits="userSpaceOnUse" x="342" y="120" width="82" height="18">
<path d="M342.69 120.303L420.348 134.235L423.945 137.94L342.158 123.267L342.69 120.303Z" fill="white"/>
</mask>
<g mask="url(#mask2_519_8149)">
<path d="M342.227 122.881L342.62 120.674L375.737 126.617L375.806 126.247L440.518 137.855L440.449 138.257L502.065 149.31L501.664 151.525L470.547 145.937L470.485 146.292L405.773 134.683L405.912 133.927L392.063 131.441L391.994 131.819L342.227 122.881Z" fill="url(#paint33_linear_519_8149)"/>
</g>
</g>
<defs>
<linearGradient id="paint0_linear_519_8149" x1="393.778" y1="160.015" x2="298.705" y2="160.015" gradientUnits="userSpaceOnUse">
<stop stop-color="#FA582D"/>
<stop offset="1" stop-color="#FFC328"/>
</linearGradient>
<linearGradient id="paint1_linear_519_8149" x1="299.385" y1="189.764" x2="204.304" y2="189.764" gradientUnits="userSpaceOnUse">
<stop stop-color="#FA582D"/>
<stop offset="1" stop-color="#FFC328"/>
</linearGradient>
<linearGradient id="paint2_linear_519_8149" x1="204.992" y1="219.504" x2="109.911" y2="219.504" gradientUnits="userSpaceOnUse">
<stop stop-color="#FA582D"/>
<stop offset="1" stop-color="#FFC328"/>
</linearGradient>
<linearGradient id="paint3_linear_519_8149" x1="68.1882" y1="114.502" x2="36.3224" y2="114.502" gradientUnits="userSpaceOnUse">
<stop stop-color="#FA582D"/>
<stop offset="1" stop-color="#FFC328"/>
</linearGradient>
<linearGradient id="paint4_linear_519_8149" x1="97.8992" y1="20.5949" x2="66.0256" y2="20.5949" gradientUnits="userSpaceOnUse">
<stop stop-color="#FA582D"/>
<stop offset="1" stop-color="#FFC328"/>
</linearGradient>
<linearGradient id="paint5_linear_519_8149" x1="110.598" y1="267.949" x2="-103.145" y2="267.949" gradientUnits="userSpaceOnUse">
<stop stop-color="#FA582D"/>
<stop offset="1" stop-color="#FFC328"/>
</linearGradient>
<linearGradient id="paint6_linear_519_8149" x1="38.4843" y1="267.939" x2="-31.0525" y2="267.939" gradientUnits="userSpaceOnUse">
<stop stop-color="#FA582D"/>
<stop offset="1" stop-color="#FFC328"/>
</linearGradient>
<linearGradient id="paint7_linear_519_8149" x1="187.16" y1="-16.4503" x2="158.166" y2="-16.4503" gradientUnits="userSpaceOnUse">
<stop stop-color="#FA582D"/>
<stop offset="1" stop-color="#FFC328"/>
</linearGradient>
<linearGradient id="paint8_linear_519_8149" x1="159.145" y1="30.7186" x2="130.151" y2="30.7186" gradientUnits="userSpaceOnUse">
<stop stop-color="#FA582D"/>
<stop offset="1" stop-color="#FFC328"/>
</linearGradient>
<linearGradient id="paint9_linear_519_8149" x1="131.125" y1="77.8847" x2="102.13" y2="77.8847" gradientUnits="userSpaceOnUse">
<stop stop-color="#FA582D"/>
<stop offset="1" stop-color="#FFC328"/>
</linearGradient>
<linearGradient id="paint10_linear_519_8149" x1="103.102" y1="125.054" x2="74.108" y2="125.054" gradientUnits="userSpaceOnUse">
<stop stop-color="#FA582D"/>
<stop offset="1" stop-color="#FFC328"/>
</linearGradient>
<linearGradient id="paint11_linear_519_8149" x1="75.0886" y1="172.223" x2="46.0867" y2="172.223" gradientUnits="userSpaceOnUse">
<stop stop-color="#FA582D"/>
<stop offset="1" stop-color="#FFC328"/>
</linearGradient>
<linearGradient id="paint12_linear_519_8149" x1="47.0681" y1="219.388" x2="18.0739" y2="219.388" gradientUnits="userSpaceOnUse">
<stop stop-color="#FA582D"/>
<stop offset="1" stop-color="#FFC328"/>
</linearGradient>
<linearGradient id="paint13_linear_519_8149" x1="28.9812" y1="255.639" x2="3.07475" y2="255.639" gradientUnits="userSpaceOnUse">
<stop stop-color="#FA582D"/>
<stop offset="1" stop-color="#FFC328"/>
</linearGradient>
<linearGradient id="paint14_linear_519_8149" x1="76.1531" y1="239.098" x2="28.4006" y2="239.098" gradientUnits="userSpaceOnUse">
<stop stop-color="#FA582D"/>
<stop offset="1" stop-color="#FFC328"/>
</linearGradient>
<linearGradient id="paint15_linear_519_8149" x1="123.328" y1="211.083" x2="75.5754" y2="211.083" gradientUnits="userSpaceOnUse">
<stop stop-color="#FA582D"/>
<stop offset="1" stop-color="#FFC328"/>
</linearGradient>
<linearGradient id="paint16_linear_519_8149" x1="170.502" y1="183.064" x2="122.749" y2="183.064" gradientUnits="userSpaceOnUse">
<stop stop-color="#FA582D"/>
<stop offset="1" stop-color="#FFC328"/>
</linearGradient>
<linearGradient id="paint17_linear_519_8149" x1="217.675" y1="155.049" x2="169.922" y2="155.049" gradientUnits="userSpaceOnUse">
<stop stop-color="#FA582D"/>
<stop offset="1" stop-color="#FFC328"/>
</linearGradient>
<linearGradient id="paint18_linear_519_8149" x1="264.848" y1="127.029" x2="217.096" y2="127.029" gradientUnits="userSpaceOnUse">
<stop stop-color="#FA582D"/>
<stop offset="1" stop-color="#FFC328"/>
</linearGradient>
<linearGradient id="paint19_linear_519_8149" x1="312.021" y1="99.0144" x2="264.269" y2="99.0144" gradientUnits="userSpaceOnUse">
<stop stop-color="#FA582D"/>
<stop offset="1" stop-color="#FFC328"/>
</linearGradient>
<linearGradient id="paint20_linear_519_8149" x1="359.187" y1="70.9953" x2="311.443" y2="70.9953" gradientUnits="userSpaceOnUse">
<stop stop-color="#FA582D"/>
<stop offset="1" stop-color="#FFC328"/>
</linearGradient>
<linearGradient id="paint21_linear_519_8149" x1="406.361" y1="42.9796" x2="358.609" y2="42.9796" gradientUnits="userSpaceOnUse">
<stop stop-color="#FA582D"/>
<stop offset="1" stop-color="#FFC328"/>
</linearGradient>
<linearGradient id="paint22_linear_519_8149" x1="155.363" y1="19.391" x2="90.574" y2="19.391" gradientUnits="userSpaceOnUse">
<stop stop-color="#FA582D"/>
<stop offset="1" stop-color="#FFC328"/>
</linearGradient>
<linearGradient id="paint23_linear_519_8149" x1="92.6189" y1="150.177" x2="27.8296" y2="150.177" gradientUnits="userSpaceOnUse">
<stop stop-color="#FA582D"/>
<stop offset="1" stop-color="#FFC328"/>
</linearGradient>
<linearGradient id="paint24_linear_519_8149" x1="56.5847" y1="243.123" x2="0.51067" y2="243.123" gradientUnits="userSpaceOnUse">
<stop stop-color="#FA582D"/>
<stop offset="1" stop-color="#FFC328"/>
</linearGradient>
<linearGradient id="paint25_linear_519_8149" x1="187.384" y1="211.445" x2="55.6052" y2="211.445" gradientUnits="userSpaceOnUse">
<stop stop-color="#FA582D"/>
<stop offset="1" stop-color="#FFC328"/>
</linearGradient>
<linearGradient id="paint26_linear_519_8149" x1="318.189" y1="148.708" x2="186.403" y2="148.708" gradientUnits="userSpaceOnUse">
<stop stop-color="#FA582D"/>
<stop offset="1" stop-color="#FFC328"/>
</linearGradient>
<linearGradient id="paint27_linear_519_8149" x1="346.204" y1="93.7577" x2="317.21" y2="93.7577" gradientUnits="userSpaceOnUse">
<stop stop-color="#FA582D"/>
<stop offset="1" stop-color="#FFC328"/>
</linearGradient>
<linearGradient id="paint28_linear_519_8149" x1="374.224" y1="46.5887" x2="345.23" y2="46.5887" gradientUnits="userSpaceOnUse">
<stop stop-color="#FA582D"/>
<stop offset="1" stop-color="#FFC328"/>
</linearGradient>
<linearGradient id="paint29_linear_519_8149" x1="402.238" y1="-0.580221" x2="373.244" y2="-0.580221" gradientUnits="userSpaceOnUse">
<stop stop-color="#FA582D"/>
<stop offset="1" stop-color="#FFC328"/>
</linearGradient>
<linearGradient id="paint30_linear_519_8149" x1="342.614" y1="78.9914" x2="235.437" y2="78.9914" gradientUnits="userSpaceOnUse">
<stop stop-color="#FA582D"/>
<stop offset="1" stop-color="#FFC328"/>
</linearGradient>
<linearGradient id="paint31_linear_519_8149" x1="237.004" y1="-16.8208" x2="148.824" y2="-16.8208" gradientUnits="userSpaceOnUse">
<stop stop-color="#FA582D"/>
<stop offset="1" stop-color="#FFC328"/>
</linearGradient>
<linearGradient id="paint32_linear_519_8149" x1="411.239" y1="1.18242" x2="323.322" y2="1.18242" gradientUnits="userSpaceOnUse">
<stop stop-color="#FA582D"/>
<stop offset="1" stop-color="#FFC328"/>
</linearGradient>
<linearGradient id="paint33_linear_519_8149" x1="502.065" y1="136.099" x2="342.227" y2="136.099" gradientUnits="userSpaceOnUse">
<stop stop-color="#FA582D"/>
<stop offset="1" stop-color="#FFC328"/>
</linearGradient>
<clipPath id="clip0_519_8149">
<rect width="559" height="559" fill="white" transform="matrix(-1 0 0 -1 559.613 271)"/>
</clipPath>
</defs>
</svg>
