<svg width="130" height="28" viewBox="0 0 130 28" fill="none" xmlns="http://www.w3.org/2000/svg">
<path d="M32.4967 7.11603H35.2018V12.9346H41.4288V7.11603H44.1849V21.4073H41.4288V15.3845H35.2018V21.4073H32.4967V7.11603Z" fill="#535353"/>
<path d="M45.9202 18.6512C45.9202 16.5075 47.4514 15.7929 49.2888 15.3846L52.4022 14.67V14.4148C52.4022 13.394 51.7387 12.7305 50.6669 12.7305C49.5951 12.7305 48.9316 13.343 48.7274 14.3128L46.3796 14.0575C46.7368 12.118 48.3701 10.842 50.718 10.842C53.3209 10.842 55.0052 12.4753 55.0052 14.8742V19.0595C55.0052 19.3147 55.1073 19.4168 55.2604 19.4168H55.8219V21.5094H54.2396C53.2188 21.5094 52.8105 21.2032 52.8105 20.3865C52.8105 20.1313 52.8616 19.8761 52.9636 19.4678L52.7595 19.3657C52.0449 20.948 50.9221 21.6625 49.3909 21.6625C47.2472 21.5605 45.9202 20.3865 45.9202 18.6512ZM50.0544 19.672C51.3814 19.672 52.3512 18.7022 52.3512 17.12V16.3033L50.1055 16.8137C48.9826 17.0689 48.5232 17.4772 48.5232 18.3449C48.5232 19.2126 49.1357 19.672 50.0544 19.672Z" fill="#535353"/>
<path d="M56.7917 18.6001L59.2926 18.0897C59.5478 19.2126 60.4155 19.723 61.5894 19.723C62.7634 19.723 63.4269 19.2637 63.4269 18.447C63.4269 17.6304 62.6613 17.4772 61.1811 17.222C59.3437 16.9158 56.9448 16.6096 56.9448 14.0065C56.9448 12.067 58.5781 10.7399 61.2832 10.7399C63.6821 10.7399 65.5195 11.7607 65.9278 13.7513L63.4269 14.1596C63.2227 13.1388 62.355 12.6284 61.2832 12.6284C60.0582 12.6284 59.4968 13.1388 59.4968 13.8534C59.4968 14.67 60.3134 14.8232 61.7426 15.0784C63.58 15.3846 65.9789 15.6908 65.9789 18.2939C65.9789 20.3355 64.3456 21.6625 61.5894 21.6625C59.0885 21.6625 57.251 20.6417 56.7917 18.6001Z" fill="#535353"/>
<path d="M70.2157 21.4073H67.5617V6.70771H70.2157V11.3013C70.2157 11.8117 70.1137 12.3221 69.9605 13.0877L70.2157 13.1898C70.8282 11.6586 71.798 10.7909 73.5844 10.7909C75.8302 10.7909 77.0551 12.22 77.0551 14.67V21.4583H74.401V14.721C74.401 13.5471 73.7886 12.8836 72.6146 12.8836C71.2876 12.8836 70.2157 13.9044 70.2157 15.6908V21.4073Z" fill="#535353"/>
<path d="M82.5159 18.7532C82.5159 19.1615 82.6691 19.2636 82.9753 19.2636H84.1492V21.3563H81.7503C80.5254 21.3563 79.9129 20.6927 79.9129 19.4167V13.1388H78.4327V11.0461H82.567V18.7532H82.5159ZM79.5046 8.23891C79.5046 7.32019 80.2191 6.60563 81.1378 6.60563C82.0566 6.60563 82.7711 7.32019 82.7711 8.23891C82.7711 9.15764 82.0566 9.8722 81.1378 9.8722C80.2191 9.8722 79.5046 9.15764 79.5046 8.23891Z" fill="#535353"/>
<path d="M85.0174 14.2617C85.0174 9.97428 87.8246 6.86083 91.9078 6.86083C95.3275 6.86083 97.6754 8.8514 98.3389 11.5055L95.6338 12.169C95.1234 10.2805 93.8984 9.20868 91.9078 9.20868C89.4069 9.20868 87.8246 11.2503 87.8246 14.2106C87.8246 17.171 89.4579 19.2126 92.0099 19.2126C94.0005 19.2126 95.2254 18.1407 95.7358 16.1501L98.2879 16.4564C97.6754 19.6719 95.3275 21.6115 91.9589 21.6115C87.8246 21.6625 85.0174 18.549 85.0174 14.2617Z" fill="#535353"/>
<path d="M99.4102 16.2012C99.4102 13.0367 101.656 10.7909 104.718 10.7909C107.781 10.7909 110.027 13.0367 110.027 16.2012C110.027 19.3657 107.781 21.6625 104.718 21.6625C101.656 21.6625 99.4102 19.3657 99.4102 16.2012ZM107.373 16.2012C107.373 14.2617 106.352 12.9346 104.718 12.9346C103.085 12.9346 102.064 14.2617 102.064 16.2012C102.064 18.1407 103.136 19.4678 104.718 19.4678C106.301 19.4678 107.373 18.1918 107.373 16.2012Z" fill="#535353"/>
<path d="M111.66 11.0461H114.11V11.4544C114.11 12.0159 114.11 12.4753 113.906 13.2919L114.161 13.3429C114.569 11.9648 115.284 11.0461 116.917 11.0461H117.683V13.5981H116.611C115.131 13.5981 114.314 14.5169 114.314 16.1501V21.4073H111.66V11.0461Z" fill="#535353"/>
<path d="M118.959 11.0461H121.562V11.5055C121.562 11.9648 121.511 12.3221 121.358 13.1898L121.613 13.2409C122.226 11.6076 123.451 10.7909 124.982 10.7909C127.534 10.7909 129.524 12.8836 129.524 16.2012C129.524 19.5188 127.534 21.6625 124.982 21.6625C123.451 21.6625 122.328 20.8458 121.664 19.2126L121.46 19.3146C121.562 20.1313 121.613 20.5396 121.613 20.9479V25.5926H118.959V11.0461ZM126.87 16.2012C126.87 14.1596 125.748 12.9346 124.216 12.9346C122.685 12.9346 121.562 14.1596 121.562 16.2012C121.562 18.2428 122.685 19.4678 124.216 19.4678C125.748 19.4678 126.87 18.2428 126.87 16.2012Z" fill="#535353"/>
<path d="M10.9575 0.88916L0.392212 7.014V21.6625L4.32231 23.9594V9.31081L10.9575 5.48279V0.88916Z" fill="#8E8E8E"/>
<path d="M15.1941 0.88916V12.5774H10.9577V8.18792L6.9766 10.4847V25.4395L10.9577 27.7363V16.0992H15.1941V20.4376L19.1242 18.1408V3.18598L15.1941 0.88916Z" fill="#8E8E8E"/>
<path d="M15.1939 27.7363L25.7592 21.6625V7.014L21.7781 4.71719V19.3657L15.1939 23.1937V27.7363Z" fill="#8E8E8E"/>
</svg>
