<svg width="147" height="40" viewBox="0 0 147 40" fill="none" xmlns="http://www.w3.org/2000/svg">
<rect x="1.11301" y="1" width="144" height="38" rx="19" fill="white" fill-opacity="0.05"/>
<rect x="1.11301" y="1" width="144" height="38" rx="19" stroke="url(#paint0_linear_529_326)" stroke-width="2"/>
<rect x="8.11301" y="8" width="24" height="24" rx="12" fill="url(#paint1_linear_529_326)"/>
<path d="M12.613 19.75C12.613 15.8945 15.7302 12.75 19.613 12.75C23.4685 12.75 26.613 15.8945 26.613 19.75C26.613 23.6328 23.4685 26.75 19.613 26.75C15.7302 26.75 12.613 23.6328 12.613 19.75ZM22.7575 18.5469C23.0583 18.2461 23.0583 17.7812 22.7575 17.4805C22.4568 17.1797 21.9919 17.1797 21.6911 17.4805L18.738 20.4336L17.5075 19.2305C17.2068 18.9297 16.7419 18.9297 16.4411 19.2305C16.1404 19.5312 16.1404 19.9961 16.4411 20.2969L18.1911 22.0469C18.4919 22.3477 18.9568 22.3477 19.2575 22.0469L22.7575 18.5469Z" fill="white"/>
<path d="M41.177 25.5V15.7H42.787V25.5H41.177ZM46.3094 25.5V15.7H47.4294L47.9194 17.548V25.5H46.3094ZM53.0994 25.5L47.2334 17.842L47.4294 15.7L53.2954 23.358L53.0994 25.5ZM53.0994 25.5L52.6094 23.778V15.7H54.2194V25.5H53.0994ZM57.7446 25.5V15.7H58.8646L59.3546 17.548V25.5H57.7446ZM64.5346 25.5L58.6686 17.842L58.8646 15.7L64.7306 23.358L64.5346 25.5ZM64.5346 25.5L64.0446 23.778V15.7H65.6546V25.5H64.5346ZM73.6877 25.64C72.9877 25.64 72.3344 25.5093 71.7277 25.248C71.1211 24.9867 70.5891 24.6273 70.1317 24.17C69.6744 23.7033 69.3151 23.1667 69.0537 22.56C68.8017 21.944 68.6757 21.286 68.6757 20.586C68.6757 19.886 68.8017 19.2327 69.0537 18.626C69.3151 18.0193 69.6697 17.4873 70.1177 17.03C70.5751 16.5633 71.1024 16.204 71.6997 15.952C72.3064 15.6907 72.9597 15.56 73.6597 15.56C74.3597 15.56 75.0084 15.6907 75.6057 15.952C76.2124 16.204 76.7444 16.5633 77.2017 17.03C77.6591 17.4873 78.0137 18.024 78.2657 18.64C78.5271 19.2467 78.6577 19.9 78.6577 20.6C78.6577 21.3 78.5271 21.958 78.2657 22.574C78.0137 23.1807 77.6591 23.7127 77.2017 24.17C76.7537 24.6273 76.2264 24.9867 75.6197 25.248C75.0224 25.5093 74.3784 25.64 73.6877 25.64ZM73.6597 24.1C74.3224 24.1 74.9011 23.9507 75.3957 23.652C75.8997 23.3533 76.2917 22.9427 76.5717 22.42C76.8611 21.888 77.0057 21.2767 77.0057 20.586C77.0057 20.0727 76.9217 19.606 76.7537 19.186C76.5951 18.7567 76.3664 18.388 76.0677 18.08C75.7691 17.7627 75.4144 17.52 75.0037 17.352C74.6024 17.184 74.1544 17.1 73.6597 17.1C73.0064 17.1 72.4277 17.2493 71.9237 17.548C71.4291 17.8373 71.0371 18.2433 70.7477 18.766C70.4677 19.2887 70.3277 19.8953 70.3277 20.586C70.3277 21.0993 70.4071 21.5753 70.5657 22.014C70.7337 22.4433 70.9624 22.812 71.2517 23.12C71.5504 23.428 71.9051 23.6707 72.3157 23.848C72.7264 24.016 73.1744 24.1 73.6597 24.1ZM84.4231 25.5L80.4611 15.7H82.2111L85.3051 23.638H84.6891L87.8111 15.7H89.5331L85.5431 25.5H84.4231ZM90.2967 25.5L94.3287 15.7H95.4487L99.4527 25.5H97.7167L94.5807 17.562H95.1687L92.0047 25.5H90.2967ZM92.2847 23.61V22.21H97.4787V23.61H92.2847ZM103.365 25.5V15.98H104.975V25.5H103.365ZM100.173 17.17V15.7H108.167V17.17H100.173ZM110.969 25.5V15.7H112.579V25.5H110.969ZM119.336 25.5L115.374 15.7H117.124L120.218 23.638H119.602L122.724 15.7H124.446L120.456 25.5H119.336ZM127.25 25.5V15.7H128.86V25.5H127.25ZM128.356 25.5V24.03H133.844V25.5H128.356ZM128.356 21.202V19.788H133.368V21.202H128.356ZM128.356 17.17V15.7H133.774V17.17H128.356Z" fill="white"/>
<defs>
<linearGradient id="paint0_linear_529_326" x1="0.113007" y1="20" x2="146.113" y2="20" gradientUnits="userSpaceOnUse">
<stop stop-color="#FA582D"/>
<stop offset="1" stop-color="#FFC328"/>
</linearGradient>
<linearGradient id="paint1_linear_529_326" x1="8.11301" y1="20" x2="32.113" y2="20" gradientUnits="userSpaceOnUse">
<stop stop-color="#FA582D"/>
<stop offset="1" stop-color="#FFC328"/>
</linearGradient>
</defs>
</svg>
