<svg width="42" height="50" viewBox="0 0 42 50" fill="none" xmlns="http://www.w3.org/2000/svg">
<path d="M35.896 5.12244L20.8631 0.137695L5.83013 5.12244C2.43379 6.24903 0.153687 9.40721 0.153687 12.9858V24.904C0.153687 38.5039 14.6627 46.8083 19.1028 49.0263L20.7719 49.863L22.5074 49.1671C26.9785 47.3654 41.5724 40.2932 41.5724 24.902V12.9837C41.5724 9.40514 39.2903 6.24903 35.896 5.12244ZM22.934 24.5458V33.2623H18.7921V24.5458C16.9635 23.7464 15.6857 21.924 15.6857 19.8012C15.6857 16.9413 18.0031 14.6239 20.8631 14.6239C23.723 14.6239 26.0404 16.9413 26.0404 19.8012C26.0404 21.924 24.7626 23.7485 22.934 24.5458Z" fill="url(#paint0_linear_404_544)"/>
<defs>
<linearGradient id="paint0_linear_404_544" x1="0.153687" y1="25.0003" x2="41.5724" y2="25.0003" gradientUnits="userSpaceOnUse">
<stop stop-color="#FA582D"/>
<stop offset="1" stop-color="#FFC328"/>
</linearGradient>
</defs>
</svg>
