<svg width="52" height="48" viewBox="0 0 52 48" fill="none" xmlns="http://www.w3.org/2000/svg">
<path d="M51.6195 19.749V47.3811H0.606503V19.749H51.6195ZM0.606503 15.4979V6.99577C0.606503 3.48862 3.47598 0.619141 6.98313 0.619141H45.2429C48.75 0.619141 51.6195 3.48862 51.6195 6.99577V15.4979H0.606503ZM40.9918 8.05854C40.9918 9.82274 42.4159 11.2469 44.1801 11.2469C45.9443 11.2469 47.3684 9.82274 47.3684 8.05854C47.3684 6.29434 45.9443 4.87022 44.1801 4.87022C42.4159 4.87022 40.9918 6.29434 40.9918 8.05854ZM32.4896 8.05854C32.4896 9.82274 33.9137 11.2469 35.6779 11.2469C37.4421 11.2469 38.8663 9.82274 38.8663 8.05854C38.8663 6.29434 37.4421 4.87022 35.6779 4.87022C33.9137 4.87022 32.4896 6.29434 32.4896 8.05854ZM23.9875 8.05854C23.9875 9.82274 25.4116 11.2469 27.1758 11.2469C28.94 11.2469 30.3641 9.82274 30.3641 8.05854C30.3641 6.29434 28.94 4.87022 27.1758 4.87022C25.4116 4.87022 23.9875 6.29434 23.9875 8.05854Z" fill="url(#paint0_linear_404_526)"/>
<defs>
<linearGradient id="paint0_linear_404_526" x1="0.606503" y1="24.0001" x2="51.6195" y2="24.0001" gradientUnits="userSpaceOnUse">
<stop stop-color="#FA582D"/>
<stop offset="1" stop-color="#FFC328"/>
</linearGradient>
</defs>
</svg>
