<svg width="51" height="51" viewBox="0 0 51 51" fill="none" xmlns="http://www.w3.org/2000/svg">
<path d="M33.6467 19.2869V8.93219C33.6467 5.50686 36.4342 2.71937 39.8596 2.71937H42.5041C43.2207 1.48717 44.5419 0.648438 46.0724 0.648438C48.3608 0.648438 50.2142 2.50193 50.2142 4.79031C50.2142 7.0787 48.3608 8.93219 46.0724 8.93219C44.544 8.93219 43.2228 8.09346 42.5041 6.86125H39.8596C38.7185 6.86125 37.7886 7.78903 37.7886 8.93219V19.2869C37.7886 20.4321 36.8608 21.3578 35.7177 21.3578C34.5745 21.3578 33.6467 20.4321 33.6467 19.2869ZM4.65362 8.93219C6.18198 8.93219 7.50323 8.09346 8.22185 6.86125H10.8664C12.0075 6.86125 12.9374 7.78903 12.9374 8.93219V19.2869C12.9374 20.4321 13.8652 21.3578 15.0083 21.3578C16.1515 21.3578 17.0792 20.4321 17.0792 19.2869V8.93219C17.0792 5.50686 14.2918 2.71937 10.8664 2.71937H8.22185C7.5053 1.48717 6.18405 0.648438 4.65362 0.648438C2.36524 0.648438 0.511749 2.50193 0.511749 4.79031C0.511749 7.0787 2.36524 8.93219 4.65362 8.93219ZM23.2921 8.35854V19.2869C23.2921 20.4321 24.2198 21.3578 25.363 21.3578C26.5062 21.3578 27.4339 20.4321 27.4339 19.2869V8.35854C28.6661 7.64199 29.5049 6.32073 29.5049 4.79031C29.5049 2.50193 27.6514 0.648438 25.363 0.648438C23.0746 0.648438 21.2211 2.50193 21.2211 4.79031C21.2211 6.31866 22.0599 7.63992 23.2921 8.35854ZM41.9305 11.9495V19.2869C41.9305 22.7122 39.143 25.4997 35.7177 25.4997H15.0083C11.583 25.4997 8.7955 22.7122 8.7955 19.2869V11.9495C7.55294 12.6744 6.12606 13.0741 4.65362 13.0741C3.1377 13.0741 1.73567 12.635 0.511749 11.9226V31.7125C0.511749 37.4221 5.15686 42.0672 10.8664 42.0672H23.2921V46.2091H15.0083C13.8652 46.2091 12.9374 47.1348 12.9374 48.28C12.9374 49.4252 13.8652 50.3509 15.0083 50.3509H35.7177C36.8608 50.3509 37.7886 49.4252 37.7886 48.28C37.7886 47.1348 36.8608 46.2091 35.7177 46.2091H27.4339V42.0672H39.8596C45.5691 42.0672 50.2142 37.4221 50.2142 31.7125V11.9226C48.9903 12.635 47.5883 13.0741 46.0724 13.0741C44.5999 13.0741 43.1731 12.6744 41.9305 11.9495Z" fill="url(#paint0_linear_404_532)"/>
<defs>
<linearGradient id="paint0_linear_404_532" x1="0.511749" y1="25.4997" x2="50.2142" y2="25.4997" gradientUnits="userSpaceOnUse">
<stop stop-color="#FA582D"/>
<stop offset="1" stop-color="#FFC328"/>
</linearGradient>
</defs>
</svg>
