<svg width="51" height="50" viewBox="0 0 51 50" fill="none" xmlns="http://www.w3.org/2000/svg">
<path d="M50.4643 45.7089C50.4643 47.9973 48.6108 49.8508 46.3224 49.8508C44.794 49.8508 43.4728 49.012 42.7542 47.7798H40.1096C36.6843 47.7798 33.8968 44.9923 33.8968 41.567V31.2123C33.8968 30.0671 34.8246 29.1414 35.9677 29.1414C37.1109 29.1414 38.0387 30.0671 38.0387 31.2123V41.567C38.0387 42.7102 38.9685 43.6379 40.1096 43.6379H42.7542C43.4707 42.4057 44.792 41.567 46.3224 41.567C48.6108 41.567 50.4643 43.4205 50.4643 45.7089ZM27.684 42.1407V31.2123C27.684 30.0671 26.7562 29.1414 25.613 29.1414C24.4699 29.1414 23.5421 30.0671 23.5421 31.2123V42.1407C22.3099 42.8572 21.4712 44.1785 21.4712 45.7089C21.4712 47.9973 23.3246 49.8508 25.613 49.8508C27.9014 49.8508 29.7549 47.9973 29.7549 45.7089C29.7549 44.1805 28.9162 42.8593 27.684 42.1407ZM15.2583 29.1414C14.1152 29.1414 13.1874 30.0671 13.1874 31.2123V41.567C13.1874 42.7102 12.2576 43.6379 11.1165 43.6379H8.47188C7.75533 42.4057 6.43408 41.567 4.90365 41.567C2.61527 41.567 0.76178 43.4205 0.76178 45.7089C0.76178 47.9973 2.61527 49.8508 4.90365 49.8508C6.43201 49.8508 7.75326 49.012 8.47188 47.7798H11.1165C14.5418 47.7798 17.3293 44.9923 17.3293 41.567V31.2123C17.3293 30.0671 16.4015 29.1414 15.2583 29.1414ZM42.1805 31.2123V35.0291C45.3946 32.8566 47.7058 29.4044 48.2546 25.4468C49.3087 17.8486 44.2473 11.2195 37.2848 9.7657C36.4502 9.59174 35.7192 9.04501 35.3278 8.28705C32.706 3.20497 27.276 -0.189299 21.0839 0.175186C14.6184 0.554168 9.03724 5.29661 7.4302 11.5695C6.90418 13.6197 6.86069 15.5975 7.15683 17.4613C7.32665 18.532 6.91039 19.5799 6.10273 20.3026C3.7605 22.4005 2.42267 25.5877 2.94455 29.0896C3.45607 32.5336 5.86664 35.4515 9.04553 36.7189V31.2123C9.04553 27.787 11.833 24.9995 15.2583 24.9995C17.4204 24.9995 19.3215 26.1116 20.4357 27.7911C21.5498 26.1116 23.451 24.9995 25.613 24.9995C27.7751 24.9995 29.6762 26.1116 30.7904 27.7911C31.9045 26.1116 33.8057 24.9995 35.9677 24.9995C39.393 24.9995 42.1805 27.787 42.1805 31.2123Z" fill="url(#paint0_linear_404_538)"/>
<defs>
<linearGradient id="paint0_linear_404_538" x1="0.76178" y1="24.9996" x2="50.4643" y2="24.9996" gradientUnits="userSpaceOnUse">
<stop stop-color="#FA582D"/>
<stop offset="1" stop-color="#FFC328"/>
</linearGradient>
</defs>
</svg>
