<svg width="37" height="49" viewBox="0 0 37 49" fill="none" xmlns="http://www.w3.org/2000/svg">
<path fill-rule="evenodd" clip-rule="evenodd" d="M18.3117 0.459961C8.19844 0.459961 0 8.6584 0 18.7717C0 20.9741 0.79272 23.5319 1.91593 26.0974C3.05419 28.6975 4.60212 31.4599 6.25976 34.1169C9.5763 39.4328 13.4097 44.4493 15.5078 47.0977C16.947 48.914 19.6764 48.914 21.1156 47.0977C23.2138 44.4493 27.0471 39.4328 30.3638 34.1169C32.0212 31.4599 33.5693 28.6975 34.7075 26.0974C35.8307 23.5319 36.6234 20.9741 36.6234 18.7717C36.6234 8.6584 28.425 0.459961 18.3117 0.459961ZM18.3117 8.83103C13.3996 8.83103 9.41746 12.8131 9.41746 17.7253C9.41746 22.6374 13.3996 26.6196 18.3117 26.6196C23.2239 26.6196 27.206 22.6374 27.206 17.7253C27.206 12.8131 23.2239 8.83103 18.3117 8.83103Z" fill="url(#paint0_linear_1034_798)"/>
<defs>
<linearGradient id="paint0_linear_1034_798" x1="0" y1="24.46" x2="36.6234" y2="24.46" gradientUnits="userSpaceOnUse">
<stop stop-color="#FA582D"/>
<stop offset="1" stop-color="#FFC328"/>
</linearGradient>
</defs>
</svg>
