<svg width="27" height="32" viewBox="0 0 27 32" fill="none" xmlns="http://www.w3.org/2000/svg">
<path fill-rule="evenodd" clip-rule="evenodd" d="M22.2418 17.0763H4.7583C2.6703 17.0763 0.975586 15.3744 0.975586 13.2864C0.975586 12.1352 1.48329 11.0626 2.36282 10.3475C2.19836 9.91129 2.1054 9.4465 2.1054 8.97455C2.1054 7.3871 3.08504 5.99271 4.52948 5.43496C4.52233 5.3277 4.51518 5.22044 4.51518 5.11318C4.51518 2.57468 6.58888 0.500977 9.12738 0.500977C11.3298 0.500977 13.189 2.03123 13.6395 4.13353C14.6048 4.16213 15.4843 4.64838 16.0278 5.42066C16.6571 5.06312 17.3578 4.87005 18.0944 4.87005C20.3897 4.87005 22.2561 6.73638 22.2561 9.03176C22.2561 9.18907 22.2418 9.33924 22.2275 9.49655H22.2418C24.3298 9.49655 26.0245 11.1984 26.0245 13.2864C26.0245 15.3744 24.3298 17.0763 22.2418 17.0763Z" fill="#535353"/>
<path fill-rule="evenodd" clip-rule="evenodd" d="M8.94146 21.2881H4.42937C4.13619 21.2881 3.90022 21.0521 3.90022 20.7589C3.90022 20.4729 4.13619 20.2369 4.42937 20.2369H8.41231V16.5471C8.41231 16.2611 8.64828 16.0251 8.94146 16.0251C9.23464 16.0251 9.47061 16.2611 9.47061 16.5471V20.7589C9.47061 21.0521 9.23464 21.2881 8.94146 21.2881Z" fill="#535353"/>
<path fill-rule="evenodd" clip-rule="evenodd" d="M3.02068 22.6967C1.95523 22.6967 1.08285 21.8315 1.08285 20.7589C1.08285 19.6934 1.95523 18.8282 3.02068 18.8282C4.08614 18.8282 4.95852 19.6934 4.95852 20.7589C4.95852 21.8315 4.08614 22.6967 3.02068 22.6967Z" fill="#535353"/>
<path fill-rule="evenodd" clip-rule="evenodd" d="M22.5707 21.2881H18.0586C17.7654 21.2881 17.5294 21.0521 17.5294 20.7589V16.5471C17.5294 16.2611 17.7654 16.0251 18.0586 16.0251C18.3518 16.0251 18.5878 16.2611 18.5878 16.5471V20.2369H22.5707C22.8567 20.2369 23.0927 20.4729 23.0927 20.7589C23.0927 21.0521 22.8567 21.2881 22.5707 21.2881Z" fill="#535353"/>
<path fill-rule="evenodd" clip-rule="evenodd" d="M23.9794 22.6967C22.9139 22.6967 22.0415 21.8315 22.0415 20.7589C22.0415 19.6934 22.9139 18.8282 23.9794 18.8282C25.0448 18.8282 25.9101 19.6934 25.9101 20.7589C25.9101 21.8315 25.0448 22.6967 23.9794 22.6967Z" fill="#535353"/>
<path fill-rule="evenodd" clip-rule="evenodd" d="M11.2225 26.3507H6.71044C6.41727 26.3507 6.18129 26.1148 6.18129 25.8287C6.18129 25.5356 6.41727 25.2996 6.71044 25.2996H10.6934V16.5471C10.6934 16.2611 10.9294 16.0251 11.2225 16.0251C11.5086 16.0251 11.7445 16.2611 11.7445 16.5471V25.8287C11.7445 26.1148 11.5086 26.3507 11.2225 26.3507Z" fill="#535353"/>
<path fill-rule="evenodd" clip-rule="evenodd" d="M5.30176 27.7594C4.2363 27.7594 3.36392 26.8942 3.36392 25.8287C3.36392 24.7633 4.2363 23.8909 5.30176 23.8909C6.36721 23.8909 7.23245 24.7633 7.23245 25.8287C7.23245 26.8942 6.36721 27.7594 5.30176 27.7594Z" fill="#535353"/>
<path fill-rule="evenodd" clip-rule="evenodd" d="M20.2896 26.3507H15.7775C15.4915 26.3507 15.2555 26.1148 15.2555 25.8287V16.5471C15.2555 16.2611 15.4915 16.0251 15.7775 16.0251C16.0707 16.0251 16.3067 16.2611 16.3067 16.5471V25.2996H20.2896C20.5828 25.2996 20.8188 25.5356 20.8188 25.8287C20.8188 26.1148 20.5828 26.3507 20.2896 26.3507Z" fill="#535353"/>
<path fill-rule="evenodd" clip-rule="evenodd" d="M21.6983 27.7594C20.6329 27.7594 19.7605 26.8942 19.7605 25.8287C19.7605 24.7633 20.6329 23.8909 21.6983 23.8909C22.7638 23.8909 23.6361 24.7633 23.6361 25.8287C23.6361 26.8942 22.7638 27.7594 21.6983 27.7594Z" fill="#535353"/>
<path fill-rule="evenodd" clip-rule="evenodd" d="M13.4965 28.6819C13.2104 28.6819 12.9745 28.4459 12.9745 28.1527V16.5471C12.9745 16.2611 13.2104 16.0251 13.4965 16.0251C13.7896 16.0251 14.0256 16.2611 14.0256 16.5471V28.1527C14.0256 28.4459 13.7896 28.6819 13.4965 28.6819Z" fill="#535353"/>
<path fill-rule="evenodd" clip-rule="evenodd" d="M13.4965 31.4992C12.431 31.4992 11.5658 30.6269 11.5658 29.5614C11.5658 28.496 12.431 27.6236 13.4965 27.6236C14.5691 27.6236 15.4343 28.496 15.4343 29.5614C15.4343 30.6269 14.5691 31.4992 13.4965 31.4992Z" fill="#535353"/>
</svg>
