<svg width="38" height="38" viewBox="0 0 38 38" fill="none" xmlns="http://www.w3.org/2000/svg">
<path d="M37.6944 15.8844V22.1158C37.6944 23.8344 36.2972 25.2316 34.5787 25.2316H33.7304C32.5388 32.2931 26.3962 37.6945 19 37.6945C18.3111 37.6945 17.7537 37.1371 17.7537 36.4482C17.7537 35.7594 18.3111 35.202 19 35.202C25.8717 35.202 31.4629 29.6107 31.4629 22.739V15.2612C31.4629 8.38955 25.8717 2.79826 19 2.79826C12.1283 2.79826 6.53702 8.38955 6.53702 15.2612V23.9853C6.53702 24.6742 5.9796 25.2316 5.29073 25.2316H3.42128C1.70276 25.2316 0.305542 23.8344 0.305542 22.1158V15.8844C0.305542 14.1658 1.70276 12.7686 3.42128 12.7686H4.26959C5.46112 5.70709 11.6038 0.305664 19 0.305664C26.3962 0.305664 32.5388 5.70709 33.7304 12.7686H34.5787C36.2972 12.7686 37.6944 14.1658 37.6944 15.8844ZM19 5.29085C13.5024 5.29085 9.02961 9.76364 9.02961 15.2612V21.4927C9.02961 26.9903 13.5024 31.4631 19 31.4631C24.4976 31.4631 28.9704 26.9903 28.9704 21.4927V15.2612C28.9704 9.76364 24.4976 5.29085 19 5.29085Z" fill="#535353"/>
</svg>
