<svg width="35" height="34" viewBox="0 0 35 34" fill="none" xmlns="http://www.w3.org/2000/svg">
<path d="M29.4053 16.7881H33.6289C34.1831 16.7881 34.6328 16.3391 34.6328 15.7843C34.6328 15.2301 34.1831 14.7804 33.6289 14.7804H29.8042C30.2854 11.7473 30.0618 9.69609 30.0491 9.58566C30.0036 9.1888 29.7272 8.85685 29.3457 8.7404C27.8205 8.27326 26.4914 7.79943 25.3349 7.33497V4.85339H28.7822C29.1965 6.0219 30.3128 6.86115 31.6212 6.86115C33.2816 6.86115 34.6328 5.50993 34.6328 3.84952C34.6328 2.18844 33.2816 0.837891 31.6212 0.837891C30.3128 0.837891 29.1965 1.67713 28.7822 2.84564H24.331C23.7762 2.84564 23.3272 3.29471 23.3272 3.84952V6.4616C19.6061 4.70482 18.3727 3.26392 18.2984 3.17424C17.8973 2.62245 17.103 2.62198 16.7016 3.17424C16.6273 3.26392 15.3939 4.70482 11.6728 6.4616V3.84952C11.6728 3.29471 11.2238 2.84564 10.669 2.84564H6.21778C5.80351 1.67713 4.6872 0.837891 3.37881 0.837891C1.7184 0.837891 0.367188 2.18844 0.367188 3.84952C0.367188 5.50993 1.7184 6.86115 3.37881 6.86115C4.6872 6.86115 5.80351 6.0219 6.21778 4.85339H9.66508V7.33497C8.50862 7.79943 7.17949 8.27326 5.65427 8.7404C5.27279 8.85685 4.99639 9.1888 4.95088 9.58566C4.93817 9.69609 4.71464 11.7473 5.19583 14.7804H1.37106C0.816924 14.7804 0.367188 15.2301 0.367188 15.7843C0.367188 16.3391 0.816924 16.7881 1.37106 16.7881H5.5947C5.81402 17.7015 6.07034 18.5793 6.41186 19.5354H3.65388C3.09974 19.5354 2.65 19.9845 2.65 20.5393C2.65 21.0934 3.09974 21.5432 3.65388 21.5432H7.22165C8.09281 23.4694 9.15297 25.2105 10.408 26.8349H6.21778C5.80351 25.6664 4.6872 24.8272 3.37881 24.8272C1.7184 24.8272 0.367188 26.1784 0.367188 27.8388C0.367188 29.4992 1.7184 30.8504 3.37881 30.8504C4.6872 30.8504 5.80351 30.0112 6.21778 28.8427H12.1199C13.534 30.3505 15.1396 31.7352 16.9258 32.9807C17.2712 33.2216 17.7289 33.2216 18.0742 32.9807C19.8604 31.7352 21.466 30.3505 22.8801 28.8427H28.7822C29.1965 30.0112 30.3128 30.8504 31.6212 30.8504C33.2816 30.8504 34.6328 29.4992 34.6328 27.8388C34.6328 26.1784 33.2816 24.8272 31.6212 24.8272C30.3128 24.8272 29.1965 25.6664 28.7822 26.8349H24.592C25.844 25.2143 26.9052 23.4738 27.7783 21.5432H31.3461C31.9003 21.5432 32.35 21.0934 32.35 20.5393C32.35 19.9845 31.9003 19.5354 31.3461 19.5354H28.5881C28.9293 18.5805 29.1856 17.7026 29.4053 16.7881ZM23.024 21.9307C23.024 22.9399 22.2035 23.7604 21.1943 23.7604H13.8057C12.7965 23.7604 11.976 22.9399 11.976 21.9307V16.1818C11.976 15.3841 12.4887 14.7048 13.2021 14.4545V13.8013C13.2021 11.4315 15.1302 9.50335 17.5 9.50335C19.8698 9.50335 21.7979 11.4315 21.7979 13.8013V14.4545C22.5113 14.7048 23.024 15.3841 23.024 16.1818V21.9307Z" fill="#535353"/>
<path d="M13.9838 16.3598V21.7526H21.0162V16.3598H13.9838ZM18.5039 19.4103C18.5039 19.9651 18.0541 20.4141 17.5 20.4141C16.9459 20.4141 16.4961 19.9651 16.4961 19.4103V18.7022C16.4961 18.1474 16.9459 17.6983 17.5 17.6983C18.0541 17.6983 18.5039 18.1474 18.5039 18.7022V19.4103Z" fill="#535353"/>
<path d="M19.7902 13.8013V14.3521H15.2098V13.8013C15.2098 12.5384 16.2371 11.5111 17.5 11.5111C18.7629 11.5111 19.7902 12.5384 19.7902 13.8013Z" fill="#535353"/>
</svg>
