<svg width="39" height="34" viewBox="0 0 39 34" fill="none" xmlns="http://www.w3.org/2000/svg">
<path d="M30.6272 30.0186L27.0835 26.4749L28.6178 24.9406L30.6272 26.95L35.9205 21.6566C34.6782 20.4507 32.9849 19.7069 31.1209 19.7069C27.6878 19.7069 24.833 22.2288 24.311 25.5173H21.4558C20.9692 23.5628 19.1998 22.1099 17.0967 22.1099C14.9937 22.1099 13.2243 23.5628 12.7376 25.5173H9.83481C9.34817 23.5628 7.57877 22.1099 5.47571 22.1099C2.99877 22.11 0.983521 24.1253 0.983521 26.6023C0.983521 29.0794 2.99877 31.0947 5.47585 31.0947C7.57891 31.0947 9.34824 29.6419 9.83495 27.6873H12.7378C13.2244 29.6418 14.9938 31.0947 17.0969 31.0947C19.1999 31.0947 20.9693 29.6419 21.456 27.6873H24.3112C24.8332 30.9758 27.688 33.4978 31.121 33.4978C34.9232 33.4978 38.0164 30.4044 38.0164 26.6023C38.0164 25.4523 37.7331 24.3674 37.233 23.413L30.6272 30.0186Z" fill="#535353"/>
<path d="M24.7044 16.7292C24.7044 14.0397 23.3015 11.6717 21.1891 10.3186C20.057 11.1965 18.637 11.7198 17.0969 11.7198C15.5567 11.7198 14.1367 11.1965 13.0047 10.3186C10.8923 11.6718 9.48936 14.0397 9.48936 16.7292V19.7529H24.7044V16.7292Z" fill="#535353"/>
<path d="M18.1341 9.42228C20.5634 8.84805 22.0672 6.41324 21.4929 3.98398C20.9187 1.55473 18.4839 0.0509372 16.0546 0.62517C13.6254 1.1994 12.1216 3.63421 12.6958 6.06347C13.27 8.49272 15.7049 9.99651 18.1341 9.42228Z" fill="#535353"/>
</svg>
