<svg width="39" height="36" viewBox="0 0 39 36" fill="none" xmlns="http://www.w3.org/2000/svg">
<path fill-rule="evenodd" clip-rule="evenodd" d="M3.82445 20.8092L7.4111 17.2225H11.2469C11.2113 16.8402 11.3052 16.4482 11.5283 16.1176H7.18238C7.04095 16.1177 6.8996 16.1716 6.79179 16.2795L3.04327 20.028C2.81337 19.9142 2.55443 19.8501 2.28049 19.8501C1.32946 19.8501 0.558548 20.621 0.558548 21.572C0.558548 22.523 1.32946 23.294 2.28049 23.294C3.23151 23.294 4.00242 22.523 4.00242 21.572C4.00234 21.298 3.93834 21.0391 3.82445 20.8092ZM17.7212 22.617L17.7105 12.5013C17.7097 11.4661 18.5566 10.6186 19.5916 10.618C20.6264 10.6174 21.4743 11.4637 21.4749 12.4989L21.4735 27.0938C23.1095 26.5499 23.9669 26.7611 24.5603 27.6678C25.2289 28.6893 24.9746 30.0374 23.9861 30.7545C19.6905 33.8716 19.4801 35.4461 14.2651 35.7447C9.78999 36.0009 6.38858 32.3631 6.37705 28.2146L6.42188 22.5552C6.42101 21.52 7.26785 20.6725 8.30293 20.672C9.33768 20.6713 10.1856 21.5176 10.1849 22.5541C10.1829 21.5201 11.0297 20.6727 12.0648 20.672C13.0996 20.6714 13.9475 21.5176 13.9472 22.5541C13.9454 21.52 14.7925 20.6728 15.8274 20.672C16.862 20.6713 17.7262 21.5819 17.7212 22.617ZM11.112 13.2555C10.7862 13.2555 10.5223 12.9915 10.5223 12.6658V10.8704C10.5223 10.5448 10.7862 10.2807 11.112 10.2807C12.88 10.2807 13.767 8.13881 12.5169 6.88875C12.2866 6.65845 12.2866 6.28499 12.5169 6.05469L13.7866 4.78506C14.0168 4.55477 14.3903 4.55477 14.6206 4.78506C15.8707 6.03512 18.0126 5.14803 18.0126 3.38008C18.0126 3.05429 18.2766 2.79037 18.6023 2.79037H20.3977C20.7233 2.79037 20.9874 3.05429 20.9874 3.38008C20.9874 5.14803 23.1293 6.03512 24.3793 4.78506C24.6096 4.55477 24.983 4.55477 25.2132 4.78506L26.4829 6.05469C26.7132 6.28491 26.7132 6.65845 26.4829 6.88875C25.2328 8.13881 26.1199 10.2807 27.8879 10.2807C28.2136 10.2807 28.4776 10.5448 28.4776 10.8704V12.6658C28.4776 12.9915 28.2136 13.2555 27.8879 13.2555C26.1199 13.2555 25.2328 15.3974 26.4829 16.6474C26.7132 16.8777 26.7132 17.2512 26.4829 17.4814L25.2132 18.7511C24.983 18.9814 24.6096 18.9814 24.3793 18.7511C23.8601 18.2319 23.188 18.0809 22.5792 18.2079L22.5795 14.8924C23.3866 14.0968 23.8871 12.9909 23.8871 11.7681C23.8871 9.34506 21.9229 7.38083 19.4999 7.38083C17.0768 7.38083 15.1126 9.34506 15.1126 11.7681C15.1126 13.0833 15.6915 14.2632 16.6082 15.0673L16.6116 18.2592C15.9555 18.0541 15.1941 18.1775 14.6205 18.7511C14.3902 18.9814 14.0167 18.9814 13.7865 18.7511L12.5168 17.4814C12.2866 17.2512 12.2866 16.8777 12.5168 16.6474C13.767 15.3973 12.88 13.2555 11.112 13.2555ZM34.9975 1.96412C34.9975 2.23807 35.0615 2.49701 35.1753 2.72699L31.5887 6.31364H27.7529C27.7885 6.69594 27.6946 7.08795 27.4715 7.41856H31.8175C31.9588 7.41848 32.1003 7.36457 32.2081 7.25669L35.9566 3.50825C36.1865 3.62206 36.4455 3.68614 36.7195 3.68614C37.6705 3.68614 38.4414 2.91514 38.4414 1.96412C38.4414 1.01318 37.6705 0.242188 36.7195 0.242188C35.7684 0.242188 34.9975 1.01318 34.9975 1.96412ZM32.4934 11.2156C32.7236 10.5356 33.3671 10.0461 34.1248 10.0461C35.0758 10.0461 35.8467 10.8171 35.8467 11.7681C35.8467 12.7191 35.0758 13.49 34.1248 13.49C33.3671 13.49 32.7236 13.0005 32.4934 12.3205H29.5826V11.2156H32.4934ZM34.9975 21.5719C34.9975 22.523 35.7684 23.2939 36.7195 23.2939C37.6705 23.2939 38.4414 22.523 38.4414 21.5719C38.4414 20.6209 37.6705 19.85 36.7195 19.85C36.4455 19.85 36.1866 19.9141 35.9567 20.0279L32.2082 16.2794C32.1003 16.1715 31.9589 16.1176 31.8176 16.1176L27.4717 16.1175C27.6948 16.4481 27.7886 16.8401 27.7531 17.2224H31.5889L35.1755 20.8091C35.0615 21.0391 34.9975 21.298 34.9975 21.5719ZM4.00242 1.96412C4.00242 1.01311 3.23143 0.242188 2.28049 0.242188C1.32946 0.242188 0.558468 1.01318 0.558468 1.96412C0.558468 2.91514 1.32946 3.68614 2.28049 3.68614C2.55443 3.68614 2.81337 3.62206 3.04327 3.50825L6.79179 7.25677C6.89968 7.36465 7.04103 7.41856 7.18238 7.41856L11.5283 7.41864C11.3052 7.08803 11.2114 6.69602 11.2469 6.31372H7.4111L3.82453 2.72707C3.93834 2.49709 4.00242 2.23807 4.00242 1.96412ZM6.50648 11.2156C6.27627 10.5356 5.63281 10.0461 4.87507 10.0461C3.92405 10.0461 3.15313 10.8171 3.15313 11.7681C3.15313 12.7191 3.92405 13.49 4.87507 13.49C5.63281 13.49 6.27627 13.0005 6.50648 12.3205H9.41739V11.2156H6.50648Z" fill="url(#paint0_linear_519_6206)"/>
<defs>
<linearGradient id="paint0_linear_519_6206" x1="38.4414" y1="17.9998" x2="0.558468" y2="17.9998" gradientUnits="userSpaceOnUse">
<stop stop-color="#FA582D"/>
<stop offset="1" stop-color="#FFC328"/>
</linearGradient>
</defs>
</svg>
