<svg width="30" height="34" viewBox="0 0 30 34" fill="none" xmlns="http://www.w3.org/2000/svg">
<path d="M28.0806 12.0178V11.2639C29.0427 11.0389 29.7685 10.1781 29.7685 9.1485C29.7685 7.95577 28.7895 6.97683 27.5912 6.97683C26.3984 6.97683 25.4195 7.95577 25.4195 9.1485C25.4195 10.1387 26.0834 10.9657 26.9892 11.2245V12.0178C26.9892 12.5579 26.5447 13.0024 26.0046 13.0024H19.9284V14.0938H26.0046C27.1467 14.0938 28.0806 13.1599 28.0806 12.0178Z" fill="#535353"/>
<path d="M23.9342 6.9262V6.1723C24.8963 5.94725 25.622 5.08646 25.622 4.05689C25.622 2.86415 24.6431 1.89084 23.4447 1.89084C22.252 1.89084 21.2731 2.86415 21.2731 4.05689C21.2731 5.04708 21.9369 5.87411 22.8427 6.13292V6.9262C22.8427 7.4663 22.3983 7.91076 21.8582 7.91076H19.9284V9.00222H21.8582C23.0003 9.00222 23.9342 8.06829 23.9342 6.9262Z" fill="#535353"/>
<path d="M28.0806 25.6892V24.9353C28.0806 23.7932 27.1467 22.8649 26.0102 22.8649H19.934V23.9564H26.0102C26.5503 23.9564 26.9948 24.4008 26.9948 24.941V25.7342C26.089 25.9987 25.4251 26.8257 25.4251 27.8103C25.4251 29.003 26.4041 29.9819 27.5968 29.9819C28.7951 29.9819 29.7741 29.003 29.7741 27.8103C29.7628 26.7751 29.0371 25.9143 28.0806 25.6892Z" fill="#535353"/>
<path d="M23.0171 29.3237V28.5698C23.0171 27.4221 22.0888 26.4994 20.9467 26.4994H19.934V27.5908H20.9467C21.4868 27.5908 21.9313 28.0297 21.9313 28.5754V29.3631C21.0311 29.6331 20.3673 30.4545 20.3673 31.4447C20.3673 32.6374 21.3406 33.6108 22.5333 33.6108C23.7317 33.6108 24.7106 32.6374 24.7106 31.4447C24.6993 30.4095 23.9792 29.5487 23.0171 29.3237Z" fill="#535353"/>
<path d="M27.5293 20.6482C28.7276 20.6482 29.7066 19.6693 29.7066 18.4709C29.7066 17.2782 28.7276 16.3049 27.5293 16.3049C26.5278 16.3049 25.6783 16.9969 25.442 17.9308H19.934V19.0223H25.442C25.6839 19.9562 26.5222 20.6482 27.5293 20.6482Z" fill="#535353"/>
<path d="M14.0829 0.388672C11.4836 0.388672 9.37386 2.49846 9.37386 5.14272C9.37386 5.41278 9.41887 5.68283 9.46388 5.94725C8.96878 5.76722 8.4343 5.6772 7.84919 5.6772C5.24993 5.6772 3.14015 7.78699 3.14015 10.4313C3.14015 10.7126 3.16828 10.9826 3.21891 11.2527C3.22454 11.2583 3.23579 11.2639 3.24142 11.2695C4.04032 12.1135 5.12616 12.5748 6.29639 12.5748C6.6002 12.5748 6.84212 12.8167 6.84212 13.1205C6.84212 13.4243 6.6002 13.6663 6.29639 13.6663C5.08115 13.6663 3.93905 13.2612 3.00512 12.5242C1.3623 13.2556 0.22583 14.8984 0.22583 16.8056C0.22583 19.0054 1.7505 20.8845 3.81528 21.3796C3.36519 22.0998 3.14015 22.9043 3.14015 23.7989C3.14015 26.3531 5.24993 28.5079 7.84919 28.5079C8.08548 28.5079 8.32178 28.4854 8.55808 28.4516C9.10381 26.7976 10.4259 25.5261 12.1081 25.0591C11.4386 24.4177 10.9435 23.5963 10.6904 22.6736C10.2009 23.0787 9.60453 23.3713 8.9294 23.5007C8.89564 23.5063 8.86189 23.5119 8.82813 23.5119C8.56933 23.5119 8.34429 23.3319 8.29365 23.0675C8.23739 22.7693 8.42868 22.488 8.72686 22.4261C9.49764 22.2798 10.1278 21.8297 10.5328 21.2277C10.5553 21.1433 10.5947 21.0702 10.6566 21.0083C10.9548 20.4682 11.0842 19.8268 10.9717 19.1573C10.921 18.8591 11.1236 18.5778 11.4218 18.5272C11.7199 18.4766 12.0012 18.6791 12.0519 18.9773C12.2094 19.9112 12.035 20.8114 11.613 21.5709C11.765 23.7482 13.5653 25.4248 15.7932 25.4248C16.097 25.4248 16.339 25.6667 16.339 25.9705C16.339 26.2743 16.097 26.5163 15.7932 26.5163C14.9268 26.5163 14.111 26.3137 13.3909 25.9536C11.4105 26.0212 9.81832 27.4446 9.45825 29.3349C9.85208 31.5404 11.7706 33.2169 14.0885 33.2169C16.6878 33.2169 18.8426 31.1072 18.8426 28.5079V16.4906C18.7076 16.5018 18.5725 16.5187 18.4431 16.5187C17.723 16.5187 17.0141 16.3274 16.3727 15.9617C15.6188 15.5229 15.0337 14.8702 14.6793 14.0826C14.0491 14.4483 13.3403 14.6396 12.5976 14.6396C12.5245 14.6396 12.4513 14.6396 12.3782 14.6339C12.0744 14.6171 11.8437 14.3639 11.8606 14.0601C11.8775 13.7563 12.1363 13.5312 12.4345 13.5425C13.2502 13.5819 14.0379 13.3062 14.6455 12.7661C15.2588 12.2204 15.6188 11.4608 15.6582 10.6338C15.6751 10.33 15.9395 10.0993 16.2321 10.1162C16.5303 10.1331 16.7666 10.3862 16.7497 10.6901C16.699 11.714 16.2827 12.6536 15.5851 13.3737C15.827 14.0657 16.2883 14.6452 16.9241 15.0109C17.5092 15.3485 18.1787 15.4722 18.8482 15.3822V5.14272C18.837 2.49283 16.6822 0.388672 14.0829 0.388672Z" fill="#535353"/>
</svg>
