<svg width="32" height="32" viewBox="0 0 32 32" fill="none" xmlns="http://www.w3.org/2000/svg">
<path d="M32 13.3333V18.6667C32 20.1375 30.8042 21.3333 29.3333 21.3333H28.6073C27.5875 27.3771 22.3302 32 16 32C15.4104 32 14.9333 31.5229 14.9333 30.9333C14.9333 30.3438 15.4104 29.8667 16 29.8667C21.8813 29.8667 26.6667 25.0813 26.6667 19.2V12.8C26.6667 6.91875 21.8813 2.13333 16 2.13333C10.1188 2.13333 5.33333 6.91875 5.33333 12.8V20.2667C5.33333 20.8563 4.85625 21.3333 4.26667 21.3333H2.66667C1.19583 21.3333 0 20.1375 0 18.6667V13.3333C0 11.8625 1.19583 10.6667 2.66667 10.6667H3.39271C4.4125 4.62292 9.66979 0 16 0C22.3302 0 27.5875 4.62292 28.6073 10.6667H29.3333C30.8042 10.6667 32 11.8625 32 13.3333ZM16 4.26667C11.2948 4.26667 7.46667 8.09479 7.46667 12.8V18.1333C7.46667 22.8385 11.2948 26.6667 16 26.6667C20.7052 26.6667 24.5333 22.8385 24.5333 18.1333V12.8C24.5333 8.09479 20.7052 4.26667 16 4.26667Z" fill="url(#paint0_linear_0_136)"/>
<defs>
<linearGradient id="paint0_linear_0_136" x1="0" y1="16" x2="32" y2="16" gradientUnits="userSpaceOnUse">
<stop stop-color="#FA582D"/>
<stop offset="1" stop-color="#FFC328"/>
</linearGradient>
</defs>
</svg>
