<svg width="130" height="28" viewBox="0 0 130 28" fill="none" xmlns="http://www.w3.org/2000/svg">
<path d="M53.9605 5.80507V22.2535H51.1049V9.34605H51.0668L45.9648 22.2535H44.061L38.8447 9.34605H38.8067V22.2535H36.1795V5.80507H40.2916L45.0129 17.9891H45.089L50.0769 5.80507H53.9605ZM56.3212 7.06155C56.3212 6.60465 56.4735 6.2239 56.8161 5.9193C57.1588 5.6147 57.5396 5.4624 57.9965 5.4624C58.4914 5.4624 58.9103 5.6147 59.2149 5.9193C59.5195 6.2239 59.7099 6.60465 59.7099 7.06155C59.7099 7.51845 59.5575 7.8992 59.2149 8.2038C58.8722 8.5084 58.4914 8.6607 57.9965 8.6607C57.5015 8.6607 57.1207 8.5084 56.8161 8.2038C56.5115 7.86112 56.3212 7.48037 56.3212 7.06155ZM59.4052 10.4502V22.2535H56.6258V10.4502H59.4052ZM67.8198 20.2355C68.2387 20.2355 68.6956 20.1594 69.1905 19.9309C69.6855 19.7405 70.1424 19.474 70.5612 19.1694V21.7585C70.1043 22.025 69.6094 22.2154 69.0382 22.3296C68.4671 22.4439 67.8579 22.52 67.1726 22.52C65.4211 22.52 64.0123 21.987 62.9462 20.8828C61.842 19.7786 61.309 18.3698 61.309 16.6945C61.309 14.7908 61.8801 13.2297 62.9843 12.0113C64.0885 10.7929 65.6496 10.1837 67.7056 10.1837C68.2387 10.1837 68.7717 10.2598 69.2667 10.3741C69.7997 10.4883 70.2186 10.6787 70.5232 10.831V13.4962C70.1043 13.1916 69.6474 12.9251 69.2286 12.7728C68.7717 12.6205 68.3148 12.5063 67.8579 12.5063C66.7537 12.5063 65.878 12.849 65.1926 13.5724C64.5073 14.2958 64.2027 15.2477 64.2027 16.4661C64.2027 17.6464 64.5454 18.5983 65.1926 19.2456C65.8399 19.8928 66.7157 20.2355 67.8198 20.2355ZM78.4428 10.2598C78.6712 10.2598 78.8616 10.2598 79.052 10.2979C79.2423 10.336 79.3946 10.3741 79.5089 10.4121V13.2297C79.3566 13.1155 79.1662 13.0013 78.8616 12.9251C78.557 12.849 78.2524 12.7728 77.8336 12.7728C77.1482 12.7728 76.5771 13.0774 76.1202 13.6485C75.6633 14.2197 75.3968 15.0954 75.3968 16.3138V22.2535H72.6173V10.4502H75.3968V12.3159H75.4348C75.7014 11.6686 76.0821 11.1737 76.5771 10.7929C77.1101 10.4502 77.7193 10.2598 78.4428 10.2598ZM79.6612 16.5422C79.6612 14.6004 80.2323 13.0393 81.2984 11.8971C82.4026 10.7548 83.9256 10.1837 85.8674 10.1837C87.695 10.1837 89.1418 10.7168 90.1699 11.8209C91.1979 12.9251 91.7309 14.41 91.7309 16.2757C91.7309 18.1795 91.1598 19.7025 90.0937 20.8447C88.9895 21.987 87.5046 22.5581 85.6009 22.5581C83.7733 22.5581 82.3264 22.025 81.2603 20.9589C80.1942 19.8548 79.6612 18.3698 79.6612 16.5422ZM82.5549 16.428C82.5549 17.6464 82.8214 18.5983 83.3925 19.2456C83.9636 19.8928 84.7632 20.2355 85.7912 20.2355C86.7812 20.2355 87.5808 19.9309 88.1138 19.2456C88.6469 18.5983 88.9134 17.6464 88.9134 16.3519C88.9134 15.0954 88.6469 14.1435 88.1138 13.4582C87.5808 12.8109 86.7812 12.4682 85.8293 12.4682C84.8013 12.4682 84.0398 12.8109 83.4687 13.4962C82.8214 14.2197 82.5549 15.1715 82.5549 16.428ZM95.8811 13.5724C95.8811 13.9531 95.9954 14.2958 96.2619 14.5243C96.5284 14.7527 97.0614 15.0192 97.9372 15.3619C99.0414 15.8188 99.8409 16.3138 100.26 16.8468C100.717 17.418 100.945 18.0652 100.945 18.8648C100.945 19.969 100.526 20.8447 99.6506 21.5301C98.8129 22.2154 97.6326 22.52 96.1857 22.52C95.6908 22.52 95.1577 22.4439 94.5485 22.3296C93.9393 22.2154 93.4443 22.0631 93.0255 21.8727V19.1313C93.5205 19.474 94.0916 19.7786 94.6627 19.969C95.2339 20.1594 95.7669 20.2736 96.2619 20.2736C96.8711 20.2736 97.3661 20.1974 97.6326 20.0071C97.9372 19.8167 98.0895 19.5502 98.0895 19.1313C98.0895 18.7506 97.9372 18.446 97.6326 18.1414C97.328 17.8749 96.7188 17.5703 95.8811 17.2276C94.8531 16.8088 94.1297 16.3138 93.7109 15.7807C93.292 15.2477 93.0636 14.5623 93.0636 13.7247C93.0636 12.6586 93.4824 11.7829 94.32 11.0975C95.1577 10.4121 96.2619 10.0695 97.5945 10.0695C98.0133 10.0695 98.4702 10.1075 98.9652 10.2218C99.4602 10.336 99.9171 10.4502 100.26 10.5645V13.2678C99.879 13.0393 99.4602 12.8109 98.9652 12.6205C98.4702 12.4301 97.9753 12.354 97.5183 12.354C96.9853 12.354 96.5665 12.4682 96.3 12.6586C96.0334 12.9251 95.8811 13.1916 95.8811 13.5724ZM102.125 16.5422C102.125 14.6004 102.697 13.0393 103.763 11.8971C104.867 10.7548 106.39 10.1837 108.332 10.1837C110.159 10.1837 111.606 10.7168 112.634 11.8209C113.662 12.9251 114.195 14.41 114.195 16.2757C114.195 18.1795 113.624 19.7025 112.558 20.8447C111.454 21.987 109.969 22.5581 108.065 22.5581C106.238 22.5581 104.791 22.025 103.725 20.9589C102.697 19.8548 102.125 18.3698 102.125 16.5422ZM105.019 16.428C105.019 17.6464 105.286 18.5983 105.857 19.2456C106.428 19.8928 107.227 20.2355 108.256 20.2355C109.245 20.2355 110.045 19.9309 110.578 19.2456C111.111 18.5983 111.378 17.6464 111.378 16.3519C111.378 15.0954 111.111 14.1435 110.578 13.4582C110.045 12.8109 109.245 12.4682 108.294 12.4682C107.266 12.4682 106.504 12.8109 105.933 13.4962C105.324 14.2197 105.019 15.1715 105.019 16.428ZM123.447 12.7347H119.297V22.2535H116.48V12.7347H114.5V10.4502H116.48V8.813C116.48 7.5946 116.899 6.56657 117.698 5.767C118.498 4.96742 119.526 4.58667 120.782 4.58667C121.125 4.58667 121.429 4.62474 121.696 4.62474C121.963 4.62474 122.191 4.70089 122.381 4.77704V7.17577C122.305 7.1377 122.115 7.06155 121.886 6.9854C121.658 6.90925 121.391 6.87117 121.087 6.87117C120.516 6.87117 120.059 7.06155 119.754 7.40422C119.45 7.7469 119.297 8.31802 119.297 9.00337V10.4121H123.447V7.7469L126.227 6.90925V10.4121H129.044V12.6967H126.227V18.2175C126.227 18.941 126.379 19.4359 126.608 19.7405C126.874 20.0451 127.293 20.1974 127.864 20.1974C128.016 20.1974 128.207 20.1594 128.435 20.0832C128.664 20.0071 128.854 19.9309 129.006 19.8167V22.1012C128.816 22.2154 128.549 22.2916 128.131 22.3677C127.712 22.4439 127.331 22.4819 126.912 22.4819C125.732 22.4819 124.856 22.1773 124.285 21.5681C123.714 20.9589 123.409 20.0071 123.409 18.7506L123.447 12.7347Z" fill="#8E8E8E"/>
<path d="M13.5248 0.322266H0.503174V13.3439H13.5248V0.322266Z" fill="#535353"/>
<path d="M27.9172 0.322266H14.8955V13.3439H27.9172V0.322266Z" fill="#535353"/>
<path d="M13.5248 14.7146H0.503174V27.7363H13.5248V14.7146Z" fill="#535353"/>
<path d="M27.9172 14.7146H14.8955V27.7363H27.9172V14.7146Z" fill="#535353"/>
</svg>
