<svg width="103" height="28" viewBox="0 0 103 28" fill="none" xmlns="http://www.w3.org/2000/svg">
<path d="M32.6075 13.3743C32.6075 17.8968 35.547 21.0501 39.6204 21.0501C43.6938 21.0501 46.6333 17.8968 46.6333 13.3743C46.6333 8.85171 43.6938 5.69837 39.6204 5.69837C35.547 5.69837 32.6075 8.85171 32.6075 13.3743ZM43.9457 13.3743C43.9457 16.6106 42.161 18.7059 39.6204 18.7059C37.0798 18.7059 35.2951 16.6106 35.2951 13.3743C35.2951 10.1379 37.0798 8.04263 39.6204 8.04263C42.161 8.04263 43.9457 10.1379 43.9457 13.3743Z" fill="#8E8E8E"/>
<path d="M54.2018 21.0501C57.2883 21.0501 59.0521 18.4777 59.0521 15.3866C59.0521 12.2955 57.2883 9.72302 54.2018 9.72302C52.774 9.72302 51.7242 10.2832 51.0313 11.0922V9.93048H48.5117V24.5562H51.0313V19.6809C51.7242 20.49 52.774 21.0501 54.2018 21.0501ZM50.9683 15.0754C50.9683 13.0216 52.1441 11.9013 53.6979 11.9013C55.5246 11.9013 56.5115 13.312 56.5115 15.3866C56.5115 17.4611 55.5246 18.8719 53.6979 18.8719C52.1441 18.8719 50.9683 17.7308 50.9683 15.7185V15.0754Z" fill="#8E8E8E"/>
<path d="M65.8708 21.0501C68.0755 21.0501 69.8182 19.9091 70.5951 18.0005L68.4324 17.1915C68.0964 18.3117 67.1096 18.9341 65.8708 18.9341C64.254 18.9341 63.1202 17.7931 62.9312 15.926H70.6581V15.0961C70.6581 12.1088 68.9573 9.72302 65.7658 9.72302C62.5743 9.72302 60.5166 12.1918 60.5166 15.3866C60.5166 18.7474 62.7213 21.0501 65.8708 21.0501ZM65.7448 11.8183C67.3406 11.8183 68.0964 12.8556 68.1174 14.0589H63.0572C63.4352 12.5859 64.443 11.8183 65.7448 11.8183Z" fill="#8E8E8E"/>
<path d="M72.5486 20.8219H75.0683V14.4323C75.0683 12.8764 76.2231 12.0465 77.3569 12.0465C78.7427 12.0465 79.2886 13.0216 79.2886 14.37V20.8219H81.8082V13.644C81.8082 11.2997 80.4224 9.72302 78.1128 9.72302C76.685 9.72302 75.6982 10.3661 75.0683 11.0922V9.93048H72.5486V20.8219Z" fill="#8E8E8E"/>
<path d="M89.1877 5.92657L83.4766 20.8219H86.1432L87.424 17.4197H93.933L95.2348 20.8219H97.9434L92.2323 5.92657H89.1877ZM90.6575 8.87245L93.0511 15.0961H88.3059L90.6575 8.87245Z" fill="#8E8E8E"/>
<path d="M102.269 5.96979H99.5811V20.8652H102.269V5.96979Z" fill="#8E8E8E"/>
<path d="M26.4502 11.3974C27.0853 9.51384 26.8666 7.45051 25.8509 5.73727C24.3234 3.10949 21.2526 1.75756 18.2535 2.39376C16.9194 0.908719 15.0025 0.0641985 12.993 0.0763002C9.92743 0.069385 7.20747 2.01948 6.26437 4.90139C4.29504 5.29988 2.59518 6.51782 1.60045 8.24403C0.0615621 10.8649 0.412384 14.1686 2.46832 16.4161C1.83317 18.2996 2.05188 20.3629 3.0676 22.0762C4.59512 24.704 7.6659 26.0559 10.6649 25.4197C11.9982 26.9047 13.916 27.7493 15.9255 27.7363C18.9928 27.7441 21.7136 25.7923 22.6567 22.9077C24.6261 22.5093 26.3259 21.2913 27.3207 19.5651C28.8578 16.9442 28.5061 13.6431 26.451 11.3956L26.4502 11.3974ZM15.9273 25.9288C14.6998 25.9306 13.5109 25.5061 12.5687 24.729C12.6115 24.7066 12.6859 24.6659 12.734 24.6366L18.3087 21.4555C18.5939 21.2956 18.7688 20.9957 18.7671 20.6715V12.9066L21.1231 14.2508C21.1485 14.2629 21.1651 14.2871 21.1686 14.3147V20.745C21.1651 23.6045 18.8213 25.9228 15.9273 25.9288ZM4.65549 21.172C4.04046 20.1226 3.81911 18.8926 4.02996 17.6989C4.07108 17.7231 4.14369 17.7671 4.19531 17.7965L9.76996 20.9775C10.0525 21.1409 10.4025 21.1409 10.6859 20.9775L17.4915 17.0946V19.7829C17.4933 19.8106 17.4802 19.8374 17.4583 19.8547L11.8233 23.0694C9.31328 24.4974 6.10777 23.6485 4.65636 21.172H4.65549ZM3.18834 9.14906C3.80074 8.09795 4.76747 7.29406 5.91879 6.87655C5.91879 6.92409 5.91617 7.00794 5.91617 7.06672V13.4296C5.91442 13.7529 6.08939 14.0528 6.37372 14.2127L13.1793 18.0948L10.8233 19.4389C10.7997 19.4545 10.7699 19.4571 10.7437 19.4458L5.10779 16.2285C2.60305 14.7953 1.74393 11.629 3.18746 9.14993L3.18834 9.14906ZM22.5456 13.5999L15.74 9.71697L18.0961 8.37369C18.1197 8.35813 18.1494 8.35554 18.1757 8.36678L23.8116 11.5815C26.3207 13.0138 27.1807 16.1853 25.731 18.6644C25.1177 19.7138 24.1519 20.5177 23.0014 20.936V14.383C23.0041 14.0597 22.83 13.7606 22.5465 13.5999H22.5456ZM24.8903 10.1129C24.8492 10.0878 24.7765 10.0446 24.7249 10.0152L19.1503 6.83419C18.8677 6.67082 18.5177 6.67082 18.2343 6.83419L11.4287 10.7171V8.0288C11.427 8.00114 11.4401 7.97434 11.462 7.95705L17.097 4.74493C19.607 3.31435 22.816 4.16579 24.263 6.64662C24.8745 7.69427 25.0959 8.92086 24.8885 10.1129H24.8903ZM10.1479 14.9042L7.79101 13.5601C7.76564 13.548 7.74902 13.5238 7.74552 13.4961V7.06585C7.74727 4.20296 10.098 1.8829 12.9956 1.88463C14.2213 1.88463 15.4076 2.30991 16.3498 3.08442C16.307 3.10689 16.2335 3.14752 16.1845 3.17691L10.6098 6.35791C10.3246 6.51782 10.1496 6.81691 10.1514 7.14106L10.1479 14.9042ZM11.4278 12.1779L14.4592 10.4483L17.4907 12.1771V15.6355L14.4592 17.3643L11.4278 15.6355V12.1779Z" fill="#535353"/>
</svg>
