<svg width="149" height="28" viewBox="0 0 149 28" fill="none" xmlns="http://www.w3.org/2000/svg">
<path d="M63.3237 5.40072C61.3995 5.40072 59.4005 5.9274 56.9265 7.25791L58.3009 10.6709C60.4494 9.46622 62.2241 8.93954 63.5238 8.93954C64.9983 8.93954 65.6482 9.49162 65.6482 10.2193V10.2689C65.6482 10.7713 65.2479 11.0474 64.2737 11.1479L62.5749 11.3234C58.3262 11.775 56.5768 13.6322 56.5768 16.1916V16.3672C56.5768 18.8019 58.5758 20.7088 61.3995 20.7088C63.2588 20.7088 64.8741 19.9204 65.856 18.5291L66.1726 20.4581H70.0211V11.6999C70.0211 7.55935 67.6472 5.40072 63.3237 5.40072ZM62.9487 17.3698C61.5248 17.3698 60.8497 16.8177 60.8497 15.9642V15.9145C60.8497 15.1615 61.2741 14.6094 62.8234 14.3841L63.4985 14.2837C64.4848 14.1456 65.0907 13.9635 65.6482 13.6245V14.7353C65.6482 16.4169 64.5981 17.3698 62.9487 17.3698Z" fill="#8E8E8E"/>
<path d="M14.7891 17.8943L27.1372 5.5012L22.2112 0.557885L17.2851 5.5012L19.7371 7.96126L7.39459 20.3565L12.3151 25.3032L17.2411 20.3565L14.7891 17.8943Z" fill="#535353"/>
<path d="M12.368 0.556418L0.0213623 12.9547L4.94448 17.8984L17.2912 5.50012L12.368 0.556418Z" fill="#535353"/>
<path d="M29.5851 7.96646L17.2385 20.3648L22.1616 25.3085L34.5083 12.9102L29.5851 7.96646Z" fill="#535353"/>
<path d="M76.889 0.382324H72.516V20.4559H76.889V0.382324Z" fill="#8E8E8E"/>
<path d="M49.2273 5.40072C47.2393 5.40072 45.6428 6.28404 44.7642 7.66755L44.43 5.65136H40.5815V25.471H44.9545V18.5998C45.7868 19.8884 47.3614 20.7032 49.2273 20.7032C52.7261 20.7032 55.5751 17.5917 55.5751 13.2999V12.7975C55.5751 8.50892 52.7261 5.3963 49.2273 5.3963M51.0768 13.1762C51.0768 15.4342 49.9025 17.0661 47.953 17.0661C46.0034 17.0661 44.8291 15.4353 44.8291 13.1762V12.9256C44.8291 10.6664 46.0034 9.0356 47.953 9.0356C49.9025 9.0356 51.0768 10.6664 51.0768 12.9256V13.1762Z" fill="#8E8E8E"/>
<path d="M135.928 5.40072C131.455 5.40072 128.305 8.51223 128.305 12.8041V13.3065C128.305 17.5972 131.455 20.7099 135.928 20.7099C140.401 20.7099 143.55 17.5983 143.55 13.3065V12.8041C143.55 8.51334 140.401 5.40072 135.928 5.40072ZM139.051 13.1806C139.051 15.4386 137.877 17.0706 135.928 17.0706C133.978 17.0706 132.804 15.4397 132.804 13.1806V12.93C132.804 10.6709 133.978 9.04002 135.928 9.04002C137.877 9.04002 139.051 10.6709 139.051 12.93V13.1806Z" fill="#8E8E8E"/>
<path d="M147.583 6.30502V6.22994C147.583 5.80374 147.259 5.5023 146.684 5.5023H145.684V7.81109H146.159V7.03266H146.687L147.084 7.81109H147.608L147.12 6.89796C147.417 6.80631 147.583 6.58327 147.583 6.30502ZM146.158 5.92851H146.682C146.983 5.92851 147.107 6.02898 147.107 6.25534V6.28073C147.107 6.48169 146.982 6.60646 146.682 6.60646H146.158V5.92851Z" fill="#8E8E8E"/>
<path d="M146.593 4.27227C145.244 4.27227 144.219 5.30134 144.219 6.65615C144.219 8.01095 145.244 9.04002 146.593 9.04002C147.943 9.04002 148.967 8.01095 148.967 6.65615C148.967 5.30134 147.943 4.27227 146.593 4.27227ZM146.593 8.71319C145.419 8.71319 144.569 7.85968 144.569 6.65504C144.569 5.45041 145.419 4.59689 146.593 4.59689C147.768 4.59689 148.618 5.45041 148.618 6.65504C148.618 7.85968 147.768 8.71319 146.593 8.71319Z" fill="#8E8E8E"/>
<path d="M115.451 0.382324H111.078V20.4559H115.451V0.382324Z" fill="#8E8E8E"/>
<path d="M124.052 17.0661C122.778 17.0661 122.303 16.439 122.303 15.0842V9.0356H127.451V5.64805H122.303V2.25939L117.93 2.91195V15.5104C117.93 18.9487 119.679 20.7054 123.178 20.7054C124.728 20.7054 126.552 20.2284 128.051 19.3749L126.802 16.2634C125.926 16.7404 124.702 17.0672 124.052 17.0672" fill="#8E8E8E"/>
<path d="M101.83 5.40072C99.906 5.40072 97.907 5.9274 95.433 7.25791L96.8075 10.6709C98.956 9.46622 100.731 8.93954 102.03 8.93954C103.505 8.93954 104.155 9.49162 104.155 10.2193V10.2689C104.155 10.7713 103.755 11.0474 102.78 11.1479L101.081 11.3234C96.8328 11.775 95.0834 13.6322 95.0834 16.1916V16.3672C95.0834 18.8019 97.0824 20.7088 99.9061 20.7088C101.764 20.7088 103.381 19.9204 104.363 18.5291L104.679 20.4581H108.528V11.6999C108.528 7.55935 106.154 5.40072 101.83 5.40072ZM101.455 17.3698C100.03 17.3698 99.3563 16.8177 99.3563 15.9642V15.9145C99.3563 15.1615 99.7807 14.6094 101.33 14.3841L102.005 14.2837C102.991 14.1456 103.597 13.9635 104.154 13.6245V14.7353C104.154 16.4169 103.105 17.3698 101.455 17.3698Z" fill="#8E8E8E"/>
<path d="M86.4584 5.40072C81.9854 5.40072 78.8363 8.51223 78.8363 12.8041V13.3065C78.8363 17.5972 81.9854 20.7099 86.4584 20.7099C90.9314 20.7099 94.0806 17.5983 94.0806 13.3065V12.8041C94.0795 8.51334 90.9314 5.40072 86.4584 5.40072ZM89.5812 13.1806C89.5812 15.4386 88.4069 17.0706 86.4573 17.0706C84.5078 17.0706 83.3335 15.4397 83.3335 13.1806V12.93C83.3335 10.6709 84.5078 9.04002 86.4573 9.04002C88.4069 9.04002 89.5812 10.6709 89.5812 12.93V13.1806Z" fill="#8E8E8E"/>
<path d="M106.987 27.6329L105.404 25.535H105.393V27.6329H104.359V24.0223H105.481L107.031 26.065H107.042V24.0223H108.076V27.6329H106.987Z" fill="#8E8E8E"/>
<path d="M110.528 26.1865V26.7496H112.727L112.617 27.6329H109.439V24.0223H112.617V24.8946H110.528V25.3915H112.177V26.1865H110.528Z" fill="#8E8E8E"/>
<path d="M114.926 27.6329V24.9498H113.607V24.0223H117.125L117.235 24.9498H115.916V27.6329H114.926Z" fill="#8E8E8E"/>
<path d="M122.513 26.5288L123.063 24.0223H124.162L123.173 27.6329H121.853L121.194 25.4467H121.084L120.424 27.6329H118.994L118.115 24.0223H119.214L119.874 26.5288L120.644 24.0223H121.743L122.403 26.5288H122.513Z" fill="#8E8E8E"/>
<path d="M124.932 25.8221C124.932 24.6451 125.728 23.9075 126.987 23.9075C128.246 23.9075 129.043 24.6451 129.043 25.8221C129.043 26.9991 128.247 27.7367 126.987 27.7367C125.728 27.7367 124.932 26.998 124.932 25.8221ZM127.969 25.8221C127.969 25.1983 127.609 24.8262 126.987 24.8262C126.365 24.8262 126.005 25.1983 126.005 25.8221C126.005 26.4471 126.365 26.8181 126.982 26.8181C127.604 26.8181 127.969 26.446 127.969 25.8221Z" fill="#8E8E8E"/>
<path d="M130.21 24.0223H132.307C133.262 24.0223 133.731 24.4761 133.731 25.3175C133.731 25.895 133.494 26.2881 133.031 26.4736L133.885 27.6351H132.662L131.999 26.6856H131.29V27.6351H130.21V24.0223ZM132.167 25.8387C132.527 25.8387 132.655 25.6377 132.655 25.3639C132.655 25.09 132.527 24.8946 132.167 24.8946H131.289V25.8387H132.167Z" fill="#8E8E8E"/>
<path d="M137.577 25.7559L139.006 27.6219V27.6329H137.797L136.697 26.2417H136.257V27.6329H135.158V24.0223H136.257V25.3473H136.697L137.687 24.0223H139.006L137.577 25.7559Z" fill="#8E8E8E"/>
<path d="M139.886 27.39V26.3996H139.892C140.493 26.7043 141.079 26.8534 141.587 26.8534C141.973 26.8534 142.168 26.7606 142.168 26.5796C142.168 26.3985 142.039 26.3521 141.268 26.2284C140.426 26.0948 139.865 25.8409 139.865 25.1132C139.865 24.4375 140.457 23.9163 141.612 23.9163C142.075 23.9163 142.558 24.0146 143.005 24.2056V25.1861L143 25.1916C142.573 24.9443 141.998 24.7886 141.535 24.7886C141.124 24.7886 140.96 24.8869 140.96 25.0514C140.96 25.2634 141.212 25.2833 141.844 25.3926C142.687 25.5372 143.247 25.7746 143.247 26.5387C143.247 27.1316 142.805 27.7257 141.536 27.7257C140.91 27.7257 140.411 27.5965 139.886 27.39Z" fill="#8E8E8E"/>
</svg>
