<svg width="33" height="32" viewBox="0 0 33 32" fill="none" xmlns="http://www.w3.org/2000/svg">
<path d="M27.4089 5.57553C25.6214 5.38533 23.8622 4.9877 22.1667 4.39068C20.6107 3.84094 19.1183 3.12591 17.7148 2.25786C17.3486 2.03557 16.9284 1.91803 16.5 1.91803C16.0716 1.91803 15.6514 2.03557 15.2852 2.25786L15.2838 2.2592C13.8807 3.12654 12.3887 3.84111 10.8333 4.39068C9.13824 4.98757 7.37946 5.38521 5.59245 5.57557C5.01842 5.63435 4.48663 5.90407 4.10007 6.33248C3.71351 6.76089 3.49968 7.31751 3.5 7.89454V14.8216C3.50094 17.3774 4.1849 19.8866 5.48109 22.0893C6.77728 24.2921 8.6386 26.1084 10.8724 27.3503L15.3659 29.8476C15.7119 30.0422 16.1023 30.1445 16.4993 30.1445C16.8964 30.1445 17.2867 30.0422 17.6328 29.8476L22.1276 27.3503C24.3614 26.1084 26.2227 24.2921 27.5189 22.0893C28.8151 19.8866 29.4991 17.3774 29.5 14.8216V7.89454C29.5004 7.3177 29.2868 6.76123 28.9005 6.33284C28.5142 5.90444 27.9827 5.6346 27.4089 5.57553ZM21.806 13.5782L16.806 18.9115C16.5686 19.1653 16.2413 19.3162 15.8942 19.332C15.547 19.3478 15.2074 19.2273 14.9479 18.9962L11.9479 16.3295C11.6837 16.0947 11.5237 15.7645 11.5029 15.4117C11.4822 15.0588 11.6024 14.7122 11.8372 14.448C12.0721 14.1838 12.4022 14.0237 12.7551 14.003C13.1079 13.9822 13.4546 14.1025 13.7187 14.3373L15.7487 16.1407L19.8607 11.7553C19.9855 11.6224 20.1361 11.5163 20.3034 11.4438C20.4707 11.3712 20.651 11.3336 20.8333 11.3333C21.0933 11.3335 21.3475 11.4096 21.5647 11.5523C21.782 11.695 21.9528 11.8981 22.0561 12.1366C22.1595 12.3751 22.1909 12.6386 22.1464 12.8947C22.102 13.1509 21.9837 13.3885 21.806 13.5782Z" fill="url(#paint0_linear_1_965)"/>
<defs>
<linearGradient id="paint0_linear_1_965" x1="3.5" y1="16.0313" x2="29.5" y2="16.0313" gradientUnits="userSpaceOnUse">
<stop stop-color="#FA582D"/>
<stop offset="1" stop-color="#FFC328"/>
</linearGradient>
</defs>
</svg>
