<svg width="24" height="24" viewBox="0 0 24 24" fill="none" xmlns="http://www.w3.org/2000/svg">
<rect width="24" height="24" rx="12" fill="url(#paint0_linear_388_1644)"/>
<path d="M4.5 11.75C4.5 7.89453 7.61719 4.75 11.5 4.75C15.3555 4.75 18.5 7.89453 18.5 11.75C18.5 15.6328 15.3555 18.75 11.5 18.75C7.61719 18.75 4.5 15.6328 4.5 11.75ZM14.6445 10.5469C14.9453 10.2461 14.9453 9.78125 14.6445 9.48047C14.3438 9.17969 13.8789 9.17969 13.5781 9.48047L10.625 12.4336L9.39453 11.2305C9.09375 10.9297 8.62891 10.9297 8.32812 11.2305C8.02734 11.5312 8.02734 11.9961 8.32812 12.2969L10.0781 14.0469C10.3789 14.3477 10.8438 14.3477 11.1445 14.0469L14.6445 10.5469Z" fill="white"/>
<defs>
<linearGradient id="paint0_linear_388_1644" x1="0" y1="12" x2="24" y2="12" gradientUnits="userSpaceOnUse">
<stop stop-color="#FA582D"/>
<stop offset="1" stop-color="#FFC328"/>
</linearGradient>
</defs>
</svg>
