<svg width="288" height="29" viewBox="0 0 288 29" fill="none" xmlns="http://www.w3.org/2000/svg">
<path fill-rule="evenodd" clip-rule="evenodd" d="M97.5195 14.91L107.84 27.9H111.4L101.73 15.77L100.94 14.82L101.63 13.78L110.11 1.03003H106.71L97.5195 14.91Z" fill="white"/>
<path d="M86.3396 1.03003H83.3496V27.9H86.3396V1.03003Z" fill="url(#paint0_linear_206_556)"/>
<path fill-rule="evenodd" clip-rule="evenodd" d="M25.4395 1.03003V3.50003H34.0295V27.9H37.0195V3.50003H45.5995V1.03003H25.4395Z" fill="white"/>
<path fill-rule="evenodd" clip-rule="evenodd" d="M3.59062 22.55L0.530624 23.12C0.920624 23.93 1.47062 24.65 2.15062 25.28C3.06062 26.13 4.13062 26.79 5.31062 27.24C6.52062 27.7 7.77062 27.94 9.07062 27.94C10.2606 27.94 11.4006 27.74 12.5106 27.34C13.5806 26.96 14.5806 26.43 15.4606 25.73C16.3006 25.07 16.9706 24.26 17.4706 23.34C17.9606 22.43 18.2206 21.46 18.2206 20.44C18.2206 19.79 18.0906 19.15 17.8506 18.54C17.6006 17.94 17.2606 17.38 16.8306 16.89C16.3706 16.37 15.8406 15.9 15.2706 15.5C14.6606 15.07 14.0106 14.69 13.3306 14.37C12.6406 14.05 11.9206 13.77 11.1706 13.54C10.8406 13.43 10.5006 13.34 10.1706 13.25C9.78062 13.14 9.38062 13.03 8.99062 12.92C8.58062 12.81 8.17062 12.67 7.76062 12.53C7.34062 12.38 6.91062 12.22 6.51062 12.02C6.13062 11.83 5.76062 11.62 5.41062 11.38C5.05062 11.14 4.71062 10.85 4.43062 10.51C4.15062 10.18 3.94063 9.8 3.78063 9.4C3.61063 8.96 3.53063 8.49 3.53063 8.02C3.53063 7.35 3.68062 6.71 3.98062 6.11C4.27062 5.51 4.69063 4.98 5.20063 4.53C5.72063 4.07 6.32062 3.73 6.98062 3.48C7.66062 3.22 8.37063 3.1 9.10063 3.1C10.5806 3.1 11.8806 3.57 12.9906 4.53C13.4306 4.93 13.8006 5.37 14.0806 5.87L17.1106 5.31C16.6006 4.14 15.8006 3.16 14.7406 2.35C13.9506 1.75 13.0606 1.3 12.1106 0.98C11.1206 0.65 10.0906 0.5 9.04063 0.5C7.88063 0.5 6.76062 0.69 5.67062 1.08C4.64062 1.46 3.70063 2 2.89062 2.71C2.11063 3.39 1.49062 4.19 1.05062 5.1C0.610625 6.01 0.390625 6.97 0.390625 7.97C0.390625 8.71 0.520625 9.41 0.810625 10.1C1.09063 10.78 1.49062 11.4 2.01062 11.94C2.79062 12.76 3.70062 13.43 4.74062 13.94C5.89062 14.51 7.14062 14.92 8.39062 15.23C8.99062 15.38 9.59062 15.54 10.1806 15.72C10.7806 15.91 11.3606 16.14 11.9206 16.4C12.4806 16.66 13.0306 16.97 13.5106 17.34C13.9706 17.7 14.3506 18.14 14.6306 18.65C14.9406 19.18 15.0906 19.77 15.0806 20.37C15.0806 21.09 14.8906 21.76 14.5206 22.38C14.1606 22.99 13.6906 23.51 13.1006 23.92C12.5206 24.33 11.8806 24.64 11.2106 24.88C10.5206 25.12 9.80063 25.27 9.03063 25.32C7.83063 25.32 6.70062 25 5.65062 24.43C4.79062 23.95 4.06062 23.33 3.56062 22.52" fill="white"/>
<path fill-rule="evenodd" clip-rule="evenodd" d="M74.0302 9.75002C74.0302 10.9 73.8302 11.96 73.4202 12.93C73.0102 13.9 72.4502 14.74 71.7302 15.46C71.0102 16.18 70.1602 16.75 69.1802 17.18C68.2002 17.61 67.1402 17.86 66.0202 17.93L73.5902 27.94H70.2602L61.1402 15.78C61.5502 15.78 62.0002 15.78 62.5102 15.8C63.0102 15.81 63.5202 15.8 64.0302 15.78C64.5502 15.76 65.0502 15.71 65.5402 15.65C66.0302 15.59 66.4802 15.5 66.8802 15.38C68.2202 14.97 69.3002 14.27 70.1102 13.26C70.9302 12.26 71.3302 11.06 71.3302 9.67002C71.3302 8.64002 71.0702 7.65002 70.5402 6.69002C70.0202 5.73002 69.3002 5.00002 68.3902 4.50002C67.5502 4.05002 66.7102 3.77002 65.8602 3.66002C65.0102 3.55002 64.1102 3.50002 63.1502 3.50002H54.5702L52.4902 1.02002H62.6202C63.6502 1.02002 64.7702 1.09002 65.9702 1.22002C67.1802 1.35002 68.2602 1.64002 69.2202 2.10002C70.7502 2.82002 71.9302 3.85002 72.7702 5.20002C73.6102 6.55002 74.0202 8.07002 74.0202 9.74002" fill="white"/>
<path fill-rule="evenodd" clip-rule="evenodd" d="M120.721 25.55V28.03H137.691V25.55H128.951H120.721Z" fill="white"/>
<path fill-rule="evenodd" clip-rule="evenodd" d="M120.721 1.03003V3.51003H123.711H128.951H137.691V1.03003H120.721Z" fill="white"/>
<path fill-rule="evenodd" clip-rule="evenodd" d="M120.721 13.29V15.77H123.711H128.951H137.691V13.29H120.721Z" fill="white"/>
<path fill-rule="evenodd" clip-rule="evenodd" d="M265.859 1.03003L275.029 15.83L275.249 16.57V27.9H278.189V16.57L278.389 15.84L287.569 1.03003H284.249L278.469 10.66L276.709 13.61L274.949 10.66L269.169 1.03003H265.859Z" fill="white"/>
<path fill-rule="evenodd" clip-rule="evenodd" d="M238.689 1.03003V27.88H245.949C248.079 27.88 250.179 27.56 252.189 26.86C254.079 26.2 255.799 25.25 257.289 23.95L257.309 23.93C258.669 22.74 259.669 21.32 260.329 19.67C260.999 18 261.349 16.27 261.349 14.48C261.349 12.69 260.999 10.96 260.329 9.28003C259.669 7.63003 258.659 6.20003 257.309 5.01003L257.289 4.99003C255.799 3.68003 254.079 2.72003 252.189 2.05003C250.459 1.44003 248.669 1.12003 246.849 1.03003H238.689ZM245.989 25.39H241.629V3.47003H245.919C247.599 3.47003 249.289 3.67003 250.879 4.21003C252.379 4.71003 253.739 5.47003 254.909 6.50003C256.049 7.49003 256.929 8.68003 257.519 10.05C258.119 11.44 258.369 12.93 258.369 14.44C258.369 15.95 258.119 17.44 257.519 18.84C256.929 20.21 256.059 21.4 254.919 22.42C253.749 23.43 252.399 24.18 250.909 24.67C249.319 25.18 247.659 25.4 245.989 25.4" fill="white"/>
<path fill-rule="evenodd" clip-rule="evenodd" d="M216.921 1.03003L204.141 27.3H207.311L208.951 24.11L212.581 16.83C212.961 16 213.331 15.17 213.691 14.34C214.531 12.41 215.421 10.49 216.351 8.60003L216.951 7.39003L217.541 8.61003C218.461 10.51 219.331 12.42 220.161 14.35C220.571 15.3 220.991 16.25 221.431 17.2V17.22L225.361 25L226.551 27.32H229.721L216.931 1.05003L216.921 1.03003Z" fill="url(#paint1_linear_206_556)"/>
<path fill-rule="evenodd" clip-rule="evenodd" d="M169.11 9.75003C169.11 10.9 168.91 11.96 168.5 12.93C168.09 13.9 167.53 14.74 166.81 15.46C166.09 16.18 165.24 16.75 164.26 17.18C163.28 17.61 162.23 17.86 161.1 17.93L168.67 27.94H165.33L156.22 15.78C156.63 15.78 157.08 15.78 157.58 15.8C158.08 15.81 158.59 15.8 159.11 15.78C159.62 15.76 160.13 15.72 160.62 15.66C161.11 15.6 161.56 15.51 161.96 15.39C163.3 14.98 164.38 14.28 165.19 13.27C166 12.26 166.41 11.07 166.41 9.68003C166.41 8.65003 166.15 7.66003 165.62 6.70003C165.1 5.74003 164.38 5.01003 163.47 4.51003C162.63 4.05003 161.79 3.78003 160.94 3.67003C160.09 3.56003 159.19 3.51003 158.23 3.51003H149.65L147.57 1.03003H157.7C158.73 1.03003 159.85 1.10003 161.06 1.23003C162.27 1.36003 163.35 1.65003 164.31 2.11003C165.84 2.83003 167.03 3.86003 167.86 5.21003C168.7 6.56003 169.12 8.08003 169.12 9.75003" fill="white"/>
<path fill-rule="evenodd" clip-rule="evenodd" d="M179.779 25.55V28.03H196.759V25.55H188.349H179.779Z" fill="white"/>
<path fill-rule="evenodd" clip-rule="evenodd" d="M179.779 1.03003V3.51003H182.769H188.349H196.759V1.03003H179.779Z" fill="white"/>
<path fill-rule="evenodd" clip-rule="evenodd" d="M179.779 13.29V15.78H182.769H188.009H196.759V13.29H179.779Z" fill="white"/>
<defs>
<linearGradient id="paint0_linear_206_556" x1="84.8496" y1="1.03003" x2="84.8496" y2="27.9" gradientUnits="userSpaceOnUse">
<stop stop-color="#2BBCFA"/>
<stop offset="0.13" stop-color="#3FC5E2"/>
<stop offset="0.28" stop-color="#50CDCE"/>
<stop offset="0.45" stop-color="#5CD3BF"/>
<stop offset="0.66" stop-color="#63D6B7"/>
<stop offset="1" stop-color="#66D8B5"/>
</linearGradient>
<linearGradient id="paint1_linear_206_556" x1="216.921" y1="-11" x2="216.921" y2="27.3" gradientUnits="userSpaceOnUse">
<stop stop-color="#2BBCFA"/>
<stop offset="0.13" stop-color="#3FC5E2"/>
<stop offset="0.28" stop-color="#50CDCE"/>
<stop offset="0.45" stop-color="#5CD3BF"/>
<stop offset="0.66" stop-color="#63D6B7"/>
<stop offset="1" stop-color="#66D8B5"/>
</linearGradient>
</defs>
</svg>
