<svg width="59" height="49" viewBox="0 0 59 49" fill="none" xmlns="http://www.w3.org/2000/svg">
<path d="M58.2242 26.6428C58.3169 28.8572 57.5274 31.018 56.029 32.6511C54.5305 34.2842 52.4455 35.2562 50.2312 35.3539C50.1018 35.3599 49.9725 35.3629 49.8435 35.3629C49.2552 35.3625 48.6686 35.2988 48.0939 35.173C46.3886 37.8059 44.1526 40.0538 41.5289 41.7731C38.9052 43.4924 35.9515 44.6451 32.8568 45.1575C32.4908 46.2329 31.7605 47.1465 30.7923 47.7406C29.824 48.3346 28.6787 48.5717 27.5542 48.4109C26.4297 48.25 25.3968 47.7013 24.6339 46.8597C23.871 46.018 23.4262 44.9362 23.3763 43.8014C23.3264 42.6666 23.6746 41.55 24.3607 40.6446C25.0467 39.7392 26.0276 39.102 27.1336 38.8431C28.2396 38.5842 29.4014 38.7199 30.418 39.2267C31.4346 39.7335 32.2422 40.5795 32.7012 41.6186C37.0581 40.8128 40.9942 38.5037 43.8233 35.0937C46.6524 31.6837 48.1953 27.389 48.1829 22.9582C48.1829 12.4905 39.6668 3.9744 29.1991 3.9744C18.7313 3.9744 10.2153 12.4905 10.2153 22.9582C10.2147 26.195 11.0419 29.3782 12.6183 32.2052C12.6717 32.2985 12.7118 32.3988 12.7375 32.5032C12.8897 32.9264 12.8734 33.392 12.692 33.8035C12.5105 34.2151 12.1778 34.5411 11.7627 34.7141C10.7461 35.142 9.65431 35.3623 8.55141 35.3621C8.42161 35.3621 8.29153 35.3591 8.16119 35.3531C5.94789 35.2541 3.86415 34.2815 2.36687 32.6486C0.869587 31.0156 0.0809647 28.8555 0.173924 26.6419C0.211294 25.7592 0.190442 24.9716 0.170058 24.2101C0.15108 23.493 0.131282 22.7515 0.163849 21.9777C0.261044 19.8164 1.19076 17.7765 2.75827 16.2853C4.32578 14.7941 6.40949 13.9673 8.57296 13.978C12.0471 6.02929 19.9842 0.459961 29.1991 0.459961C38.4139 0.459961 46.3512 6.02929 49.8253 13.9781C51.989 13.9658 54.0734 14.7919 55.6412 16.2831C57.209 17.7744 58.1383 19.8148 58.2342 21.9764C58.2669 22.7513 58.2472 23.4928 58.228 24.2098C58.2078 24.9715 58.1869 25.7595 58.2242 26.6428ZM43.9369 22.9582C43.936 25.2161 43.4166 27.4436 42.4187 29.4689C41.4208 31.4943 39.971 33.2634 38.1812 34.6398C36.3915 36.0162 34.3095 36.9632 32.0958 37.4076C29.8821 37.8521 27.596 37.7823 25.4136 37.2034L19.4483 40.6484C19.1473 40.8222 18.8015 40.9029 18.4547 40.8801C18.1078 40.8574 17.7755 40.7324 17.4998 40.5208C17.224 40.3092 17.0172 40.0206 16.9055 39.6915C16.7938 39.3623 16.7822 39.0075 16.8722 38.6717L18.3968 32.9844C15.872 30.2555 14.4672 26.676 14.4619 22.9582C14.4619 14.8296 21.0726 8.21703 29.1991 8.21703C37.3255 8.21703 43.9369 14.8296 43.9369 22.9582ZM25.1018 22.9582C25.1018 22.4922 24.9167 22.0452 24.5872 21.7157C24.2576 21.3861 23.8107 21.201 23.3446 21.201H23.3417C22.9943 21.2017 22.6549 21.3053 22.3663 21.4987C22.0778 21.6922 21.8531 21.9669 21.7206 22.288C21.5881 22.6092 21.5537 22.9624 21.6219 23.303C21.6901 23.6437 21.8577 23.9565 22.1036 24.2019C22.3495 24.4473 22.6626 24.6144 23.0034 24.6819C23.3441 24.7495 23.6973 24.7145 24.0182 24.5814C24.3391 24.4483 24.6133 24.223 24.8063 23.9341C24.9992 23.6452 25.1022 23.3056 25.1022 22.9582H25.1018ZM30.9567 22.9582C30.9565 22.9007 30.9534 22.8432 30.9473 22.786C30.9417 22.7286 30.9332 22.6715 30.9216 22.615C30.9111 22.5587 30.897 22.5031 30.8793 22.4486C30.8631 22.3936 30.8431 22.3397 30.8221 22.2858C30.801 22.2319 30.7752 22.1815 30.7482 22.1312C30.7215 22.0805 30.6922 22.0312 30.6604 21.9836C30.6284 21.9354 30.5939 21.8888 30.5572 21.8441C30.5211 21.7994 30.4824 21.7567 30.4413 21.7165C30.4015 21.6755 30.3581 21.6368 30.3136 21.5993C30.269 21.5642 30.2221 21.529 30.1741 21.4974C30.1265 21.4656 30.0772 21.4363 30.0266 21.4095C29.9761 21.3826 29.9235 21.358 29.8707 21.3357C29.8179 21.3136 29.764 21.2945 29.7091 21.2783C29.5996 21.2431 29.4864 21.2203 29.3718 21.2104C29.1997 21.1938 29.0261 21.2021 28.8563 21.235C28.7998 21.2465 28.7439 21.261 28.6889 21.2783C28.634 21.2944 28.58 21.3136 28.5272 21.3357C28.4745 21.358 28.4218 21.3826 28.3714 21.4095C28.3211 21.4365 28.2719 21.4658 28.2237 21.4974C28.1756 21.529 28.1288 21.5642 28.0856 21.5993C28.0399 21.6368 27.9977 21.6755 27.9567 21.7165C27.9156 21.7568 27.8769 21.7994 27.8406 21.8441C27.8044 21.8889 27.7704 21.9354 27.7388 21.9836C27.7066 22.0312 27.6769 22.0805 27.6498 22.1312C27.6228 22.1813 27.5985 22.233 27.5771 22.2858C27.5548 22.3391 27.5353 22.3934 27.5185 22.4486C27.5022 22.5025 27.4881 22.5587 27.4764 22.615C27.4648 22.6715 27.4562 22.7286 27.4505 22.786C27.4448 22.8434 27.4423 22.9008 27.4423 22.9582C27.4423 23.0156 27.4448 23.0742 27.4505 23.1316C27.4563 23.1886 27.4649 23.2453 27.4764 23.3015C27.4881 23.3577 27.5022 23.4139 27.5185 23.469C27.5353 23.5238 27.5548 23.5778 27.5771 23.6307C27.5985 23.6839 27.6228 23.7359 27.6498 23.7865C27.6766 23.8368 27.7072 23.886 27.7388 23.9341C27.7704 23.9819 27.8044 24.028 27.8406 24.0723C27.8771 24.1172 27.9159 24.1602 27.9567 24.2012C27.9977 24.241 28.0399 24.2808 28.0856 24.3171C28.1296 24.3537 28.1758 24.3878 28.2237 24.4191C28.2719 24.4507 28.3209 24.4811 28.3714 24.5081C28.4732 24.5611 28.5794 24.605 28.6889 24.6393C28.7438 24.6557 28.8001 24.6698 28.8563 24.6815C28.9692 24.7046 29.0843 24.716 29.1996 24.7154C29.665 24.7142 30.1113 24.5294 30.4413 24.2012C30.5223 24.119 30.5956 24.0296 30.6604 23.9341C30.692 23.886 30.7213 23.8368 30.7482 23.7865C30.7752 23.7361 30.7998 23.6834 30.8221 23.6307C30.8443 23.5779 30.8631 23.5229 30.8793 23.469C30.8969 23.4141 30.911 23.3581 30.9216 23.3015C30.9331 23.2453 30.9417 23.1886 30.9473 23.1316C30.9533 23.0739 30.9563 23.016 30.9563 22.958L30.9567 22.9582ZM36.814 22.9582C36.814 22.4922 36.6289 22.0452 36.2994 21.7157C35.9698 21.3861 35.5229 21.201 35.0568 21.201H35.0534C34.706 21.2017 34.3666 21.3053 34.0781 21.4988C33.7896 21.6923 33.5649 21.967 33.4324 22.2881C33.2999 22.6093 33.2656 22.9625 33.3338 23.3031C33.402 23.6438 33.5696 23.9565 33.8155 24.202C34.0614 24.4474 34.3745 24.6144 34.7153 24.6819C35.056 24.7494 35.4092 24.7145 35.7301 24.5814C36.051 24.4483 36.3252 24.223 36.5181 23.9341C36.7111 23.6452 36.814 23.3056 36.814 22.9582Z" fill="url(#paint0_linear_1034_802)"/>
<defs>
<linearGradient id="paint0_linear_1034_802" x1="0.146484" y1="24.46" x2="58.2517" y2="24.46" gradientUnits="userSpaceOnUse">
<stop stop-color="#FA582D"/>
<stop offset="1" stop-color="#FFC328"/>
</linearGradient>
</defs>
</svg>
