<svg width="453" height="80" viewBox="0 0 453 80" fill="none" xmlns="http://www.w3.org/2000/svg">
<g clip-path="url(#clip0_404_620)">
<path d="M28.8869 38.371L22.3182 37.3395C15.1555 36.3149 9.85195 34.3861 6.40766 31.553C2.96337 28.7199 1.2377 24.3156 1.23067 18.34V18.1544C1.23067 6.02439 9.09279 -0.037144 24.817 -0.0302676C33.0833 -0.0302676 39.0792 1.50661 42.8047 4.58036C46.5301 7.65411 48.5791 12.3576 48.9517 18.6907H35.0761C35.0287 17.7676 34.7913 16.8634 34.3782 16.0322C33.9652 15.201 33.3849 14.4598 32.6721 13.8532C31.2487 12.6773 28.6655 12.0894 24.9014 12.0894C18.4275 12.0894 15.1906 13.9907 15.1906 17.7934V17.979C15.1624 18.8213 15.3456 19.6576 15.7243 20.4146C16.1029 21.1716 16.6654 21.8264 17.3626 22.3215C18.8106 23.4079 21.1689 24.1918 24.4375 24.6732L31.1011 25.7046C38.313 26.7842 43.4303 28.7887 46.4528 31.7181C49.4754 34.6474 50.9866 38.9451 50.9866 44.6113V44.797C50.9866 58.2472 42.7239 64.9723 26.1983 64.9723C17.5665 64.9723 11.1207 63.2085 6.86103 59.6809C2.60136 56.1533 0.352029 50.6522 0.113037 43.1776H13.9886C14.6002 49.6345 18.67 52.863 26.1983 52.863C30.0784 52.863 32.8619 52.2854 34.5278 51.1404C36.1938 49.9955 37.0267 48.0461 37.0267 45.354V45.1683C37.0788 44.3467 36.9537 43.5235 36.6594 42.7523C36.3652 41.981 35.9083 41.279 35.3186 40.6917C34.1799 39.6328 32.036 38.8592 28.8869 38.371Z" fill="url(#paint0_linear_404_620)"/>
<path d="M97.8847 18.0098L81.8793 67.1691C80.3399 71.8726 78.2312 75.1905 75.5531 77.1227C72.4459 79.1674 68.7504 80.1833 65.0093 80.0211C61.9139 80.0515 58.8295 79.6557 55.8468 78.8453V67.8086C57.9317 68.2058 60.0492 68.4164 62.1731 68.4378C63.4898 68.5181 64.8069 68.2845 66.011 67.7571C67.0512 67.056 67.7995 66.0128 68.1197 64.8174L68.4888 63.7859L52.1143 18.0923H66.264L75.1419 48.9536H75.3317L83.8405 18.0923H98.0007L97.8847 18.0098Z" fill="url(#paint1_linear_404_620)"/>
<path d="M101.312 63.7025V18.0089H114.449L114.818 24.5277H114.955C117.858 19.3979 122.638 16.833 129.295 16.833C134.215 16.833 137.87 18.2805 140.26 21.1755C142.65 24.0704 143.838 28.5401 143.824 34.5844V63.7232H130.36V34.6773C130.512 32.8951 130.019 31.1172 128.968 29.6541C128.04 28.6226 126.501 28.0656 124.339 28.0656C120.944 28.0656 118.509 29.0455 117.032 31.0053C115.491 33.1615 114.71 35.7506 114.808 38.3802V63.7128H101.312V63.7025Z" fill="url(#paint2_linear_404_620)"/>
<path d="M164.511 31.9439H151.447C151.722 21.87 158.628 16.833 172.166 16.833C179.378 16.833 184.435 18.2358 187.338 21.0414C190.241 23.8469 191.689 27.6943 191.682 32.5834V63.7128H179.842L179.473 57.9264H179.272C177.892 60.0969 175.88 61.814 173.494 62.8567C170.713 64.1783 167.655 64.8459 164.564 64.8062C159.932 64.8062 156.199 63.7507 153.366 61.6396C150.534 59.5286 149.128 56.2416 149.149 51.7789V51.5932C149.095 49.5009 149.49 47.4207 150.309 45.487C150.979 43.9309 151.97 42.5265 153.219 41.3611C154.638 40.171 156.293 39.2793 158.079 38.7412C160.025 38.0785 162.02 37.5647 164.047 37.2043C165.959 36.8743 168.395 36.5889 171.354 36.3482L178.566 35.719V32.7278C178.566 30.4999 178.123 28.932 177.227 28.0244C176.331 27.1167 174.654 26.6628 172.187 26.6628C169.54 26.6628 167.622 27.096 166.451 27.9728C165.841 28.4592 165.351 29.0729 165.015 29.769C164.679 30.4651 164.507 31.2258 164.511 31.9955V31.9439ZM178.566 45.9717V43.4447L173.199 44.0739C169.066 44.6205 166.219 45.2807 164.638 46.0646C163.849 46.4786 163.204 47.1122 162.783 47.8852C162.363 48.6582 162.186 49.5358 162.276 50.407V50.5927C162.276 53.4326 164.033 54.8492 167.548 54.8423C174.886 54.8423 178.555 51.8854 178.555 45.9717H178.566Z" fill="url(#paint3_linear_404_620)"/>
<path d="M211.747 24.5179H211.958C213.259 22.3581 215.126 20.5776 217.367 19.3606C220.171 17.6554 223.418 16.7779 226.719 16.8335C232.582 16.8335 237.098 18.9446 240.268 23.1667C243.438 27.3888 245.027 33.2097 245.034 40.6293V40.815C245.034 48.4203 243.336 54.3305 239.941 58.5458C238.384 60.5709 236.354 62.2024 234.021 63.304C231.688 64.4057 229.119 64.9457 226.529 64.8789C219.929 64.8789 215.058 62.314 211.916 57.1842H211.737V79.0821H198.251V18.0094H211.368L211.737 24.5282L211.747 24.5179ZM211.568 38.7314V43.342C211.479 46.1733 212.45 48.9389 214.299 51.1193C215.269 52.1935 216.477 53.037 217.831 53.5857C219.185 54.1344 220.649 54.3739 222.112 54.2858C225.5 54.2858 227.921 53.1994 229.376 51.0264C230.831 48.8535 231.555 45.4462 231.548 40.8047V40.619C231.548 36.0909 230.821 32.7799 229.376 30.6654C227.932 28.5509 225.412 27.4988 221.837 27.4988C220.437 27.4366 219.04 27.6759 217.745 28.1999C216.449 28.7239 215.287 29.5198 214.341 30.5313C212.398 32.8235 211.408 35.7473 211.568 38.7211V38.7314Z" fill="url(#paint4_linear_404_620)"/>
<path d="M278.721 28.3239H267.619V48.9531C267.619 50.8819 267.977 52.1609 268.673 52.8005C269.369 53.44 270.697 53.7494 272.606 53.7494C274.74 53.7172 276.862 53.4437 278.932 52.9345V63.0428C275.707 64.0786 272.331 64.5976 268.936 64.5797C263.763 64.5797 259.971 63.5242 257.56 61.4131C255.149 59.3021 253.947 55.4719 253.954 49.9227V28.262H247.543V17.9474H254.386L255.124 4.6416H267.608V17.9474H278.711V28.262L278.721 28.3239Z" fill="url(#paint5_linear_404_620)"/>
<path d="M309.34 54.6572C314.518 54.5131 319.639 53.5661 324.513 51.8516V61.8052C319.327 64.0297 313.704 65.1107 308.043 64.9718C299.412 64.9718 293.043 62.9811 288.938 58.9996C284.833 55.0182 282.784 49.0151 282.791 40.9903V40.8047C282.791 33.1994 284.78 27.3029 288.759 23.1151C292.737 18.9274 298.428 16.8301 305.829 16.8232C313.21 16.8232 318.482 18.7108 321.919 22.4756C325.356 26.2405 327.012 31.1812 327.012 37.2668C327.023 39.9379 326.776 42.6041 326.274 45.2296H295.749C295.992 48.6128 297.162 51.0161 299.26 52.4498C301.359 53.8836 304.722 54.6262 309.34 54.6262V54.6572ZM305.639 26.8078C302.434 26.8078 300.058 27.6226 298.512 29.2523C296.962 30.882 296.045 33.4504 295.739 36.947H314.422C314.296 33.6257 313.593 31.1055 312.314 29.3864C311.017 27.6639 308.803 26.8078 305.65 26.8078H305.639Z" fill="url(#paint6_linear_404_620)"/>
<path d="M377.6 18.0094L359.57 35.7402L377.79 63.703H363.788L350.671 44.4766L346.138 48.9119V63.6618H332.631V1.22754H346.138V33.6257L362.048 17.9681H377.6V18.0094Z" fill="url(#paint7_linear_404_620)"/>
<path d="M376.577 63.7025L394.365 40.4431L377.157 17.916H392.699L402.188 31.2218L411.625 17.916H427.05L409.843 40.4431L427.599 63.7025H412.089L402.104 49.7675L392.119 63.7025H376.577Z" fill="url(#paint8_linear_404_620)"/>
<path d="M442.392 65.5592C447.761 65.5592 452.113 61.3014 452.113 56.0491C452.113 50.7969 447.761 46.5391 442.392 46.5391C437.023 46.5391 432.67 50.7969 432.67 56.0491C432.67 61.3014 437.023 65.5592 442.392 65.5592Z" fill="#FFE000"/>
</g>
<defs>
<linearGradient id="paint0_linear_404_620" x1="0.113037" y1="32.4813" x2="427.641" y2="32.4813" gradientUnits="userSpaceOnUse">
<stop offset="0.25" stop-color="#FF5A00"/>
<stop offset="1" stop-color="#FFE000"/>
</linearGradient>
<linearGradient id="paint1_linear_404_620" x1="0.112542" y1="49.0051" x2="427.641" y2="49.0051" gradientUnits="userSpaceOnUse">
<stop offset="0.25" stop-color="#FF5A00"/>
<stop offset="1" stop-color="#FFE000"/>
</linearGradient>
<linearGradient id="paint2_linear_404_620" x1="0.112784" y1="40.2678" x2="427.641" y2="40.2678" gradientUnits="userSpaceOnUse">
<stop offset="0.25" stop-color="#FF5A00"/>
<stop offset="1" stop-color="#FFE000"/>
</linearGradient>
<linearGradient id="paint3_linear_404_620" x1="0.112973" y1="40.8144" x2="427.641" y2="40.8144" gradientUnits="userSpaceOnUse">
<stop offset="0.25" stop-color="#FF5A00"/>
<stop offset="1" stop-color="#FFE000"/>
</linearGradient>
<linearGradient id="paint4_linear_404_620" x1="0.112959" y1="47.9527" x2="427.641" y2="47.9527" gradientUnits="userSpaceOnUse">
<stop offset="0.25" stop-color="#FF5A00"/>
<stop offset="1" stop-color="#FFE000"/>
</linearGradient>
<linearGradient id="paint5_linear_404_620" x1="0.11306" y1="34.6571" x2="427.641" y2="34.6571" gradientUnits="userSpaceOnUse">
<stop offset="0.25" stop-color="#FF5A00"/>
<stop offset="1" stop-color="#FFE000"/>
</linearGradient>
<linearGradient id="paint6_linear_404_620" x1="0.113295" y1="40.8975" x2="427.641" y2="40.8975" gradientUnits="userSpaceOnUse">
<stop offset="0.25" stop-color="#FF5A00"/>
<stop offset="1" stop-color="#FFE000"/>
</linearGradient>
<linearGradient id="paint7_linear_404_620" x1="0.112867" y1="32.4807" x2="427.641" y2="32.4807" gradientUnits="userSpaceOnUse">
<stop offset="0.25" stop-color="#FF5A00"/>
<stop offset="1" stop-color="#FFE000"/>
</linearGradient>
<linearGradient id="paint8_linear_404_620" x1="0.112832" y1="40.8041" x2="427.641" y2="40.8041" gradientUnits="userSpaceOnUse">
<stop offset="0.25" stop-color="#FF5A00"/>
<stop offset="1" stop-color="#FFE000"/>
</linearGradient>
<clipPath id="clip0_404_620">
<rect width="452" height="80" fill="white" transform="translate(0.113037)"/>
</clipPath>
</defs>
</svg>
