<svg width="142" height="41" viewBox="0 0 142 41" fill="none" xmlns="http://www.w3.org/2000/svg">
<rect x="1" y="1.5" width="140" height="38" rx="19" fill="white" fill-opacity="0.05"/>
<rect x="1" y="1.5" width="140" height="38" rx="19" stroke="url(#paint0_linear_388_1685)" stroke-width="2"/>
<rect x="8" y="8.5" width="24" height="24" rx="12" fill="url(#paint1_linear_388_1685)"/>
<path d="M12.5 20.25C12.5 16.3945 15.6172 13.25 19.5 13.25C23.3555 13.25 26.5 16.3945 26.5 20.25C26.5 24.1328 23.3555 27.25 19.5 27.25C15.6172 27.25 12.5 24.1328 12.5 20.25ZM22.6445 19.0469C22.9453 18.7461 22.9453 18.2812 22.6445 17.9805C22.3438 17.6797 21.8789 17.6797 21.5781 17.9805L18.625 20.9336L17.3945 19.7305C17.0938 19.4297 16.6289 19.4297 16.3281 19.7305C16.0273 20.0312 16.0273 20.4961 16.3281 20.7969L18.0781 22.5469C18.3789 22.8477 18.8438 22.8477 19.1445 22.5469L22.6445 19.0469Z" fill="white"/>
<path d="M43.794 26.14C43.0193 26.14 42.3613 26 41.82 25.72C41.2787 25.44 40.7933 25.0293 40.364 24.488L41.456 23.396C41.7267 23.788 42.0487 24.096 42.422 24.32C42.7953 24.5347 43.2713 24.642 43.85 24.642C44.3913 24.642 44.8207 24.53 45.138 24.306C45.4647 24.082 45.628 23.774 45.628 23.382C45.628 23.0553 45.544 22.7893 45.376 22.584C45.208 22.3787 44.984 22.2107 44.704 22.08C44.4333 21.94 44.13 21.8187 43.794 21.716C43.4673 21.604 43.136 21.4827 42.8 21.352C42.4733 21.212 42.17 21.0393 41.89 20.834C41.6193 20.6287 41.4 20.3627 41.232 20.036C41.064 19.7093 40.98 19.294 40.98 18.79C40.98 18.2113 41.12 17.7213 41.4 17.32C41.6893 16.9093 42.0767 16.5967 42.562 16.382C43.0473 16.1673 43.5887 16.06 44.186 16.06C44.83 16.06 45.404 16.186 45.908 16.438C46.4213 16.69 46.8367 17.012 47.154 17.404L46.062 18.496C45.782 18.1787 45.488 17.9453 45.18 17.796C44.8813 17.6373 44.536 17.558 44.144 17.558C43.6587 17.558 43.276 17.656 42.996 17.852C42.7253 18.048 42.59 18.3233 42.59 18.678C42.59 18.9767 42.674 19.2193 42.842 19.406C43.01 19.5833 43.2293 19.7373 43.5 19.868C43.78 19.9893 44.0833 20.106 44.41 20.218C44.746 20.33 45.0773 20.456 45.404 20.596C45.74 20.736 46.0433 20.918 46.314 21.142C46.594 21.3567 46.818 21.6367 46.986 21.982C47.154 22.3273 47.238 22.7613 47.238 23.284C47.238 24.1613 46.9253 24.8567 46.3 25.37C45.684 25.8833 44.8487 26.14 43.794 26.14ZM52.7761 22.08L48.9541 16.2H50.8161L53.7981 20.89H52.9301L55.9121 16.2H57.7461L53.8961 22.08H52.7761ZM52.5521 26V21.072H54.1621V26H52.5521ZM60.1745 26V16.2H61.2945L61.7845 18.048V26H60.1745ZM66.9645 26L61.0985 18.342L61.2945 16.2L67.1605 23.858L66.9645 26ZM66.9645 26L66.4745 24.278V16.2H68.0845V26H66.9645ZM70.8817 26L74.9137 16.2H76.0337L80.0377 26H78.3017L75.1657 18.062H75.7537L72.5897 26H70.8817ZM72.8697 24.11V22.71H78.0637V24.11H72.8697ZM83.8364 22.304V20.904H86.2864C86.6224 20.904 86.9164 20.8387 87.1684 20.708C87.4297 20.568 87.6351 20.3767 87.7844 20.134C87.9337 19.882 88.0084 19.588 88.0084 19.252C88.0084 18.916 87.9337 18.6267 87.7844 18.384C87.6351 18.132 87.4297 17.9407 87.1684 17.81C86.9164 17.67 86.6224 17.6 86.2864 17.6H83.8364V16.2H86.3704C86.9864 16.2 87.5371 16.326 88.0224 16.578C88.5171 16.83 88.9044 17.1847 89.1844 17.642C89.4737 18.0993 89.6184 18.636 89.6184 19.252C89.6184 19.868 89.4737 20.4047 89.1844 20.862C88.9044 21.3193 88.5171 21.674 88.0224 21.926C87.5371 22.178 86.9864 22.304 86.3704 22.304H83.8364ZM82.7304 26V16.2H84.3404V26H82.7304ZM94.7839 26V16.48H96.3939V26H94.7839ZM91.5919 17.67V16.2H99.5859V17.67H91.5919ZM102.388 26V16.2H103.998V26H102.388ZM103.494 26V24.53H108.982V26H103.494ZM103.494 21.702V20.288H108.506V21.702H103.494ZM103.494 17.67V16.2H108.912V17.67H103.494ZM117.968 26L113.432 20.89L117.87 16.2H119.928L115.028 21.296V20.414L120.068 26H117.968ZM112.046 26V16.2H113.656V26H112.046ZM128.446 26L125.562 21.632H125.268L121.39 16.2H123.294L126.192 20.316H126.486L130.322 26H128.446ZM121.222 26L124.946 20.764L126.052 21.702L123.028 26H121.222ZM126.598 21.31L125.492 20.372L128.348 16.2H130.154L126.598 21.31Z" fill="white"/>
<defs>
<linearGradient id="paint0_linear_388_1685" x1="0" y1="20.5" x2="142" y2="20.5" gradientUnits="userSpaceOnUse">
<stop stop-color="#FA582D"/>
<stop offset="1" stop-color="#FFC328"/>
</linearGradient>
<linearGradient id="paint1_linear_388_1685" x1="8" y1="20.5" x2="32" y2="20.5" gradientUnits="userSpaceOnUse">
<stop stop-color="#FA582D"/>
<stop offset="1" stop-color="#FFC328"/>
</linearGradient>
</defs>
</svg>
