<svg width="21" height="32" viewBox="0 0 21 32" fill="none" xmlns="http://www.w3.org/2000/svg">
<path d="M21 20.4226C21 15.8705 18.0878 11.9862 14.0288 10.5334C15.3556 9.48717 16.2087 7.86589 16.2087 6.04905C16.2088 2.90119 13.6479 0.34021 10.5 0.34021C7.35214 0.34021 4.79122 2.90119 4.79122 6.04899C4.79122 7.86583 5.64443 9.48711 6.97111 10.5334C2.91217 11.9862 0 15.8704 0 20.4226C0 22.2595 0.872237 23.8962 2.22399 24.9411C2.36842 20.5008 6.0251 16.9328 10.5 16.9328C14.9749 16.9328 18.6316 20.5008 18.7761 24.9411C20.1278 23.8961 21 22.2594 21 20.4226Z" fill="url(#paint0_linear_1_953)"/>
<path d="M10.5 18.768C6.94572 18.768 4.05411 21.6596 4.05411 25.2139C4.05411 28.7681 6.94572 31.6598 10.5 31.6598C14.0543 31.6598 16.9459 28.7681 16.9459 25.2139C16.9459 21.6596 14.0543 18.768 10.5 18.768ZM9.96714 27.3471C9.96163 27.3471 9.95613 27.3472 9.95068 27.3472C9.70753 27.3472 9.4741 27.2507 9.30191 27.0784L8.13715 25.9136C7.77881 25.5553 7.77881 24.9743 8.13715 24.616C8.49549 24.2577 9.07649 24.2577 9.43477 24.616L9.92707 25.1083L11.5424 23.3729C11.8878 23.0019 12.4684 22.9812 12.8392 23.3264C13.2101 23.6717 13.2309 24.2523 12.8857 24.6233L10.6223 27.0548C10.4527 27.2371 10.2161 27.3426 9.96714 27.3471Z" fill="url(#paint1_linear_1_953)"/>
<defs>
<linearGradient id="paint0_linear_1_953" x1="0" y1="16" x2="21" y2="16" gradientUnits="userSpaceOnUse">
<stop stop-color="#FA582D"/>
<stop offset="1" stop-color="#FFC328"/>
</linearGradient>
<linearGradient id="paint1_linear_1_953" x1="0" y1="16" x2="21" y2="16" gradientUnits="userSpaceOnUse">
<stop stop-color="#FA582D"/>
<stop offset="1" stop-color="#FFC328"/>
</linearGradient>
</defs>
</svg>
