<svg width="33" height="49" viewBox="0 0 33 49" fill="none" xmlns="http://www.w3.org/2000/svg">
<path d="M32.3709 31.2381C32.3709 24.2615 27.9077 18.3085 21.687 16.082C23.7203 14.4785 25.0278 11.9937 25.0278 9.20927C25.0279 4.3849 21.1031 0.459961 16.2787 0.459961C11.4543 0.459961 7.52949 4.3849 7.52949 9.20918C7.52949 11.9936 8.83712 14.4784 10.8704 16.0819C4.64968 18.3085 0.186523 24.2614 0.186523 31.2381C0.186523 34.0532 1.5233 36.5616 3.59499 38.163C3.81634 31.3578 9.42052 25.8896 16.2787 25.8896C23.1369 25.8896 28.7411 31.3578 28.9625 38.163C31.0342 36.5615 32.3709 34.0531 32.3709 31.2381Z" fill="url(#paint0_linear_1034_812)"/>
<path d="M16.2787 28.7021C10.8315 28.7021 6.39981 33.1338 6.39981 38.5811C6.39981 44.0283 10.8315 48.46 16.2787 48.46C21.726 48.46 26.1576 44.0283 26.1576 38.5811C26.1576 33.1338 21.726 28.7021 16.2787 28.7021ZM15.4621 41.8504C15.4536 41.8505 15.4452 41.8506 15.4368 41.8506C15.0642 41.8506 14.7064 41.7026 14.4425 41.4386L12.6574 39.6535C12.1082 39.1043 12.1082 38.2139 12.6574 37.6647C13.2066 37.1157 14.0971 37.1157 14.6461 37.6647L15.4006 38.4192L17.8763 35.7596C18.4056 35.1911 19.2955 35.1594 19.8637 35.6884C20.4322 36.2175 20.4641 37.1074 19.935 37.6759L16.4662 41.4025C16.2062 41.6818 15.8436 41.8436 15.4621 41.8504Z" fill="url(#paint1_linear_1034_812)"/>
<defs>
<linearGradient id="paint0_linear_1034_812" x1="0.186523" y1="24.46" x2="32.3709" y2="24.46" gradientUnits="userSpaceOnUse">
<stop stop-color="#FA582D"/>
<stop offset="1" stop-color="#FFC328"/>
</linearGradient>
<linearGradient id="paint1_linear_1034_812" x1="0.186523" y1="24.46" x2="32.3709" y2="24.46" gradientUnits="userSpaceOnUse">
<stop stop-color="#FA582D"/>
<stop offset="1" stop-color="#FFC328"/>
</linearGradient>
</defs>
</svg>
